{
copyright = "Copyright (c) 2014 by Steven Ng with Reserved Font Name \"Aitu\". Licensed under the SIL Open Font License, Version 1.1. ";
customParameters = (
{
name = vendorID;
value = tyPL;
}
);
date = "2014-08-21 01:31:52 +0000";
designer = "Steven Ng";
designerURL = "http://www.assignittous.com";
familyName = "Aitu";
featurePrefixes = (
{
automatic = 1;
code = "languagesystem DFLT dflt;\012languagesystem latn dflt;\012languagesystem math dflt;\012";
name = Languagesystems;
}
);
features = (
{
automatic = 1;
code = "feature frac;\012";
name = aalt;
},
{
automatic = 1;
code = "sub one slash four by onequarter;\012sub one slash two by onehalf;\012sub three slash four by threequarters;\012";
name = frac;
},
{
automatic = 1;
code = "sub f f i by f_f_i;\012sub f f l by f_f_l;\012sub f i by fi;\012sub f l by fl;\012";
name = liga;
}
);
fontMaster = (
{
alignmentZones = (
"{1432, 21}",
"{1013, 16}",
"{0, -15}",
"{-342, -7}"
);
ascender = 1610;
capHeight = 1433;
customParameters = (
{
name = typoAscender;
value = 1610;
},
{
name = typoDescender;
value = "-390";
},
{
name = typoLineGap;
value = 400;
},
{
name = underlinePosition;
value = "-6";
}
);
descender = "-390";
id = "E7469244-AD98-4857-BCFE-AC0111B942FA";
weightValue = 400;
widthValue = 5;
xHeight = 1013;
}
);
glyphs = (
{
glyphname = A;
layers = (
{
layerId = "E7469244-AD98-4857-BCFE-AC0111B942FA";
name = Regular;
paths = (
{
closed = 1;
nodes = (
"1348 0 LINE",
"775 1433 LINE",
"579 1433 LINE",
"6 0 LINE",
"156 0 LINE SMOOTH",
"173 0 OFFCURVE",
"187 5 OFFCURVE",
"198 14 CURVE SMOOTH",
"209 23 OFFCURVE",
"217 34 OFFCURVE",
"221 46 CURVE",
"355 392 LINE",
"998 392 LINE",
"1132 46 LINE SMOOTH",
"1137 33 OFFCURVE",
"1145 22 OFFCURVE",
"1156 13 CURVE SMOOTH",
"1167 4 OFFCURVE",
"1181 0 OFFCURVE",
"1198 0 CURVE SMOOTH"
);
},
{
closed = 1;
nodes = (
"409 532 LINE",
"634 1114 LINE SMOOTH",
"641 1131 OFFCURVE",
"649 1152 OFFCURVE",
"656 1175 CURVE SMOOTH",
"663 1198 OFFCURVE",
"669 1222 OFFCURVE",
"676 1248 CURVE",
"683 1222 OFFCURVE",
"691 1198 OFFCURVE",
"698 1175 CURVE SMOOTH",
"705 1152 OFFCURVE",
"712 1132 OFFCURVE",
"719 1115 CURVE SMOOTH",
"944 532 LINE"
);
}
);
width = 1354;
}
);
leftKerningGroup = A;
rightKerningGroup = A;
unicode = 0041;
},
{
glyphname = Aacute;
layers = (
{
layerId = "E7469244-AD98-4857-BCFE-AC0111B942FA";
name = Regular;
paths = (
{
closed = 1;
nodes = (
"1348 0 LINE",
"775 1433 LINE",
"579 1433 LINE",
"6 0 LINE",
"156 0 LINE SMOOTH",
"173 0 OFFCURVE",
"187 5 OFFCURVE",
"198 14 CURVE SMOOTH",
"209 23 OFFCURVE",
"217 34 OFFCURVE",
"221 46 CURVE",
"355 392 LINE",
"998 392 LINE",
"1132 46 LINE SMOOTH",
"1137 33 OFFCURVE",
"1145 22 OFFCURVE",
"1156 13 CURVE SMOOTH",
"1167 4 OFFCURVE",
"1181 0 OFFCURVE",
"1198 0 CURVE SMOOTH"
);
},
{
closed = 1;
nodes = (
"409 532 LINE",
"634 1114 LINE SMOOTH",
"641 1131 OFFCURVE",
"649 1152 OFFCURVE",
"656 1175 CURVE SMOOTH",
"663 1198 OFFCURVE",
"669 1222 OFFCURVE",
"676 1248 CURVE",
"683 1222 OFFCURVE",
"691 1198 OFFCURVE",
"698 1175 CURVE SMOOTH",
"705 1152 OFFCURVE",
"712 1132 OFFCURVE",
"719 1115 CURVE SMOOTH",
"944 532 LINE"
);
},
{
closed = 1;
nodes = (
"1055 1852 LINE",
"854 1852 LINE SMOOTH",
"832 1852 OFFCURVE",
"815 1850 OFFCURVE",
"804 1847 CURVE SMOOTH",
"792 1844 OFFCURVE",
"780 1835 OFFCURVE",
"769 1820 CURVE",
"538 1546 LINE",
"666 1546 LINE SMOOTH",
"679 1546 OFFCURVE",
"691 1547 OFFCURVE",
"700 1549 CURVE SMOOTH",
"709 1551 OFFCURVE",
"719 1557 OFFCURVE",
"729 1566 CURVE SMOOTH"
);
}
);
width = 1354;
}
);
leftKerningGroup = A;
rightKerningGroup = A;
unicode = 00C1;
},
{
glyphname = Acircumflex;
layers = (
{
layerId = "E7469244-AD98-4857-BCFE-AC0111B942FA";
name = Regular;
paths = (
{
closed = 1;
nodes = (
"1348 0 LINE",
"775 1433 LINE",
"579 1433 LINE",
"6 0 LINE",
"156 0 LINE SMOOTH",
"173 0 OFFCURVE",
"187 5 OFFCURVE",
"198 14 CURVE SMOOTH",
"209 23 OFFCURVE",
"217 34 OFFCURVE",
"221 46 CURVE",
"355 392 LINE",
"998 392 LINE",
"1132 46 LINE SMOOTH",
"1137 33 OFFCURVE",
"1145 22 OFFCURVE",
"1156 13 CURVE SMOOTH",
"1167 4 OFFCURVE",
"1181 0 OFFCURVE",
"1198 0 CURVE SMOOTH"
);
},
{
closed = 1;
nodes = (
"409 532 LINE",
"634 1114 LINE SMOOTH",
"641 1131 OFFCURVE",
"649 1152 OFFCURVE",
"656 1175 CURVE SMOOTH",
"663 1198 OFFCURVE",
"669 1222 OFFCURVE",
"676 1248 CURVE",
"683 1222 OFFCURVE",
"691 1198 OFFCURVE",
"698 1175 CURVE SMOOTH",
"705 1152 OFFCURVE",
"712 1132 OFFCURVE",
"719 1115 CURVE SMOOTH",
"944 532 LINE"
);
},
{
closed = 1;
nodes = (
"997 1546 LINE",
"759 1817 LINE",
"599 1817 LINE",
"360 1546 LINE",
"485 1546 LINE SMOOTH",
"493 1546 OFFCURVE",
"503 1548 OFFCURVE",
"514 1551 CURVE SMOOTH",
"525 1554 OFFCURVE",
"536 1562 OFFCURVE",
"547 1575 CURVE SMOOTH",
"664 1716 LINE",
"676 1733 LINE",
"680 1727 OFFCURVE",
"684 1721 OFFCURVE",
"688 1716 CURVE SMOOTH",
"805 1575 LINE SMOOTH",
"816 1562 OFFCURVE",
"828 1554 OFFCURVE",
"839 1551 CURVE SMOOTH",
"850 1548 OFFCURVE",
"859 1546 OFFCURVE",
"867 1546 CURVE SMOOTH"
);
}
);
width = 1354;
}
);
leftKerningGroup = A;
rightKerningGroup = A;
unicode = 00C2;
},
{
glyphname = Adieresis;
layers = (
{
layerId = "E7469244-AD98-4857-BCFE-AC0111B942FA";
name = Regular;
paths = (
{
closed = 1;
nodes = (
"1348 0 LINE",
"775 1433 LINE",
"579 1433 LINE",
"6 0 LINE",
"156 0 LINE SMOOTH",
"173 0 OFFCURVE",
"187 5 OFFCURVE",
"198 14 CURVE SMOOTH",
"209 23 OFFCURVE",
"217 34 OFFCURVE",
"221 46 CURVE",
"355 392 LINE",
"998 392 LINE",
"1132 46 LINE SMOOTH",
"1137 33 OFFCURVE",
"1145 22 OFFCURVE",
"1156 13 CURVE SMOOTH",
"1167 4 OFFCURVE",
"1181 0 OFFCURVE",
"1198 0 CURVE SMOOTH"
);
},
{
closed = 1;
nodes = (
"409 532 LINE",
"634 1114 LINE SMOOTH",
"641 1131 OFFCURVE",
"649 1152 OFFCURVE",
"656 1175 CURVE SMOOTH",
"663 1198 OFFCURVE",
"669 1222 OFFCURVE",
"676 1248 CURVE",
"683 1222 OFFCURVE",
"691 1198 OFFCURVE",
"698 1175 CURVE SMOOTH",
"705 1152 OFFCURVE",
"712 1132 OFFCURVE",
"719 1115 CURVE SMOOTH",
"944 532 LINE"
);
},
{
closed = 1;
nodes = (
"577 1681 OFFCURVE",
"574 1696 OFFCURVE",
"568 1710 CURVE SMOOTH",
"562 1723 OFFCURVE",
"554 1735 OFFCURVE",
"544 1745 CURVE",
"533 1755 OFFCURVE",
"521 1763 OFFCURVE",
"508 1769 CURVE SMOOTH",
"494 1775 OFFCURVE",
"480 1778 OFFCURVE",
"465 1778 CURVE SMOOTH",
"451 1778 OFFCURVE",
"438 1775 OFFCURVE",
"425 1769 CURVE SMOOTH",
"412 1763 OFFCURVE",
"400 1755 OFFCURVE",
"390 1745 CURVE SMOOTH",
"380 1735 OFFCURVE",
"372 1723 OFFCURVE",
"366 1710 CURVE SMOOTH",
"360 1696 OFFCURVE",
"357 1681 OFFCURVE",
"357 1666 CURVE SMOOTH",
"357 1651 OFFCURVE",
"360 1638 OFFCURVE",
"366 1625 CURVE SMOOTH",
"372 1612 OFFCURVE",
"380 1600 OFFCURVE",
"390 1590 CURVE SMOOTH",
"400 1580 OFFCURVE",
"412 1572 OFFCURVE",
"425 1567 CURVE",
"438 1561 OFFCURVE",
"451 1558 OFFCURVE",
"465 1558 CURVE SMOOTH",
"480 1558 OFFCURVE",
"494 1561 OFFCURVE",
"508 1567 CURVE",
"521 1572 OFFCURVE",
"533 1580 OFFCURVE",
"544 1590 CURVE",
"554 1600 OFFCURVE",
"562 1612 OFFCURVE",
"568 1625 CURVE SMOOTH",
"574 1638 OFFCURVE",
"577 1651 OFFCURVE",
"577 1666 CURVE SMOOTH"
);
},
{
closed = 1;
nodes = (
"995 1681 OFFCURVE",
"992 1696 OFFCURVE",
"986 1710 CURVE SMOOTH",
"980 1723 OFFCURVE",
"972 1735 OFFCURVE",
"962 1745 CURVE SMOOTH",
"952 1755 OFFCURVE",
"940 1763 OFFCURVE",
"927 1769 CURVE SMOOTH",
"914 1775 OFFCURVE",
"900 1778 OFFCURVE",
"885 1778 CURVE SMOOTH",
"870 1778 OFFCURVE",
"855 1775 OFFCURVE",
"842 1769 CURVE SMOOTH",
"829 1763 OFFCURVE",
"817 1755 OFFCURVE",
"807 1745 CURVE SMOOTH",
"797 1735 OFFCURVE",
"789 1723 OFFCURVE",
"784 1710 CURVE",
"778 1696 OFFCURVE",
"775 1681 OFFCURVE",
"775 1666 CURVE SMOOTH",
"775 1651 OFFCURVE",
"778 1638 OFFCURVE",
"784 1625 CURVE",
"789 1612 OFFCURVE",
"797 1600 OFFCURVE",
"807 1590 CURVE SMOOTH",
"817 1580 OFFCURVE",
"829 1572 OFFCURVE",
"842 1567 CURVE",
"855 1561 OFFCURVE",
"870 1558 OFFCURVE",
"885 1558 CURVE SMOOTH",
"900 1558 OFFCURVE",
"914 1561 OFFCURVE",
"927 1567 CURVE",
"940 1572 OFFCURVE",
"952 1580 OFFCURVE",
"962 1590 CURVE SMOOTH",
"972 1600 OFFCURVE",
"980 1612 OFFCURVE",
"986 1625 CURVE SMOOTH",
"992 1638 OFFCURVE",
"995 1651 OFFCURVE",
"995 1666 CURVE SMOOTH"
);
}
);
width = 1354;
}
);
leftKerningGroup = A;
rightKerningGroup = A;
unicode = 00C4;
},
{
glyphname = Agrave;
layers = (
{
layerId = "E7469244-AD98-4857-BCFE-AC0111B942FA";
name = Regular;
paths = (
{
closed = 1;
nodes = (
"1348 0 LINE",
"775 1433 LINE",
"579 1433 LINE",
"6 0 LINE",
"156 0 LINE SMOOTH",
"173 0 OFFCURVE",
"187 5 OFFCURVE",
"198 14 CURVE SMOOTH",
"209 23 OFFCURVE",
"217 34 OFFCURVE",
"221 46 CURVE",
"355 392 LINE",
"998 392 LINE",
"1132 46 LINE SMOOTH",
"1137 33 OFFCURVE",
"1145 22 OFFCURVE",
"1156 13 CURVE SMOOTH",
"1167 4 OFFCURVE",
"1181 0 OFFCURVE",
"1198 0 CURVE SMOOTH"
);
},
{
closed = 1;
nodes = (
"409 532 LINE",
"634 1114 LINE SMOOTH",
"641 1131 OFFCURVE",
"649 1152 OFFCURVE",
"656 1175 CURVE SMOOTH",
"663 1198 OFFCURVE",
"669 1222 OFFCURVE",
"676 1248 CURVE",
"683 1222 OFFCURVE",
"691 1198 OFFCURVE",
"698 1175 CURVE SMOOTH",
"705 1152 OFFCURVE",
"712 1132 OFFCURVE",
"719 1115 CURVE SMOOTH",
"944 532 LINE"
);
},
{
closed = 1;
nodes = (
"310 1852 LINE",
"622 1565 LINE SMOOTH",
"632 1556 OFFCURVE",
"641 1550 OFFCURVE",
"650 1549 CURVE",
"658 1547 OFFCURVE",
"669 1546 OFFCURVE",
"684 1546 CURVE SMOOTH",
"812 1546 LINE",
"584 1820 LINE",
"573 1835 OFFCURVE",
"561 1844 OFFCURVE",
"550 1847 CURVE SMOOTH",
"539 1850 OFFCURVE",
"522 1852 OFFCURVE",
"500 1852 CURVE SMOOTH"
);
}
);
width = 1354;
}
);
leftKerningGroup = A;
rightKerningGroup = A;
unicode = 00C0;
},
{
glyphname = Aring;
layers = (
{
layerId = "E7469244-AD98-4857-BCFE-AC0111B942FA";
name = Regular;
paths = (
{
closed = 1;
nodes = (
"1348 0 LINE",
"775 1433 LINE",
"579 1433 LINE",
"6 0 LINE",
"156 0 LINE SMOOTH",
"173 0 OFFCURVE",
"187 5 OFFCURVE",
"198 14 CURVE SMOOTH",
"209 23 OFFCURVE",
"217 34 OFFCURVE",
"221 46 CURVE",
"355 392 LINE",
"998 392 LINE",
"1132 46 LINE SMOOTH",
"1137 33 OFFCURVE",
"1145 22 OFFCURVE",
"1156 13 CURVE SMOOTH",
"1167 4 OFFCURVE",
"1181 0 OFFCURVE",
"1198 0 CURVE SMOOTH"
);
},
{
closed = 1;
nodes = (
"409 532 LINE",
"634 1114 LINE SMOOTH",
"641 1131 OFFCURVE",
"649 1152 OFFCURVE",
"656 1175 CURVE SMOOTH",
"663 1198 OFFCURVE",
"669 1222 OFFCURVE",
"676 1248 CURVE",
"683 1222 OFFCURVE",
"691 1198 OFFCURVE",
"698 1175 CURVE SMOOTH",
"705 1152 OFFCURVE",
"712 1132 OFFCURVE",
"719 1115 CURVE SMOOTH",
"944 532 LINE"
);
},
{
closed = 1;
nodes = (
"487 1671 OFFCURVE",
"492 1647 OFFCURVE",
"503 1626 CURVE",
"513 1605 OFFCURVE",
"527 1586 OFFCURVE",
"544 1571 CURVE SMOOTH",
"561 1556 OFFCURVE",
"580 1544 OFFCURVE",
"603 1535 CURVE SMOOTH",
"626 1526 OFFCURVE",
"650 1522 OFFCURVE",
"675 1522 CURVE SMOOTH",
"701 1522 OFFCURVE",
"726 1526 OFFCURVE",
"749 1535 CURVE SMOOTH",
"772 1544 OFFCURVE",
"793 1556 OFFCURVE",
"810 1571 CURVE SMOOTH",
"827 1586 OFFCURVE",
"841 1605 OFFCURVE",
"852 1626 CURVE",
"862 1647 OFFCURVE",
"867 1671 OFFCURVE",
"867 1697 CURVE SMOOTH",
"867 1723 OFFCURVE",
"862 1747 OFFCURVE",
"852 1769 CURVE",
"841 1791 OFFCURVE",
"827 1810 OFFCURVE",
"810 1825 CURVE SMOOTH",
"793 1840 OFFCURVE",
"772 1852 OFFCURVE",
"749 1861 CURVE SMOOTH",
"726 1870 OFFCURVE",
"701 1874 OFFCURVE",
"675 1874 CURVE SMOOTH",
"650 1874 OFFCURVE",
"626 1870 OFFCURVE",
"603 1861 CURVE SMOOTH",
"580 1852 OFFCURVE",
"561 1840 OFFCURVE",
"544 1825 CURVE SMOOTH",
"527 1810 OFFCURVE",
"513 1791 OFFCURVE",
"503 1769 CURVE",
"492 1747 OFFCURVE",
"487 1723 OFFCURVE",
"487 1697 CURVE SMOOTH"
);
},
{
closed = 1;
nodes = (
"576 1727 OFFCURVE",
"585 1751 OFFCURVE",
"603 1770 CURVE SMOOTH",
"621 1789 OFFCURVE",
"646 1798 OFFCURVE",
"678 1798 CURVE SMOOTH",
"708 1798 OFFCURVE",
"732 1789 OFFCURVE",
"751 1770 CURVE SMOOTH",
"769 1751 OFFCURVE",
"778 1727 OFFCURVE",
"778 1697 CURVE SMOOTH",
"778 1668 OFFCURVE",
"769 1644 OFFCURVE",
"751 1625 CURVE SMOOTH",
"732 1606 OFFCURVE",
"708 1597 OFFCURVE",
"678 1597 CURVE SMOOTH",
"646 1597 OFFCURVE",
"621 1606 OFFCURVE",
"603 1625 CURVE SMOOTH",
"585 1644 OFFCURVE",
"576 1668 OFFCURVE",
"576 1697 CURVE SMOOTH"
);
}
);
width = 1354;
}
);
leftKerningGroup = A;
rightKerningGroup = A;
unicode = 00C5;
},
{
glyphname = Atilde;
layers = (
{
layerId = "E7469244-AD98-4857-BCFE-AC0111B942FA";
name = Regular;
paths = (
{
closed = 1;
nodes = (
"1348 0 LINE",
"775 1433 LINE",
"579 1433 LINE",
"6 0 LINE",
"156 0 LINE SMOOTH",
"173 0 OFFCURVE",
"187 5 OFFCURVE",
"198 14 CURVE SMOOTH",
"209 23 OFFCURVE",
"217 34 OFFCURVE",
"221 46 CURVE",
"355 392 LINE",
"998 392 LINE",
"1132 46 LINE SMOOTH",
"1137 33 OFFCURVE",
"1145 22 OFFCURVE",
"1156 13 CURVE SMOOTH",
"1167 4 OFFCURVE",
"1181 0 OFFCURVE",
"1198 0 CURVE SMOOTH"
);
},
{
closed = 1;
nodes = (
"409 532 LINE",
"634 1114 LINE SMOOTH",
"641 1131 OFFCURVE",
"649 1152 OFFCURVE",
"656 1175 CURVE SMOOTH",
"663 1198 OFFCURVE",
"669 1222 OFFCURVE",
"676 1248 CURVE",
"683 1222 OFFCURVE",
"691 1198 OFFCURVE",
"698 1175 CURVE SMOOTH",
"705 1152 OFFCURVE",
"712 1132 OFFCURVE",
"719 1115 CURVE SMOOTH",
"944 532 LINE"
);
},
{
closed = 1;
nodes = (
"783 1663 OFFCURVE",
"765 1669 OFFCURVE",
"747 1680 CURVE SMOOTH",
"729 1691 OFFCURVE",
"710 1703 OFFCURVE",
"690 1716 CURVE SMOOTH",
"670 1729 OFFCURVE",
"648 1741 OFFCURVE",
"624 1752 CURVE SMOOTH",
"600 1763 OFFCURVE",
"573 1768 OFFCURVE",
"543 1768 CURVE SMOOTH",
"514 1768 OFFCURVE",
"488 1762 OFFCURVE",
"465 1750 CURVE SMOOTH",
"442 1738 OFFCURVE",
"423 1722 OFFCURVE",
"408 1702 CURVE SMOOTH",
"393 1681 OFFCURVE",
"381 1658 OFFCURVE",
"373 1631 CURVE SMOOTH",
"364 1604 OFFCURVE",
"360 1577 OFFCURVE",
"360 1548 CURVE",
"471 1548 LINE",
"471 1560 OFFCURVE",
"473 1572 OFFCURVE",
"477 1584 CURVE SMOOTH",
"481 1596 OFFCURVE",
"487 1607 OFFCURVE",
"495 1617 CURVE SMOOTH",
"502 1626 OFFCURVE",
"512 1634 OFFCURVE",
"523 1640 CURVE SMOOTH",
"534 1646 OFFCURVE",
"548 1649 OFFCURVE",
"563 1649 CURVE SMOOTH",
"582 1649 OFFCURVE",
"600 1644 OFFCURVE",
"618 1633 CURVE SMOOTH",
"636 1622 OFFCURVE",
"655 1610 OFFCURVE",
"676 1597 CURVE SMOOTH",
"696 1584 OFFCURVE",
"718 1572 OFFCURVE",
"742 1561 CURVE SMOOTH",
"765 1550 OFFCURVE",
"792 1544 OFFCURVE",
"822 1544 CURVE SMOOTH",
"851 1544 OFFCURVE",
"877 1550 OFFCURVE",
"900 1562 CURVE SMOOTH",
"923 1574 OFFCURVE",
"942 1590 OFFCURVE",
"958 1611 CURVE SMOOTH",
"973 1631 OFFCURVE",
"985 1654 OFFCURVE",
"993 1681 CURVE SMOOTH",
"1001 1707 OFFCURVE",
"1005 1734 OFFCURVE",
"1005 1763 CURVE",
"896 1763 LINE",
"896 1751 OFFCURVE",
"894 1739 OFFCURVE",
"890 1727 CURVE SMOOTH",
"886 1715 OFFCURVE",
"880 1704 OFFCURVE",
"872 1695 CURVE",
"864 1685 OFFCURVE",
"854 1677 OFFCURVE",
"843 1672 CURVE",
"831 1666 OFFCURVE",
"817 1663 OFFCURVE",
"802 1663 CURVE SMOOTH"
);
}
);
width = 1354;
}
);
leftKerningGroup = A;
rightKerningGroup = A;
unicode = 00C3;
},
{
glyphname = AE;
layers = (
{
layerId = "E7469244-AD98-4857-BCFE-AC0111B942FA";
name = Regular;
paths = (
{
closed = 1;
nodes = (
"750 1433 LINE",
"-6 0 LINE",
"141 0 LINE SMOOTH",
"158 0 OFFCURVE",
"173 4 OFFCURVE",
"186 13 CURVE",
"199 21 OFFCURVE",
"208 32 OFFCURVE",
"215 45 CURVE SMOOTH",
"394 392 LINE",
"951 392 LINE",
"1000 0 LINE",
"1772 0 LINE",
"1773 158 LINE",
"1162 158 LINE",
"1101 647 LINE",
"1641 647 LINE",
"1641 799 LINE",
"1082 799 LINE",
"1023 1275 LINE",
"1772 1275 LINE",
"1772 1433 LINE"
);
},
{
closed = 1;
nodes = (
"467 532 LINE",
"784 1144 LINE",
"793 1165 OFFCURVE",
"803 1187 OFFCURVE",
"812 1211 CURVE SMOOTH",
"821 1234 OFFCURVE",
"830 1260 OFFCURVE",
"839 1287 CURVE",
"933 532 LINE"
);
}
);
width = 1861;
}
);
leftKerningGroup = AE;
rightKerningGroup = AE;
unicode = 00C6;
},
{
glyphname = B;
layers = (
{
layerId = "E7469244-AD98-4857-BCFE-AC0111B942FA";
name = Regular;
paths = (
{
closed = 1;
nodes = (
"183 0 LINE",
"689 0 LINE SMOOTH",
"769 0 OFFCURVE",
"840 10 OFFCURVE",
"903 30 CURVE SMOOTH",
"966 49 OFFCURVE",
"1019 77 OFFCURVE",
"1062 113 CURVE SMOOTH",
"1105 149 OFFCURVE",
"1137 192 OFFCURVE",
"1160 242 CURVE SMOOTH",
"1182 292 OFFCURVE",
"1193 347 OFFCURVE",
"1193 408 CURVE SMOOTH",
"1193 497 OFFCURVE",
"1166 569 OFFCURVE",
"1113 624 CURVE SMOOTH",
"1060 679 OFFCURVE",
"981 716 OFFCURVE",
"876 737 CURVE",
"921 751 OFFCURVE",
"961 769 OFFCURVE",
"995 791 CURVE SMOOTH",
"1028 813 OFFCURVE",
"1056 838 OFFCURVE",
"1078 866 CURVE SMOOTH",
"1100 894 OFFCURVE",
"1117 924 OFFCURVE",
"1128 957 CURVE SMOOTH",
"1139 990 OFFCURVE",
"1144 1024 OFFCURVE",
"1144 1059 CURVE SMOOTH",
"1144 1117 OFFCURVE",
"1134 1169 OFFCURVE",
"1115 1216 CURVE SMOOTH",
"1096 1262 OFFCURVE",
"1066 1301 OFFCURVE",
"1025 1333 CURVE SMOOTH",
"984 1365 OFFCURVE",
"931 1390 OFFCURVE",
"868 1407 CURVE SMOOTH",
"804 1424 OFFCURVE",
"728 1433 OFFCURVE",
"640 1433 CURVE SMOOTH",
"183 1433 LINE"
);
},
{
closed = 1;
nodes = (
"376 653 LINE",
"686 653 LINE SMOOTH",
"791 653 OFFCURVE",
"870 632 OFFCURVE",
"923 589 CURVE SMOOTH",
"976 546 OFFCURVE",
"1002 487 OFFCURVE",
"1002 413 CURVE SMOOTH",
"1002 375 OFFCURVE",
"996 340 OFFCURVE",
"984 309 CURVE SMOOTH",
"972 277 OFFCURVE",
"953 250 OFFCURVE",
"928 227 CURVE SMOOTH",
"902 204 OFFCURVE",
"869 186 OFFCURVE",
"829 173 CURVE SMOOTH",
"789 160 OFFCURVE",
"741 154 OFFCURVE",
"686 154 CURVE SMOOTH",
"376 154 LINE"
);
},
{
closed = 1;
nodes = (
"376 791 LINE",
"376 1280 LINE",
"640 1280 LINE SMOOTH",
"747 1280 OFFCURVE",
"825 1261 OFFCURVE",
"876 1222 CURVE SMOOTH",
"927 1183 OFFCURVE",
"952 1121 OFFCURVE",
"952 1036 CURVE SMOOTH",
"952 1000 OFFCURVE",
"946 967 OFFCURVE",
"933 937 CURVE SMOOTH",
"920 906 OFFCURVE",
"901 880 OFFCURVE",
"875 859 CURVE SMOOTH",
"848 838 OFFCURVE",
"815 821 OFFCURVE",
"775 809 CURVE SMOOTH",
"734 797 OFFCURVE",
"687 791 OFFCURVE",
"632 791 CURVE SMOOTH"
);
}
);
width = 1293;
}
);
leftKerningGroup = B;
rightKerningGroup = B;
unicode = 0042;
},
{
glyphname = C;
layers = (
{
layerId = "E7469244-AD98-4857-BCFE-AC0111B942FA";
name = Regular;
paths = (
{
closed = 1;
nodes = (
"1178 296 OFFCURVE",
"1166 291 OFFCURVE",
"1155 281 CURVE SMOOTH",
"1130 258 OFFCURVE",
"1106 239 OFFCURVE",
"1081 223 CURVE SMOOTH",
"1056 206 OFFCURVE",
"1029 193 OFFCURVE",
"1000 182 CURVE SMOOTH",
"971 171 OFFCURVE",
"939 164 OFFCURVE",
"905 159 CURVE SMOOTH",
"870 154 OFFCURVE",
"832 151 OFFCURVE",
"789 151 CURVE SMOOTH",
"719 151 OFFCURVE",
"654 164 OFFCURVE",
"594 189 CURVE SMOOTH",
"533 214 OFFCURVE",
"481 251 OFFCURVE",
"437 300 CURVE SMOOTH",
"392 348 OFFCURVE",
"357 407 OFFCURVE",
"332 477 CURVE SMOOTH",
"306 547 OFFCURVE",
"293 627 OFFCURVE",
"293 716 CURVE SMOOTH",
"293 804 OFFCURVE",
"305 883 OFFCURVE",
"330 953 CURVE SMOOTH",
"355 1023 OFFCURVE",
"389 1082 OFFCURVE",
"434 1131 CURVE SMOOTH",
"478 1180 OFFCURVE",
"531 1217 OFFCURVE",
"592 1243 CURVE SMOOTH",
"653 1268 OFFCURVE",
"721 1281 OFFCURVE",
"795 1281 CURVE SMOOTH",
"856 1281 OFFCURVE",
"908 1275 OFFCURVE",
"950 1262 CURVE SMOOTH",
"992 1249 OFFCURVE",
"1027 1234 OFFCURVE",
"1055 1218 CURVE SMOOTH",
"1083 1202 OFFCURVE",
"1106 1188 OFFCURVE",
"1123 1175 CURVE SMOOTH",
"1140 1162 OFFCURVE",
"1155 1155 OFFCURVE",
"1167 1155 CURVE SMOOTH",
"1178 1155 OFFCURVE",
"1186 1157 OFFCURVE",
"1193 1162 CURVE SMOOTH",
"1199 1166 OFFCURVE",
"1204 1171 OFFCURVE",
"1208 1178 CURVE",
"1272 1267 LINE",
"1213 1323 OFFCURVE",
"1144 1367 OFFCURVE",
"1066 1400 CURVE SMOOTH",
"988 1433 OFFCURVE",
"898 1449 OFFCURVE",
"796 1449 CURVE SMOOTH",
"692 1449 OFFCURVE",
"597 1431 OFFCURVE",
"511 1396 CURVE SMOOTH",
"425 1360 OFFCURVE",
"351 1310 OFFCURVE",
"290 1245 CURVE SMOOTH",
"228 1180 OFFCURVE",
"180 1103 OFFCURVE",
"146 1013 CURVE SMOOTH",
"112 923 OFFCURVE",
"95 824 OFFCURVE",
"95 716 CURVE SMOOTH",
"95 608 OFFCURVE",
"111 509 OFFCURVE",
"144 419 CURVE SMOOTH",
"177 329 OFFCURVE",
"223 252 OFFCURVE",
"282 188 CURVE SMOOTH",
"341 123 OFFCURVE",
"413 73 OFFCURVE",
"497 38 CURVE SMOOTH",
"581 2 OFFCURVE",
"674 -16 OFFCURVE",
"777 -16 CURVE SMOOTH",
"896 -16 OFFCURVE",
"997 3 OFFCURVE",
"1081 41 CURVE SMOOTH",
"1164 79 OFFCURVE",
"1235 132 OFFCURVE",
"1294 200 CURVE",
"1217 283 LINE SMOOTH",
"1209 292 OFFCURVE",
"1200 296 OFFCURVE",
"1189 296 CURVE SMOOTH"
);
}
);
width = 1336;
}
);
leftKerningGroup = C;
rightKerningGroup = C;
unicode = 0043;
},
{
glyphname = Ccedilla;
layers = (
{
layerId = "E7469244-AD98-4857-BCFE-AC0111B942FA";
name = Regular;
paths = (
{
closed = 1;
nodes = (
"651 -253 OFFCURVE",
"643 -259 OFFCURVE",
"639 -271 CURVE SMOOTH",
"622 -326 LINE",
"643 -335 OFFCURVE",
"665 -343 OFFCURVE",
"690 -349 CURVE",
"715 -354 OFFCURVE",
"741 -357 OFFCURVE",
"768 -357 CURVE SMOOTH",
"800 -357 OFFCURVE",
"829 -354 OFFCURVE",
"856 -348 CURVE",
"883 -341 OFFCURVE",
"906 -332 OFFCURVE",
"925 -320 CURVE SMOOTH",
"944 -308 OFFCURVE",
"958 -293 OFFCURVE",
"969 -276 CURVE SMOOTH",
"980 -259 OFFCURVE",
"985 -239 OFFCURVE",
"985 -218 CURVE SMOOTH",
"985 -182 OFFCURVE",
"971 -152 OFFCURVE",
"944 -129 CURVE SMOOTH",
"916 -106 OFFCURVE",
"871 -88 OFFCURVE",
"809 -75 CURVE",
"827 -14 LINE",
"932 -9 OFFCURVE",
"1023 13 OFFCURVE",
"1099 50 CURVE SMOOTH",
"1174 87 OFFCURVE",
"1239 137 OFFCURVE",
"1294 200 CURVE",
"1217 283 LINE SMOOTH",
"1209 292 OFFCURVE",
"1200 296 OFFCURVE",
"1189 296 CURVE SMOOTH",
"1178 296 OFFCURVE",
"1166 291 OFFCURVE",
"1155 281 CURVE SMOOTH",
"1130 258 OFFCURVE",
"1106 239 OFFCURVE",
"1081 223 CURVE SMOOTH",
"1056 206 OFFCURVE",
"1029 193 OFFCURVE",
"1000 182 CURVE SMOOTH",
"971 171 OFFCURVE",
"939 164 OFFCURVE",
"905 159 CURVE SMOOTH",
"870 154 OFFCURVE",
"832 151 OFFCURVE",
"789 151 CURVE SMOOTH",
"719 151 OFFCURVE",
"654 164 OFFCURVE",
"594 189 CURVE SMOOTH",
"533 214 OFFCURVE",
"481 251 OFFCURVE",
"437 300 CURVE SMOOTH",
"392 348 OFFCURVE",
"357 407 OFFCURVE",
"332 477 CURVE SMOOTH",
"306 547 OFFCURVE",
"293 627 OFFCURVE",
"293 716 CURVE SMOOTH",
"293 804 OFFCURVE",
"305 883 OFFCURVE",
"330 953 CURVE SMOOTH",
"355 1023 OFFCURVE",
"389 1082 OFFCURVE",
"434 1131 CURVE SMOOTH",
"478 1180 OFFCURVE",
"531 1217 OFFCURVE",
"592 1243 CURVE SMOOTH",
"653 1268 OFFCURVE",
"721 1281 OFFCURVE",
"795 1281 CURVE SMOOTH",
"856 1281 OFFCURVE",
"908 1275 OFFCURVE",
"950 1262 CURVE SMOOTH",
"992 1249 OFFCURVE",
"1027 1234 OFFCURVE",
"1055 1218 CURVE SMOOTH",
"1083 1202 OFFCURVE",
"1106 1188 OFFCURVE",
"1123 1175 CURVE SMOOTH",
"1140 1162 OFFCURVE",
"1155 1155 OFFCURVE",
"1167 1155 CURVE SMOOTH",
"1178 1155 OFFCURVE",
"1186 1157 OFFCURVE",
"1193 1162 CURVE SMOOTH",
"1199 1166 OFFCURVE",
"1204 1171 OFFCURVE",
"1208 1178 CURVE",
"1272 1267 LINE",
"1213 1323 OFFCURVE",
"1144 1367 OFFCURVE",
"1066 1400 CURVE SMOOTH",
"988 1433 OFFCURVE",
"898 1449 OFFCURVE",
"796 1449 CURVE SMOOTH",
"692 1449 OFFCURVE",
"597 1431 OFFCURVE",
"511 1396 CURVE SMOOTH",
"425 1360 OFFCURVE",
"351 1310 OFFCURVE",
"290 1245 CURVE SMOOTH",
"228 1180 OFFCURVE",
"180 1103 OFFCURVE",
"146 1013 CURVE SMOOTH",
"112 923 OFFCURVE",
"95 824 OFFCURVE",
"95 716 CURVE SMOOTH",
"95 613 OFFCURVE",
"110 518 OFFCURVE",
"140 431 CURVE SMOOTH",
"169 344 OFFCURVE",
"212 269 OFFCURVE",
"267 205 CURVE SMOOTH",
"322 141 OFFCURVE",
"388 90 OFFCURVE",
"465 52 CURVE SMOOTH",
"542 14 OFFCURVE",
"629 -8 OFFCURVE",
"724 -14 CURVE",
"683 -137 LINE",
"734 -144 OFFCURVE",
"774 -152 OFFCURVE",
"802 -163 CURVE SMOOTH",
"830 -173 OFFCURVE",
"844 -191 OFFCURVE",
"844 -216 CURVE SMOOTH",
"844 -233 OFFCURVE",
"837 -248 OFFCURVE",
"823 -259 CURVE SMOOTH",
"808 -270 OFFCURVE",
"787 -276 OFFCURVE",
"759 -276 CURVE SMOOTH",
"745 -276 OFFCURVE",
"733 -275 OFFCURVE",
"723 -273 CURVE",
"712 -270 OFFCURVE",
"703 -268 OFFCURVE",
"696 -265 CURVE",
"688 -262 OFFCURVE",
"681 -259 OFFCURVE",
"676 -257 CURVE",
"671 -254 OFFCURVE",
"666 -253 OFFCURVE",
"662 -253 CURVE SMOOTH"
);
}
);
width = 1336;
}
);
leftKerningGroup = C;
rightKerningGroup = C;
unicode = 00C7;
},
{
glyphname = D;
layers = (
{
layerId = "E7469244-AD98-4857-BCFE-AC0111B942FA";
name = Regular;
paths = (
{
closed = 1;
nodes = (
"1425 823 OFFCURVE",
"1408 921 OFFCURVE",
"1374 1009 CURVE SMOOTH",
"1340 1097 OFFCURVE",
"1292 1173 OFFCURVE",
"1230 1236 CURVE SMOOTH",
"1168 1299 OFFCURVE",
"1094 1347 OFFCURVE",
"1007 1382 CURVE SMOOTH",
"920 1416 OFFCURVE",
"823 1433 OFFCURVE",
"718 1433 CURVE SMOOTH",
"183 1433 LINE",
"183 0 LINE",
"718 0 LINE SMOOTH",
"823 0 OFFCURVE",
"920 17 OFFCURVE",
"1007 52 CURVE SMOOTH",
"1094 86 OFFCURVE",
"1168 134 OFFCURVE",
"1230 197 CURVE SMOOTH",
"1292 260 OFFCURVE",
"1340 335 OFFCURVE",
"1374 423 CURVE SMOOTH",
"1408 511 OFFCURVE",
"1425 609 OFFCURVE",
"1425 716 CURVE SMOOTH"
);
},
{
closed = 1;
nodes = (
"1226 628 OFFCURVE",
"1214 549 OFFCURVE",
"1190 480 CURVE SMOOTH",
"1166 411 OFFCURVE",
"1132 352 OFFCURVE",
"1088 305 CURVE SMOOTH",
"1044 257 OFFCURVE",
"991 220 OFFCURVE",
"928 195 CURVE SMOOTH",
"865 170 OFFCURVE",
"795 157 OFFCURVE",
"718 157 CURVE SMOOTH",
"377 157 LINE",
"377 1276 LINE",
"718 1276 LINE SMOOTH",
"795 1276 OFFCURVE",
"865 1263 OFFCURVE",
"928 1238 CURVE SMOOTH",
"991 1213 OFFCURVE",
"1044 1176 OFFCURVE",
"1088 1128 CURVE SMOOTH",
"1132 1080 OFFCURVE",
"1166 1021 OFFCURVE",
"1190 952 CURVE SMOOTH",
"1214 883 OFFCURVE",
"1226 804 OFFCURVE",
"1226 716 CURVE SMOOTH"
);
}
);
width = 1521;
}
);
leftKerningGroup = B;
rightKerningGroup = D;
unicode = 0044;
},
{
glyphname = Eth;
layers = (
{
layerId = "E7469244-AD98-4857-BCFE-AC0111B942FA";
name = Regular;
paths = (
{
closed = 1;
nodes = (
"3 780 LINE",
"3 666 LINE",
"199 666 LINE",
"199 0 LINE",
"735 0 LINE SMOOTH",
"840 0 OFFCURVE",
"936 17 OFFCURVE",
"1023 52 CURVE SMOOTH",
"1110 86 OFFCURVE",
"1184 134 OFFCURVE",
"1246 197 CURVE SMOOTH",
"1308 260 OFFCURVE",
"1356 335 OFFCURVE",
"1390 423 CURVE SMOOTH",
"1424 511 OFFCURVE",
"1441 609 OFFCURVE",
"1441 716 CURVE SMOOTH",
"1441 823 OFFCURVE",
"1424 921 OFFCURVE",
"1390 1009 CURVE SMOOTH",
"1356 1097 OFFCURVE",
"1308 1173 OFFCURVE",
"1246 1236 CURVE SMOOTH",
"1184 1299 OFFCURVE",
"1110 1347 OFFCURVE",
"1023 1382 CURVE SMOOTH",
"936 1416 OFFCURVE",
"840 1433 OFFCURVE",
"735 1433 CURVE SMOOTH",
"199 1433 LINE",
"199 780 LINE"
);
},
{
closed = 1;
nodes = (
"1242 628 OFFCURVE",
"1230 549 OFFCURVE",
"1206 480 CURVE SMOOTH",
"1182 411 OFFCURVE",
"1148 352 OFFCURVE",
"1104 305 CURVE SMOOTH",
"1060 257 OFFCURVE",
"1007 220 OFFCURVE",
"944 195 CURVE SMOOTH",
"881 170 OFFCURVE",
"812 157 OFFCURVE",
"735 157 CURVE SMOOTH",
"394 157 LINE",
"394 666 LINE",
"684 666 LINE",
"684 780 LINE",
"394 780 LINE",
"394 1276 LINE",
"735 1276 LINE SMOOTH",
"812 1276 OFFCURVE",
"881 1263 OFFCURVE",
"944 1238 CURVE SMOOTH",
"1007 1213 OFFCURVE",
"1060 1176 OFFCURVE",
"1104 1128 CURVE SMOOTH",
"1148 1080 OFFCURVE",
"1182 1021 OFFCURVE",
"1206 952 CURVE SMOOTH",
"1230 883 OFFCURVE",
"1242 804 OFFCURVE",
"1242 716 CURVE SMOOTH"
);
}
);
width = 1537;
}
);
leftKerningGroup = B;
rightKerningGroup = D;
unicode = 00D0;
},
{
glyphname = E;
layers = (
{
layerId = "E7469244-AD98-4857-BCFE-AC0111B942FA";
name = Regular;
paths = (
{
closed = 1;
nodes = (
"1066 1433 LINE",
"183 1433 LINE",
"183 0 LINE",
"1066 0 LINE",
"1067 158 LINE",
"377 158 LINE",
"377 647 LINE",
"935 647 LINE",
"935 799 LINE",
"377 799 LINE",
"377 1275 LINE",
"1066 1275 LINE"
);
}
);
width = 1155;
}
);
leftKerningGroup = B;
rightKerningGroup = AE;
unicode = 0045;
},
{
glyphname = Eacute;
layers = (
{
layerId = "E7469244-AD98-4857-BCFE-AC0111B942FA";
name = Regular;
paths = (
{
closed = 1;
nodes = (
"1066 1433 LINE",
"183 1433 LINE",
"183 0 LINE",
"1066 0 LINE",
"1067 158 LINE",
"377 158 LINE",
"377 647 LINE",
"935 647 LINE",
"935 799 LINE",
"377 799 LINE",
"377 1275 LINE",
"1066 1275 LINE"
);
},
{
closed = 1;
nodes = (
"1015 1852 LINE",
"814 1852 LINE SMOOTH",
"792 1852 OFFCURVE",
"775 1850 OFFCURVE",
"764 1847 CURVE SMOOTH",
"752 1844 OFFCURVE",
"740 1835 OFFCURVE",
"729 1820 CURVE",
"498 1546 LINE",
"626 1546 LINE SMOOTH",
"639 1546 OFFCURVE",
"651 1547 OFFCURVE",
"660 1549 CURVE SMOOTH",
"669 1551 OFFCURVE",
"679 1557 OFFCURVE",
"689 1566 CURVE SMOOTH"
);
}
);
width = 1155;
}
);
leftKerningGroup = B;
rightKerningGroup = AE;
unicode = 00C9;
},
{
glyphname = Ecircumflex;
layers = (
{
layerId = "E7469244-AD98-4857-BCFE-AC0111B942FA";
name = Regular;
paths = (
{
closed = 1;
nodes = (
"1066 1433 LINE",
"183 1433 LINE",
"183 0 LINE",
"1066 0 LINE",
"1067 158 LINE",
"377 158 LINE",
"377 647 LINE",
"935 647 LINE",
"935 799 LINE",
"377 799 LINE",
"377 1275 LINE",
"1066 1275 LINE"
);
},
{
closed = 1;
nodes = (
"958 1546 LINE",
"720 1817 LINE",
"560 1817 LINE",
"321 1546 LINE",
"446 1546 LINE SMOOTH",
"454 1546 OFFCURVE",
"464 1548 OFFCURVE",
"475 1551 CURVE SMOOTH",
"486 1554 OFFCURVE",
"497 1562 OFFCURVE",
"508 1575 CURVE SMOOTH",
"625 1716 LINE",
"637 1733 LINE",
"641 1727 OFFCURVE",
"645 1721 OFFCURVE",
"649 1716 CURVE SMOOTH",
"766 1575 LINE SMOOTH",
"777 1562 OFFCURVE",
"789 1554 OFFCURVE",
"800 1551 CURVE SMOOTH",
"811 1548 OFFCURVE",
"820 1546 OFFCURVE",
"828 1546 CURVE SMOOTH"
);
}
);
width = 1155;
}
);
leftKerningGroup = B;
rightKerningGroup = AE;
unicode = 00CA;
},
{
glyphname = Edieresis;
layers = (
{
layerId = "E7469244-AD98-4857-BCFE-AC0111B942FA";
name = Regular;
paths = (
{
closed = 1;
nodes = (
"1066 1433 LINE",
"183 1433 LINE",
"183 0 LINE",
"1066 0 LINE",
"1067 158 LINE",
"377 158 LINE",
"377 647 LINE",
"935 647 LINE",
"935 799 LINE",
"377 799 LINE",
"377 1275 LINE",
"1066 1275 LINE"
);
},
{
closed = 1;
nodes = (
"538 1681 OFFCURVE",
"535 1696 OFFCURVE",
"529 1710 CURVE SMOOTH",
"523 1723 OFFCURVE",
"515 1735 OFFCURVE",
"505 1745 CURVE",
"494 1755 OFFCURVE",
"482 1763 OFFCURVE",
"469 1769 CURVE SMOOTH",
"455 1775 OFFCURVE",
"441 1778 OFFCURVE",
"426 1778 CURVE SMOOTH",
"412 1778 OFFCURVE",
"399 1775 OFFCURVE",
"386 1769 CURVE SMOOTH",
"373 1763 OFFCURVE",
"361 1755 OFFCURVE",
"351 1745 CURVE SMOOTH",
"341 1735 OFFCURVE",
"333 1723 OFFCURVE",
"327 1710 CURVE SMOOTH",
"321 1696 OFFCURVE",
"318 1681 OFFCURVE",
"318 1666 CURVE SMOOTH",
"318 1651 OFFCURVE",
"321 1638 OFFCURVE",
"327 1625 CURVE SMOOTH",
"333 1612 OFFCURVE",
"341 1600 OFFCURVE",
"351 1590 CURVE SMOOTH",
"361 1580 OFFCURVE",
"373 1572 OFFCURVE",
"386 1567 CURVE",
"399 1561 OFFCURVE",
"412 1558 OFFCURVE",
"426 1558 CURVE SMOOTH",
"441 1558 OFFCURVE",
"455 1561 OFFCURVE",
"469 1567 CURVE",
"482 1572 OFFCURVE",
"494 1580 OFFCURVE",
"505 1590 CURVE",
"515 1600 OFFCURVE",
"523 1612 OFFCURVE",
"529 1625 CURVE SMOOTH",
"535 1638 OFFCURVE",
"538 1651 OFFCURVE",
"538 1666 CURVE SMOOTH"
);
},
{
closed = 1;
nodes = (
"956 1681 OFFCURVE",
"953 1696 OFFCURVE",
"947 1710 CURVE SMOOTH",
"941 1723 OFFCURVE",
"933 1735 OFFCURVE",
"923 1745 CURVE SMOOTH",
"913 1755 OFFCURVE",
"901 1763 OFFCURVE",
"888 1769 CURVE SMOOTH",
"875 1775 OFFCURVE",
"861 1778 OFFCURVE",
"846 1778 CURVE SMOOTH",
"831 1778 OFFCURVE",
"816 1775 OFFCURVE",
"803 1769 CURVE SMOOTH",
"790 1763 OFFCURVE",
"778 1755 OFFCURVE",
"768 1745 CURVE SMOOTH",
"758 1735 OFFCURVE",
"750 1723 OFFCURVE",
"745 1710 CURVE",
"739 1696 OFFCURVE",
"736 1681 OFFCURVE",
"736 1666 CURVE SMOOTH",
"736 1651 OFFCURVE",
"739 1638 OFFCURVE",
"745 1625 CURVE",
"750 1612 OFFCURVE",
"758 1600 OFFCURVE",
"768 1590 CURVE SMOOTH",
"778 1580 OFFCURVE",
"790 1572 OFFCURVE",
"803 1567 CURVE",
"816 1561 OFFCURVE",
"831 1558 OFFCURVE",
"846 1558 CURVE SMOOTH",
"861 1558 OFFCURVE",
"875 1561 OFFCURVE",
"888 1567 CURVE",
"901 1572 OFFCURVE",
"913 1580 OFFCURVE",
"923 1590 CURVE SMOOTH",
"933 1600 OFFCURVE",
"941 1612 OFFCURVE",
"947 1625 CURVE SMOOTH",
"953 1638 OFFCURVE",
"956 1651 OFFCURVE",
"956 1666 CURVE SMOOTH"
);
}
);
width = 1155;
}
);
leftKerningGroup = B;
rightKerningGroup = AE;
unicode = 00CB;
},
{
glyphname = Egrave;
layers = (
{
layerId = "E7469244-AD98-4857-BCFE-AC0111B942FA";
name = Regular;
paths = (
{
closed = 1;
nodes = (
"1066 1433 LINE",
"183 1433 LINE",
"183 0 LINE",
"1066 0 LINE",
"1067 158 LINE",
"377 158 LINE",
"377 647 LINE",
"935 647 LINE",
"935 799 LINE",
"377 799 LINE",
"377 1275 LINE",
"1066 1275 LINE"
);
},
{
closed = 1;
nodes = (
"270 1852 LINE",
"582 1565 LINE SMOOTH",
"592 1556 OFFCURVE",
"601 1550 OFFCURVE",
"610 1549 CURVE",
"618 1547 OFFCURVE",
"629 1546 OFFCURVE",
"644 1546 CURVE SMOOTH",
"772 1546 LINE",
"544 1820 LINE",
"533 1835 OFFCURVE",
"521 1844 OFFCURVE",
"510 1847 CURVE SMOOTH",
"499 1850 OFFCURVE",
"482 1852 OFFCURVE",
"460 1852 CURVE SMOOTH"
);
}
);
width = 1155;
}
);
leftKerningGroup = B;
rightKerningGroup = AE;
unicode = 00C8;
},
{
glyphname = F;
layers = (
{
layerId = "E7469244-AD98-4857-BCFE-AC0111B942FA";
name = Regular;
paths = (
{
closed = 1;
nodes = (
"1066 1433 LINE",
"183 1433 LINE",
"183 0 LINE",
"377 0 LINE",
"377 616 LINE",
"966 616 LINE",
"966 774 LINE",
"377 774 LINE",
"377 1275 LINE",
"1066 1275 LINE"
);
}
);
width = 1131;
}
);
leftKerningGroup = B;
rightKerningGroup = F;
unicode = 0046;
},
{
glyphname = G;
layers = (
{
layerId = "E7469244-AD98-4857-BCFE-AC0111B942FA";
name = Regular;
paths = (
{
closed = 1;
nodes = (
"1347 689 LINE",
"772 689 LINE",
"772 541 LINE",
"1172 541 LINE",
"1172 225 LINE",
"1147 212 OFFCURVE",
"1122 200 OFFCURVE",
"1097 190 CURVE SMOOTH",
"1072 179 OFFCURVE",
"1047 171 OFFCURVE",
"1020 164 CURVE SMOOTH",
"993 157 OFFCURVE",
"966 151 OFFCURVE",
"937 147 CURVE SMOOTH",
"908 143 OFFCURVE",
"876 141 OFFCURVE",
"843 141 CURVE SMOOTH",
"758 141 OFFCURVE",
"682 154 OFFCURVE",
"614 180 CURVE SMOOTH",
"546 206 OFFCURVE",
"488 244 OFFCURVE",
"441 294 CURVE SMOOTH",
"393 343 OFFCURVE",
"356 404 OFFCURVE",
"331 475 CURVE SMOOTH",
"305 546 OFFCURVE",
"292 626 OFFCURVE",
"292 716 CURVE SMOOTH",
"292 803 OFFCURVE",
"304 881 OFFCURVE",
"329 951 CURVE SMOOTH",
"354 1020 OFFCURVE",
"389 1080 OFFCURVE",
"435 1129 CURVE SMOOTH",
"481 1178 OFFCURVE",
"537 1215 OFFCURVE",
"602 1242 CURVE SMOOTH",
"667 1268 OFFCURVE",
"740 1281 OFFCURVE",
"821 1281 CURVE SMOOTH",
"876 1281 OFFCURVE",
"924 1277 OFFCURVE",
"965 1268 CURVE SMOOTH",
"1005 1259 OFFCURVE",
"1040 1249 OFFCURVE",
"1070 1237 CURVE",
"1099 1224 OFFCURVE",
"1124 1211 OFFCURVE",
"1145 1198 CURVE SMOOTH",
"1166 1185 OFFCURVE",
"1189 1172 OFFCURVE",
"1205 1160 CURVE",
"1236 1139 LINE",
"1334 1268 LINE",
"1303 1296 OFFCURVE",
"1270 1321 OFFCURVE",
"1235 1344 CURVE SMOOTH",
"1200 1366 OFFCURVE",
"1161 1385 OFFCURVE",
"1120 1401 CURVE SMOOTH",
"1079 1416 OFFCURVE",
"1034 1428 OFFCURVE",
"985 1437 CURVE SMOOTH",
"936 1445 OFFCURVE",
"884 1449 OFFCURVE",
"827 1449 CURVE SMOOTH",
"715 1449 OFFCURVE",
"614 1431 OFFCURVE",
"523 1396 CURVE SMOOTH",
"432 1361 OFFCURVE",
"355 1311 OFFCURVE",
"292 1247 CURVE SMOOTH",
"229 1182 OFFCURVE",
"180 1105 OFFCURVE",
"145 1015 CURVE SMOOTH",
"111 925 OFFCURVE",
"94 825 OFFCURVE",
"94 716 CURVE SMOOTH",
"94 608 OFFCURVE",
"112 509 OFFCURVE",
"147 419 CURVE SMOOTH",
"182 329 OFFCURVE",
"233 252 OFFCURVE",
"298 188 CURVE SMOOTH",
"364 123 OFFCURVE",
"443 73 OFFCURVE",
"536 37 CURVE SMOOTH",
"629 2 OFFCURVE",
"733 -16 OFFCURVE",
"848 -16 CURVE SMOOTH",
"945 -16 OFFCURVE",
"1035 -3 OFFCURVE",
"1117 22 CURVE SMOOTH",
"1198 48 OFFCURVE",
"1275 87 OFFCURVE",
"1347 139 CURVE"
);
}
);
width = 1461;
}
);
leftKerningGroup = C;
rightKerningGroup = G;
unicode = 0047;
},
{
glyphname = H;
layers = (
{
layerId = "E7469244-AD98-4857-BCFE-AC0111B942FA";
name = Regular;
paths = (
{
closed = 1;
nodes = (
"1344 0 LINE",
"1344 1433 LINE",
"1150 1433 LINE",
"1150 794 LINE",
"377 794 LINE",
"377 1433 LINE",
"183 1433 LINE",
"183 0 LINE",
"377 0 LINE",
"377 652 LINE",
"1150 652 LINE",
"1150 0 LINE"
);
}
);
width = 1527;
}
);
leftKerningGroup = B;
rightKerningGroup = H;
unicode = 0048;
},
{
glyphname = I;
layers = (
{
layerId = "E7469244-AD98-4857-BCFE-AC0111B942FA";
name = Regular;
paths = (
{
closed = 1;
nodes = (
"377 0 LINE",
"377 1433 LINE",
"183 1433 LINE",
"183 0 LINE"
);
}
);
width = 560;
}
);
leftKerningGroup = B;
rightKerningGroup = H;
unicode = 0049;
},
{
glyphname = Iacute;
layers = (
{
layerId = "E7469244-AD98-4857-BCFE-AC0111B942FA";
name = Regular;
paths = (
{
closed = 1;
nodes = (
"377 0 LINE",
"377 1433 LINE",
"183 1433 LINE",
"183 0 LINE"
);
},
{
closed = 1;
nodes = (
"661 1852 LINE",
"460 1852 LINE SMOOTH",
"438 1852 OFFCURVE",
"421 1850 OFFCURVE",
"410 1847 CURVE SMOOTH",
"398 1844 OFFCURVE",
"386 1835 OFFCURVE",
"375 1820 CURVE",
"144 1546 LINE",
"272 1546 LINE SMOOTH",
"285 1546 OFFCURVE",
"297 1547 OFFCURVE",
"306 1549 CURVE SMOOTH",
"315 1551 OFFCURVE",
"325 1557 OFFCURVE",
"335 1566 CURVE SMOOTH"
);
}
);
width = 560;
}
);
leftKerningGroup = B;
rightKerningGroup = H;
unicode = 00CD;
},
{
glyphname = Icircumflex;
layers = (
{
layerId = "E7469244-AD98-4857-BCFE-AC0111B942FA";
name = Regular;
paths = (
{
closed = 1;
nodes = (
"377 0 LINE",
"377 1433 LINE",
"183 1433 LINE",
"183 0 LINE"
);
},
{
closed = 1;
nodes = (
"604 1546 LINE",
"366 1817 LINE",
"206 1817 LINE",
"-33 1546 LINE",
"92 1546 LINE SMOOTH",
"100 1546 OFFCURVE",
"110 1548 OFFCURVE",
"121 1551 CURVE SMOOTH",
"132 1554 OFFCURVE",
"143 1562 OFFCURVE",
"154 1575 CURVE SMOOTH",
"271 1716 LINE",
"283 1733 LINE",
"287 1727 OFFCURVE",
"291 1721 OFFCURVE",
"295 1716 CURVE SMOOTH",
"412 1575 LINE SMOOTH",
"423 1562 OFFCURVE",
"435 1554 OFFCURVE",
"446 1551 CURVE SMOOTH",
"457 1548 OFFCURVE",
"466 1546 OFFCURVE",
"474 1546 CURVE SMOOTH"
);
}
);
width = 560;
}
);
leftKerningGroup = B;
rightKerningGroup = H;
unicode = 00CE;
},
{
glyphname = Idieresis;
layers = (
{
layerId = "E7469244-AD98-4857-BCFE-AC0111B942FA";
name = Regular;
paths = (
{
closed = 1;
nodes = (
"377 0 LINE",
"377 1433 LINE",
"183 1433 LINE",
"183 0 LINE"
);
},
{
closed = 1;
nodes = (
"184 1681 OFFCURVE",
"181 1696 OFFCURVE",
"175 1710 CURVE SMOOTH",
"169 1723 OFFCURVE",
"161 1735 OFFCURVE",
"151 1745 CURVE",
"140 1755 OFFCURVE",
"128 1763 OFFCURVE",
"115 1769 CURVE SMOOTH",
"101 1775 OFFCURVE",
"87 1778 OFFCURVE",
"72 1778 CURVE SMOOTH",
"58 1778 OFFCURVE",
"45 1775 OFFCURVE",
"32 1769 CURVE SMOOTH",
"19 1763 OFFCURVE",
"7 1755 OFFCURVE",
"-3 1745 CURVE SMOOTH",
"-13 1735 OFFCURVE",
"-21 1723 OFFCURVE",
"-27 1710 CURVE SMOOTH",
"-33 1696 OFFCURVE",
"-36 1681 OFFCURVE",
"-36 1666 CURVE SMOOTH",
"-36 1651 OFFCURVE",
"-33 1638 OFFCURVE",
"-27 1625 CURVE SMOOTH",
"-21 1612 OFFCURVE",
"-13 1600 OFFCURVE",
"-3 1590 CURVE SMOOTH",
"7 1580 OFFCURVE",
"19 1572 OFFCURVE",
"32 1567 CURVE",
"45 1561 OFFCURVE",
"58 1558 OFFCURVE",
"72 1558 CURVE SMOOTH",
"87 1558 OFFCURVE",
"101 1561 OFFCURVE",
"115 1567 CURVE",
"128 1572 OFFCURVE",
"140 1580 OFFCURVE",
"151 1590 CURVE",
"161 1600 OFFCURVE",
"169 1612 OFFCURVE",
"175 1625 CURVE SMOOTH",
"181 1638 OFFCURVE",
"184 1651 OFFCURVE",
"184 1666 CURVE SMOOTH"
);
},
{
closed = 1;
nodes = (
"602 1681 OFFCURVE",
"599 1696 OFFCURVE",
"593 1710 CURVE SMOOTH",
"587 1723 OFFCURVE",
"579 1735 OFFCURVE",
"569 1745 CURVE SMOOTH",
"559 1755 OFFCURVE",
"547 1763 OFFCURVE",
"534 1769 CURVE SMOOTH",
"521 1775 OFFCURVE",
"507 1778 OFFCURVE",
"492 1778 CURVE SMOOTH",
"477 1778 OFFCURVE",
"462 1775 OFFCURVE",
"449 1769 CURVE SMOOTH",
"436 1763 OFFCURVE",
"424 1755 OFFCURVE",
"414 1745 CURVE SMOOTH",
"404 1735 OFFCURVE",
"396 1723 OFFCURVE",
"391 1710 CURVE",
"385 1696 OFFCURVE",
"382 1681 OFFCURVE",
"382 1666 CURVE SMOOTH",
"382 1651 OFFCURVE",
"385 1638 OFFCURVE",
"391 1625 CURVE",
"396 1612 OFFCURVE",
"404 1600 OFFCURVE",
"414 1590 CURVE SMOOTH",
"424 1580 OFFCURVE",
"436 1572 OFFCURVE",
"449 1567 CURVE",
"462 1561 OFFCURVE",
"477 1558 OFFCURVE",
"492 1558 CURVE SMOOTH",
"507 1558 OFFCURVE",
"521 1561 OFFCURVE",
"534 1567 CURVE",
"547 1572 OFFCURVE",
"559 1580 OFFCURVE",
"569 1590 CURVE SMOOTH",
"579 1600 OFFCURVE",
"587 1612 OFFCURVE",
"593 1625 CURVE SMOOTH",
"599 1638 OFFCURVE",
"602 1651 OFFCURVE",
"602 1666 CURVE SMOOTH"
);
}
);
width = 560;
}
);
leftKerningGroup = B;
rightKerningGroup = H;
unicode = 00CF;
},
{
glyphname = Igrave;
layers = (
{
layerId = "E7469244-AD98-4857-BCFE-AC0111B942FA";
name = Regular;
paths = (
{
closed = 1;
nodes = (
"377 0 LINE",
"377 1433 LINE",
"183 1433 LINE",
"183 0 LINE"
);
},
{
closed = 1;
nodes = (
"-84 1852 LINE",
"228 1565 LINE SMOOTH",
"238 1556 OFFCURVE",
"247 1550 OFFCURVE",
"256 1549 CURVE",
"264 1547 OFFCURVE",
"275 1546 OFFCURVE",
"290 1546 CURVE SMOOTH",
"418 1546 LINE",
"190 1820 LINE",
"179 1835 OFFCURVE",
"167 1844 OFFCURVE",
"156 1847 CURVE SMOOTH",
"145 1850 OFFCURVE",
"128 1852 OFFCURVE",
"106 1852 CURVE SMOOTH"
);
}
);
width = 560;
}
);
leftKerningGroup = B;
rightKerningGroup = H;
unicode = 00CC;
},
{
glyphname = J;
layers = (
{
layerId = "E7469244-AD98-4857-BCFE-AC0111B942FA";
name = Regular;
paths = (
{
closed = 1;
nodes = (
"701 1433 LINE",
"701 491 LINE SMOOTH",
"701 431 OFFCURVE",
"695 379 OFFCURVE",
"683 336 CURVE SMOOTH",
"670 292 OFFCURVE",
"652 256 OFFCURVE",
"629 228 CURVE SMOOTH",
"606 200 OFFCURVE",
"577 179 OFFCURVE",
"542 166 CURVE SMOOTH",
"510 154 OFFCURVE",
"475 147 OFFCURVE",
"437 146 CURVE",
"415 148 OFFCURVE",
"395 150 OFFCURVE",
"376 155 CURVE SMOOTH",
"347 162 OFFCURVE",
"321 171 OFFCURVE",
"298 182 CURVE",
"275 192 OFFCURVE",
"254 204 OFFCURVE",
"236 217 CURVE",
"218 229 OFFCURVE",
"202 241 OFFCURVE",
"188 252 CURVE",
"174 262 OFFCURVE",
"162 271 OFFCURVE",
"151 278 CURVE SMOOTH",
"140 285 OFFCURVE",
"130 289 OFFCURVE",
"121 289 CURVE SMOOTH",
"112 289 OFFCURVE",
"103 286 OFFCURVE",
"96 281 CURVE",
"88 276 OFFCURVE",
"81 270 OFFCURVE",
"76 263 CURVE",
"20 171 LINE",
"74 113 OFFCURVE",
"139 68 OFFCURVE",
"215 34 CURVE SMOOTH",
"286 2 OFFCURVE",
"365 -14 OFFCURVE",
"448 -16 CURVE SMOOTH",
"464 -16 LINE SMOOTH",
"529 -14 OFFCURVE",
"586 -2 OFFCURVE",
"637 19 CURVE SMOOTH",
"692 42 OFFCURVE",
"739 75 OFFCURVE",
"779 120 CURVE SMOOTH",
"817 163 OFFCURVE",
"846 217 OFFCURVE",
"866 280 CURVE SMOOTH",
"885 343 OFFCURVE",
"895 415 OFFCURVE",
"895 495 CURVE SMOOTH",
"895 1433 LINE"
);
},
{
closed = 1;
nodes = (
"433 146 LINE",
"433 146 OFFCURVE",
"433 146 OFFCURVE",
"433 146 CURVE SMOOTH",
"429 146 LINE"
);
}
);
width = 1063;
}
);
leftKerningGroup = J;
rightKerningGroup = J;
unicode = 004A;
},
{
glyphname = K;
layers = (
{
layerId = "E7469244-AD98-4857-BCFE-AC0111B942FA";
name = Regular;
paths = (
{
closed = 1;
nodes = (
"376 805 LINE",
"376 1433 LINE",
"183 1433 LINE",
"183 0 LINE",
"376 0 LINE",
"376 656 LINE",
"464 656 LINE SMOOTH",
"495 656 OFFCURVE",
"519 653 OFFCURVE",
"534 646 CURVE SMOOTH",
"549 639 OFFCURVE",
"564 627 OFFCURVE",
"577 610 CURVE",
"1071 41 LINE",
"1076 34 OFFCURVE",
"1081 29 OFFCURVE",
"1086 24 CURVE SMOOTH",
"1091 19 OFFCURVE",
"1096 14 OFFCURVE",
"1103 11 CURVE",
"1110 7 OFFCURVE",
"1118 4 OFFCURVE",
"1127 3 CURVE",
"1136 1 OFFCURVE",
"1146 0 OFFCURVE",
"1159 0 CURVE SMOOTH",
"1327 0 LINE",
"757 679 LINE",
"743 698 OFFCURVE",
"729 713 OFFCURVE",
"714 725 CURVE",
"699 736 OFFCURVE",
"683 745 OFFCURVE",
"665 751 CURVE",
"679 758 OFFCURVE",
"692 766 OFFCURVE",
"705 777 CURVE SMOOTH",
"717 787 OFFCURVE",
"730 800 OFFCURVE",
"743 816 CURVE",
"1289 1433 LINE",
"1125 1433 LINE SMOOTH",
"1104 1433 OFFCURVE",
"1086 1430 OFFCURVE",
"1071 1423 CURVE SMOOTH",
"1056 1416 OFFCURVE",
"1042 1404 OFFCURVE",
"1029 1387 CURVE",
"552 847 LINE SMOOTH",
"539 832 OFFCURVE",
"525 821 OFFCURVE",
"510 815 CURVE",
"495 808 OFFCURVE",
"474 805 OFFCURVE",
"449 805 CURVE SMOOTH"
);
}
);
width = 1325;
}
);
leftKerningGroup = B;
rightKerningGroup = K;
unicode = 004B;
},
{
glyphname = L;
layers = (
{
layerId = "E7469244-AD98-4857-BCFE-AC0111B942FA";
name = Regular;
paths = (
{
closed = 1;
nodes = (
"376 163 LINE",
"376 1433 LINE",
"183 1433 LINE",
"183 0 LINE",
"996 0 LINE",
"996 163 LINE"
);
}
);
width = 1027;
}
);
leftKerningGroup = B;
rightKerningGroup = L;
unicode = 004C;
},
{
glyphname = M;
layers = (
{
layerId = "E7469244-AD98-4857-BCFE-AC0111B942FA";
name = Regular;
paths = (
{
closed = 1;
nodes = (
"393 1400 LINE SMOOTH",
"384 1415 OFFCURVE",
"375 1425 OFFCURVE",
"366 1428 CURVE SMOOTH",
"357 1431 OFFCURVE",
"343 1433 OFFCURVE",
"326 1433 CURVE SMOOTH",
"183 1433 LINE",
"183 0 LINE",
"353 0 LINE",
"353 1053 LINE SMOOTH",
"353 1067 OFFCURVE",
"353 1082 OFFCURVE",
"352 1099 CURVE SMOOTH",
"351 1116 OFFCURVE",
"349 1133 OFFCURVE",
"347 1150 CURVE",
"849 251 LINE",
"864 221 OFFCURVE",
"888 206 OFFCURVE",
"919 206 CURVE SMOOTH",
"947 206 LINE SMOOTH",
"978 206 OFFCURVE",
"1002 221 OFFCURVE",
"1017 251 CURVE",
"1508 1147 LINE",
"1507 1130 OFFCURVE",
"1506 1114 OFFCURVE",
"1505 1098 CURVE SMOOTH",
"1504 1082 OFFCURVE",
"1504 1067 OFFCURVE",
"1504 1053 CURVE SMOOTH",
"1504 0 LINE",
"1674 0 LINE",
"1674 1433 LINE",
"1531 1433 LINE SMOOTH",
"1514 1433 OFFCURVE",
"1500 1431 OFFCURVE",
"1491 1428 CURVE SMOOTH",
"1481 1425 OFFCURVE",
"1472 1415 OFFCURVE",
"1464 1400 CURVE SMOOTH",
"978 519 LINE SMOOTH",
"969 503 OFFCURVE",
"961 486 OFFCURVE",
"954 469 CURVE SMOOTH",
"947 451 OFFCURVE",
"940 433 OFFCURVE",
"933 415 CURVE",
"926 432 OFFCURVE",
"918 450 OFFCURVE",
"911 468 CURVE SMOOTH",
"904 485 OFFCURVE",
"896 502 OFFCURVE",
"888 518 CURVE"
);
}
);
width = 1857;
}
);
leftKerningGroup = B;
rightKerningGroup = H;
unicode = 004D;
},
{
glyphname = N;
layers = (
{
layerId = "E7469244-AD98-4857-BCFE-AC0111B942FA";
name = Regular;
paths = (
{
closed = 1;
nodes = (
"183 1433 LINE",
"183 0 LINE",
"353 0 LINE",
"353 1021 LINE SMOOTH",
"353 1034 OFFCURVE",
"353 1049 OFFCURVE",
"352 1065 CURVE SMOOTH",
"351 1081 OFFCURVE",
"350 1097 OFFCURVE",
"349 1114 CURVE",
"1178 35 LINE SMOOTH",
"1188 22 OFFCURVE",
"1198 13 OFFCURVE",
"1209 8 CURVE",
"1219 3 OFFCURVE",
"1232 0 OFFCURVE",
"1247 0 CURVE SMOOTH",
"1344 0 LINE",
"1344 1433 LINE",
"1174 1433 LINE",
"1174 418 LINE SMOOTH",
"1174 403 OFFCURVE",
"1175 388 OFFCURVE",
"1176 372 CURVE SMOOTH",
"1177 355 OFFCURVE",
"1178 338 OFFCURVE",
"1179 321 CURVE",
"350 1400 LINE SMOOTH",
"345 1407 OFFCURVE",
"340 1412 OFFCURVE",
"335 1417 CURVE",
"330 1421 OFFCURVE",
"326 1424 OFFCURVE",
"321 1427 CURVE",
"316 1429 OFFCURVE",
"311 1431 OFFCURVE",
"305 1432 CURVE SMOOTH",
"299 1433 OFFCURVE",
"292 1433 OFFCURVE",
"283 1433 CURVE SMOOTH"
);
}
);
width = 1527;
}
);
leftKerningGroup = B;
rightKerningGroup = H;
unicode = 004E;
},
{
glyphname = Ntilde;
layers = (
{
layerId = "E7469244-AD98-4857-BCFE-AC0111B942FA";
name = Regular;
paths = (
{
closed = 1;
nodes = (
"183 1433 LINE",
"183 0 LINE",
"353 0 LINE",
"353 1021 LINE SMOOTH",
"353 1034 OFFCURVE",
"353 1049 OFFCURVE",
"352 1065 CURVE SMOOTH",
"351 1081 OFFCURVE",
"350 1097 OFFCURVE",
"349 1114 CURVE",
"1178 35 LINE SMOOTH",
"1188 22 OFFCURVE",
"1198 13 OFFCURVE",
"1209 8 CURVE",
"1219 3 OFFCURVE",
"1232 0 OFFCURVE",
"1247 0 CURVE SMOOTH",
"1344 0 LINE",
"1344 1433 LINE",
"1174 1433 LINE",
"1174 418 LINE SMOOTH",
"1174 403 OFFCURVE",
"1175 388 OFFCURVE",
"1176 372 CURVE SMOOTH",
"1177 355 OFFCURVE",
"1178 338 OFFCURVE",
"1179 321 CURVE",
"350 1400 LINE SMOOTH",
"345 1407 OFFCURVE",
"340 1412 OFFCURVE",
"335 1417 CURVE",
"330 1421 OFFCURVE",
"326 1424 OFFCURVE",
"321 1427 CURVE",
"316 1429 OFFCURVE",
"311 1431 OFFCURVE",
"305 1432 CURVE SMOOTH",
"299 1433 OFFCURVE",
"292 1433 OFFCURVE",
"283 1433 CURVE SMOOTH"
);
},
{
closed = 1;
nodes = (
"885 1662 OFFCURVE",
"867 1668 OFFCURVE",
"849 1679 CURVE SMOOTH",
"831 1690 OFFCURVE",
"812 1702 OFFCURVE",
"792 1715 CURVE SMOOTH",
"772 1728 OFFCURVE",
"750 1740 OFFCURVE",
"726 1751 CURVE SMOOTH",
"702 1762 OFFCURVE",
"675 1767 OFFCURVE",
"645 1767 CURVE SMOOTH",
"616 1767 OFFCURVE",
"590 1761 OFFCURVE",
"567 1749 CURVE SMOOTH",
"544 1737 OFFCURVE",
"525 1721 OFFCURVE",
"510 1701 CURVE SMOOTH",
"495 1680 OFFCURVE",
"483 1657 OFFCURVE",
"475 1630 CURVE SMOOTH",
"466 1603 OFFCURVE",
"462 1576 OFFCURVE",
"462 1547 CURVE",
"573 1547 LINE",
"573 1559 OFFCURVE",
"575 1571 OFFCURVE",
"579 1583 CURVE SMOOTH",
"583 1595 OFFCURVE",
"589 1606 OFFCURVE",
"597 1616 CURVE SMOOTH",
"604 1625 OFFCURVE",
"614 1633 OFFCURVE",
"625 1639 CURVE SMOOTH",
"636 1645 OFFCURVE",
"650 1648 OFFCURVE",
"665 1648 CURVE SMOOTH",
"684 1648 OFFCURVE",
"702 1643 OFFCURVE",
"720 1632 CURVE SMOOTH",
"738 1621 OFFCURVE",
"757 1609 OFFCURVE",
"778 1596 CURVE SMOOTH",
"798 1583 OFFCURVE",
"820 1571 OFFCURVE",
"844 1560 CURVE SMOOTH",
"867 1549 OFFCURVE",
"894 1543 OFFCURVE",
"924 1543 CURVE SMOOTH",
"953 1543 OFFCURVE",
"979 1549 OFFCURVE",
"1002 1561 CURVE SMOOTH",
"1025 1573 OFFCURVE",
"1044 1589 OFFCURVE",
"1060 1610 CURVE SMOOTH",
"1075 1630 OFFCURVE",
"1087 1653 OFFCURVE",
"1095 1680 CURVE SMOOTH",
"1103 1706 OFFCURVE",
"1107 1733 OFFCURVE",
"1107 1762 CURVE",
"998 1762 LINE",
"998 1750 OFFCURVE",
"996 1738 OFFCURVE",
"992 1726 CURVE SMOOTH",
"988 1714 OFFCURVE",
"982 1703 OFFCURVE",
"974 1694 CURVE",
"966 1684 OFFCURVE",
"956 1676 OFFCURVE",
"945 1671 CURVE",
"933 1665 OFFCURVE",
"919 1662 OFFCURVE",
"904 1662 CURVE SMOOTH"
);
}
);
width = 1527;
}
);
leftKerningGroup = B;
rightKerningGroup = H;
unicode = 00D1;
},
{
glyphname = O;
layers = (
{
layerId = "E7469244-AD98-4857-BCFE-AC0111B942FA";
name = Regular;
paths = (
{
closed = 1;
nodes = (
"1507 823 OFFCURVE",
"1490 922 OFFCURVE",
"1456 1012 CURVE SMOOTH",
"1422 1101 OFFCURVE",
"1374 1179 OFFCURVE",
"1312 1244 CURVE SMOOTH",
"1250 1309 OFFCURVE",
"1176 1359 OFFCURVE",
"1089 1395 CURVE SMOOTH",
"1002 1431 OFFCURVE",
"905 1449 OFFCURVE",
"800 1449 CURVE SMOOTH",
"695 1449 OFFCURVE",
"599 1431 OFFCURVE",
"512 1395 CURVE SMOOTH",
"425 1359 OFFCURVE",
"351 1309 OFFCURVE",
"289 1244 CURVE SMOOTH",
"227 1179 OFFCURVE",
"179 1101 OFFCURVE",
"145 1012 CURVE SMOOTH",
"111 922 OFFCURVE",
"94 823 OFFCURVE",
"94 716 CURVE SMOOTH",
"94 609 OFFCURVE",
"111 510 OFFCURVE",
"145 421 CURVE SMOOTH",
"179 331 OFFCURVE",
"227 254 OFFCURVE",
"289 189 CURVE SMOOTH",
"351 124 OFFCURVE",
"425 74 OFFCURVE",
"512 38 CURVE SMOOTH",
"599 3 OFFCURVE",
"695 -15 OFFCURVE",
"800 -15 CURVE SMOOTH",
"905 -15 OFFCURVE",
"1002 3 OFFCURVE",
"1089 38 CURVE SMOOTH",
"1176 74 OFFCURVE",
"1250 124 OFFCURVE",
"1312 189 CURVE SMOOTH",
"1374 254 OFFCURVE",
"1422 331 OFFCURVE",
"1456 421 CURVE SMOOTH",
"1490 510 OFFCURVE",
"1507 609 OFFCURVE",
"1507 716 CURVE SMOOTH"
);
},
{
closed = 1;
nodes = (
"1308 628 OFFCURVE",
"1296 549 OFFCURVE",
"1272 480 CURVE SMOOTH",
"1248 410 OFFCURVE",
"1214 351 OFFCURVE",
"1170 303 CURVE SMOOTH",
"1126 254 OFFCURVE",
"1073 217 OFFCURVE",
"1010 192 CURVE SMOOTH",
"947 166 OFFCURVE",
"877 153 OFFCURVE",
"800 153 CURVE SMOOTH",
"723 153 OFFCURVE",
"654 166 OFFCURVE",
"591 192 CURVE SMOOTH",
"528 217 OFFCURVE",
"475 254 OFFCURVE",
"431 303 CURVE SMOOTH",
"386 351 OFFCURVE",
"352 410 OFFCURVE",
"328 480 CURVE SMOOTH",
"304 549 OFFCURVE",
"292 628 OFFCURVE",
"292 716 CURVE SMOOTH",
"292 804 OFFCURVE",
"304 883 OFFCURVE",
"328 953 CURVE SMOOTH",
"352 1023 OFFCURVE",
"386 1082 OFFCURVE",
"431 1131 CURVE SMOOTH",
"475 1179 OFFCURVE",
"528 1216 OFFCURVE",
"591 1242 CURVE SMOOTH",
"654 1268 OFFCURVE",
"723 1281 OFFCURVE",
"800 1281 CURVE SMOOTH",
"877 1281 OFFCURVE",
"947 1268 OFFCURVE",
"1010 1242 CURVE SMOOTH",
"1073 1216 OFFCURVE",
"1126 1179 OFFCURVE",
"1170 1131 CURVE SMOOTH",
"1214 1082 OFFCURVE",
"1248 1023 OFFCURVE",
"1272 953 CURVE SMOOTH",
"1296 883 OFFCURVE",
"1308 804 OFFCURVE",
"1308 716 CURVE SMOOTH"
);
}
);
width = 1601;
}
);
leftKerningGroup = C;
rightKerningGroup = O;
unicode = 004F;
},
{
glyphname = Oacute;
layers = (
{
layerId = "E7469244-AD98-4857-BCFE-AC0111B942FA";
name = Regular;
paths = (
{
closed = 1;
nodes = (
"1507 823 OFFCURVE",
"1490 922 OFFCURVE",
"1456 1012 CURVE SMOOTH",
"1422 1101 OFFCURVE",
"1374 1179 OFFCURVE",
"1312 1244 CURVE SMOOTH",
"1250 1309 OFFCURVE",
"1176 1359 OFFCURVE",
"1089 1395 CURVE SMOOTH",
"1002 1431 OFFCURVE",
"905 1449 OFFCURVE",
"800 1449 CURVE SMOOTH",
"695 1449 OFFCURVE",
"599 1431 OFFCURVE",
"512 1395 CURVE SMOOTH",
"425 1359 OFFCURVE",
"351 1309 OFFCURVE",
"289 1244 CURVE SMOOTH",
"227 1179 OFFCURVE",
"179 1101 OFFCURVE",
"145 1012 CURVE SMOOTH",
"111 922 OFFCURVE",
"94 823 OFFCURVE",
"94 716 CURVE SMOOTH",
"94 609 OFFCURVE",
"111 510 OFFCURVE",
"145 421 CURVE SMOOTH",
"179 331 OFFCURVE",
"227 254 OFFCURVE",
"289 189 CURVE SMOOTH",
"351 124 OFFCURVE",
"425 74 OFFCURVE",
"512 38 CURVE SMOOTH",
"599 3 OFFCURVE",
"695 -15 OFFCURVE",
"800 -15 CURVE SMOOTH",
"905 -15 OFFCURVE",
"1002 3 OFFCURVE",
"1089 38 CURVE SMOOTH",
"1176 74 OFFCURVE",
"1250 124 OFFCURVE",
"1312 189 CURVE SMOOTH",
"1374 254 OFFCURVE",
"1422 331 OFFCURVE",
"1456 421 CURVE SMOOTH",
"1490 510 OFFCURVE",
"1507 609 OFFCURVE",
"1507 716 CURVE SMOOTH"
);
},
{
closed = 1;
nodes = (
"1308 628 OFFCURVE",
"1296 549 OFFCURVE",
"1272 480 CURVE SMOOTH",
"1248 410 OFFCURVE",
"1214 351 OFFCURVE",
"1170 303 CURVE SMOOTH",
"1126 254 OFFCURVE",
"1073 217 OFFCURVE",
"1010 192 CURVE SMOOTH",
"947 166 OFFCURVE",
"877 153 OFFCURVE",
"800 153 CURVE SMOOTH",
"723 153 OFFCURVE",
"654 166 OFFCURVE",
"591 192 CURVE SMOOTH",
"528 217 OFFCURVE",
"475 254 OFFCURVE",
"431 303 CURVE SMOOTH",
"386 351 OFFCURVE",
"352 410 OFFCURVE",
"328 480 CURVE SMOOTH",
"304 549 OFFCURVE",
"292 628 OFFCURVE",
"292 716 CURVE SMOOTH",
"292 804 OFFCURVE",
"304 883 OFFCURVE",
"328 953 CURVE SMOOTH",
"352 1023 OFFCURVE",
"386 1082 OFFCURVE",
"431 1131 CURVE SMOOTH",
"475 1179 OFFCURVE",
"528 1216 OFFCURVE",
"591 1242 CURVE SMOOTH",
"654 1268 OFFCURVE",
"723 1281 OFFCURVE",
"800 1281 CURVE SMOOTH",
"877 1281 OFFCURVE",
"947 1268 OFFCURVE",
"1010 1242 CURVE SMOOTH",
"1073 1216 OFFCURVE",
"1126 1179 OFFCURVE",
"1170 1131 CURVE SMOOTH",
"1214 1082 OFFCURVE",
"1248 1023 OFFCURVE",
"1272 953 CURVE SMOOTH",
"1296 883 OFFCURVE",
"1308 804 OFFCURVE",
"1308 716 CURVE SMOOTH"
);
},
{
closed = 1;
nodes = (
"1180 1852 LINE",
"979 1852 LINE SMOOTH",
"957 1852 OFFCURVE",
"940 1850 OFFCURVE",
"929 1847 CURVE SMOOTH",
"917 1844 OFFCURVE",
"905 1835 OFFCURVE",
"894 1820 CURVE",
"663 1546 LINE",
"791 1546 LINE SMOOTH",
"804 1546 OFFCURVE",
"816 1547 OFFCURVE",
"825 1549 CURVE SMOOTH",
"834 1551 OFFCURVE",
"844 1557 OFFCURVE",
"854 1566 CURVE SMOOTH"
);
}
);
width = 1601;
}
);
leftKerningGroup = C;
rightKerningGroup = O;
unicode = 00D3;
},
{
glyphname = Ocircumflex;
layers = (
{
layerId = "E7469244-AD98-4857-BCFE-AC0111B942FA";
name = Regular;
paths = (
{
closed = 1;
nodes = (
"1507 823 OFFCURVE",
"1490 922 OFFCURVE",
"1456 1012 CURVE SMOOTH",
"1422 1101 OFFCURVE",
"1374 1179 OFFCURVE",
"1312 1244 CURVE SMOOTH",
"1250 1309 OFFCURVE",
"1176 1359 OFFCURVE",
"1089 1395 CURVE SMOOTH",
"1002 1431 OFFCURVE",
"905 1449 OFFCURVE",
"800 1449 CURVE SMOOTH",
"695 1449 OFFCURVE",
"599 1431 OFFCURVE",
"512 1395 CURVE SMOOTH",
"425 1359 OFFCURVE",
"351 1309 OFFCURVE",
"289 1244 CURVE SMOOTH",
"227 1179 OFFCURVE",
"179 1101 OFFCURVE",
"145 1012 CURVE SMOOTH",
"111 922 OFFCURVE",
"94 823 OFFCURVE",
"94 716 CURVE SMOOTH",
"94 609 OFFCURVE",
"111 510 OFFCURVE",
"145 421 CURVE SMOOTH",
"179 331 OFFCURVE",
"227 254 OFFCURVE",
"289 189 CURVE SMOOTH",
"351 124 OFFCURVE",
"425 74 OFFCURVE",
"512 38 CURVE SMOOTH",
"599 3 OFFCURVE",
"695 -15 OFFCURVE",
"800 -15 CURVE SMOOTH",
"905 -15 OFFCURVE",
"1002 3 OFFCURVE",
"1089 38 CURVE SMOOTH",
"1176 74 OFFCURVE",
"1250 124 OFFCURVE",
"1312 189 CURVE SMOOTH",
"1374 254 OFFCURVE",
"1422 331 OFFCURVE",
"1456 421 CURVE SMOOTH",
"1490 510 OFFCURVE",
"1507 609 OFFCURVE",
"1507 716 CURVE SMOOTH"
);
},
{
closed = 1;
nodes = (
"1308 628 OFFCURVE",
"1296 549 OFFCURVE",
"1272 480 CURVE SMOOTH",
"1248 410 OFFCURVE",
"1214 351 OFFCURVE",
"1170 303 CURVE SMOOTH",
"1126 254 OFFCURVE",
"1073 217 OFFCURVE",
"1010 192 CURVE SMOOTH",
"947 166 OFFCURVE",
"877 153 OFFCURVE",
"800 153 CURVE SMOOTH",
"723 153 OFFCURVE",
"654 166 OFFCURVE",
"591 192 CURVE SMOOTH",
"528 217 OFFCURVE",
"475 254 OFFCURVE",
"431 303 CURVE SMOOTH",
"386 351 OFFCURVE",
"352 410 OFFCURVE",
"328 480 CURVE SMOOTH",
"304 549 OFFCURVE",
"292 628 OFFCURVE",
"292 716 CURVE SMOOTH",
"292 804 OFFCURVE",
"304 883 OFFCURVE",
"328 953 CURVE SMOOTH",
"352 1023 OFFCURVE",
"386 1082 OFFCURVE",
"431 1131 CURVE SMOOTH",
"475 1179 OFFCURVE",
"528 1216 OFFCURVE",
"591 1242 CURVE SMOOTH",
"654 1268 OFFCURVE",
"723 1281 OFFCURVE",
"800 1281 CURVE SMOOTH",
"877 1281 OFFCURVE",
"947 1268 OFFCURVE",
"1010 1242 CURVE SMOOTH",
"1073 1216 OFFCURVE",
"1126 1179 OFFCURVE",
"1170 1131 CURVE SMOOTH",
"1214 1082 OFFCURVE",
"1248 1023 OFFCURVE",
"1272 953 CURVE SMOOTH",
"1296 883 OFFCURVE",
"1308 804 OFFCURVE",
"1308 716 CURVE SMOOTH"
);
},
{
closed = 1;
nodes = (
"1123 1546 LINE",
"885 1817 LINE",
"725 1817 LINE",
"486 1546 LINE",
"611 1546 LINE SMOOTH",
"619 1546 OFFCURVE",
"629 1548 OFFCURVE",
"640 1551 CURVE SMOOTH",
"651 1554 OFFCURVE",
"662 1562 OFFCURVE",
"673 1575 CURVE SMOOTH",
"790 1716 LINE",
"802 1733 LINE",
"806 1727 OFFCURVE",
"810 1721 OFFCURVE",
"814 1716 CURVE SMOOTH",
"931 1575 LINE SMOOTH",
"942 1562 OFFCURVE",
"954 1554 OFFCURVE",
"965 1551 CURVE SMOOTH",
"976 1548 OFFCURVE",
"985 1546 OFFCURVE",
"993 1546 CURVE SMOOTH"
);
}
);
width = 1601;
}
);
leftKerningGroup = C;
rightKerningGroup = O;
unicode = 00D4;
},
{
glyphname = Odieresis;
layers = (
{
layerId = "E7469244-AD98-4857-BCFE-AC0111B942FA";
name = Regular;
paths = (
{
closed = 1;
nodes = (
"1507 823 OFFCURVE",
"1490 922 OFFCURVE",
"1456 1012 CURVE SMOOTH",
"1422 1101 OFFCURVE",
"1374 1179 OFFCURVE",
"1312 1244 CURVE SMOOTH",
"1250 1309 OFFCURVE",
"1176 1359 OFFCURVE",
"1089 1395 CURVE SMOOTH",
"1002 1431 OFFCURVE",
"905 1449 OFFCURVE",
"800 1449 CURVE SMOOTH",
"695 1449 OFFCURVE",
"599 1431 OFFCURVE",
"512 1395 CURVE SMOOTH",
"425 1359 OFFCURVE",
"351 1309 OFFCURVE",
"289 1244 CURVE SMOOTH",
"227 1179 OFFCURVE",
"179 1101 OFFCURVE",
"145 1012 CURVE SMOOTH",
"111 922 OFFCURVE",
"94 823 OFFCURVE",
"94 716 CURVE SMOOTH",
"94 609 OFFCURVE",
"111 510 OFFCURVE",
"145 421 CURVE SMOOTH",
"179 331 OFFCURVE",
"227 254 OFFCURVE",
"289 189 CURVE SMOOTH",
"351 124 OFFCURVE",
"425 74 OFFCURVE",
"512 38 CURVE SMOOTH",
"599 3 OFFCURVE",
"695 -15 OFFCURVE",
"800 -15 CURVE SMOOTH",
"905 -15 OFFCURVE",
"1002 3 OFFCURVE",
"1089 38 CURVE SMOOTH",
"1176 74 OFFCURVE",
"1250 124 OFFCURVE",
"1312 189 CURVE SMOOTH",
"1374 254 OFFCURVE",
"1422 331 OFFCURVE",
"1456 421 CURVE SMOOTH",
"1490 510 OFFCURVE",
"1507 609 OFFCURVE",
"1507 716 CURVE SMOOTH"
);
},
{
closed = 1;
nodes = (
"1308 628 OFFCURVE",
"1296 549 OFFCURVE",
"1272 480 CURVE SMOOTH",
"1248 410 OFFCURVE",
"1214 351 OFFCURVE",
"1170 303 CURVE SMOOTH",
"1126 254 OFFCURVE",
"1073 217 OFFCURVE",
"1010 192 CURVE SMOOTH",
"947 166 OFFCURVE",
"877 153 OFFCURVE",
"800 153 CURVE SMOOTH",
"723 153 OFFCURVE",
"654 166 OFFCURVE",
"591 192 CURVE SMOOTH",
"528 217 OFFCURVE",
"475 254 OFFCURVE",
"431 303 CURVE SMOOTH",
"386 351 OFFCURVE",
"352 410 OFFCURVE",
"328 480 CURVE SMOOTH",
"304 549 OFFCURVE",
"292 628 OFFCURVE",
"292 716 CURVE SMOOTH",
"292 804 OFFCURVE",
"304 883 OFFCURVE",
"328 953 CURVE SMOOTH",
"352 1023 OFFCURVE",
"386 1082 OFFCURVE",
"431 1131 CURVE SMOOTH",
"475 1179 OFFCURVE",
"528 1216 OFFCURVE",
"591 1242 CURVE SMOOTH",
"654 1268 OFFCURVE",
"723 1281 OFFCURVE",
"800 1281 CURVE SMOOTH",
"877 1281 OFFCURVE",
"947 1268 OFFCURVE",
"1010 1242 CURVE SMOOTH",
"1073 1216 OFFCURVE",
"1126 1179 OFFCURVE",
"1170 1131 CURVE SMOOTH",
"1214 1082 OFFCURVE",
"1248 1023 OFFCURVE",
"1272 953 CURVE SMOOTH",
"1296 883 OFFCURVE",
"1308 804 OFFCURVE",
"1308 716 CURVE SMOOTH"
);
},
{
closed = 1;
nodes = (
"703 1681 OFFCURVE",
"700 1696 OFFCURVE",
"694 1710 CURVE SMOOTH",
"688 1723 OFFCURVE",
"680 1735 OFFCURVE",
"670 1745 CURVE",
"659 1755 OFFCURVE",
"647 1763 OFFCURVE",
"634 1769 CURVE SMOOTH",
"620 1775 OFFCURVE",
"606 1778 OFFCURVE",
"591 1778 CURVE SMOOTH",
"577 1778 OFFCURVE",
"564 1775 OFFCURVE",
"551 1769 CURVE SMOOTH",
"538 1763 OFFCURVE",
"526 1755 OFFCURVE",
"516 1745 CURVE SMOOTH",
"506 1735 OFFCURVE",
"498 1723 OFFCURVE",
"492 1710 CURVE SMOOTH",
"486 1696 OFFCURVE",
"483 1681 OFFCURVE",
"483 1666 CURVE SMOOTH",
"483 1651 OFFCURVE",
"486 1638 OFFCURVE",
"492 1625 CURVE SMOOTH",
"498 1612 OFFCURVE",
"506 1600 OFFCURVE",
"516 1590 CURVE SMOOTH",
"526 1580 OFFCURVE",
"538 1572 OFFCURVE",
"551 1567 CURVE",
"564 1561 OFFCURVE",
"577 1558 OFFCURVE",
"591 1558 CURVE SMOOTH",
"606 1558 OFFCURVE",
"620 1561 OFFCURVE",
"634 1567 CURVE",
"647 1572 OFFCURVE",
"659 1580 OFFCURVE",
"670 1590 CURVE",
"680 1600 OFFCURVE",
"688 1612 OFFCURVE",
"694 1625 CURVE SMOOTH",
"700 1638 OFFCURVE",
"703 1651 OFFCURVE",
"703 1666 CURVE SMOOTH"
);
},
{
closed = 1;
nodes = (
"1121 1681 OFFCURVE",
"1118 1696 OFFCURVE",
"1112 1710 CURVE SMOOTH",
"1106 1723 OFFCURVE",
"1098 1735 OFFCURVE",
"1088 1745 CURVE SMOOTH",
"1078 1755 OFFCURVE",
"1066 1763 OFFCURVE",
"1053 1769 CURVE SMOOTH",
"1040 1775 OFFCURVE",
"1026 1778 OFFCURVE",
"1011 1778 CURVE SMOOTH",
"996 1778 OFFCURVE",
"981 1775 OFFCURVE",
"968 1769 CURVE SMOOTH",
"955 1763 OFFCURVE",
"943 1755 OFFCURVE",
"933 1745 CURVE SMOOTH",
"923 1735 OFFCURVE",
"915 1723 OFFCURVE",
"910 1710 CURVE",
"904 1696 OFFCURVE",
"901 1681 OFFCURVE",
"901 1666 CURVE SMOOTH",
"901 1651 OFFCURVE",
"904 1638 OFFCURVE",
"910 1625 CURVE",
"915 1612 OFFCURVE",
"923 1600 OFFCURVE",
"933 1590 CURVE SMOOTH",
"943 1580 OFFCURVE",
"955 1572 OFFCURVE",
"968 1567 CURVE",
"981 1561 OFFCURVE",
"996 1558 OFFCURVE",
"1011 1558 CURVE SMOOTH",
"1026 1558 OFFCURVE",
"1040 1561 OFFCURVE",
"1053 1567 CURVE",
"1066 1572 OFFCURVE",
"1078 1580 OFFCURVE",
"1088 1590 CURVE SMOOTH",
"1098 1600 OFFCURVE",
"1106 1612 OFFCURVE",
"1112 1625 CURVE SMOOTH",
"1118 1638 OFFCURVE",
"1121 1651 OFFCURVE",
"1121 1666 CURVE SMOOTH"
);
}
);
width = 1601;
}
);
leftKerningGroup = C;
rightKerningGroup = O;
unicode = 00D6;
},
{
glyphname = Ograve;
layers = (
{
layerId = "E7469244-AD98-4857-BCFE-AC0111B942FA";
name = Regular;
paths = (
{
closed = 1;
nodes = (
"1507 823 OFFCURVE",
"1490 922 OFFCURVE",
"1456 1012 CURVE SMOOTH",
"1422 1101 OFFCURVE",
"1374 1179 OFFCURVE",
"1312 1244 CURVE SMOOTH",
"1250 1309 OFFCURVE",
"1176 1359 OFFCURVE",
"1089 1395 CURVE SMOOTH",
"1002 1431 OFFCURVE",
"905 1449 OFFCURVE",
"800 1449 CURVE SMOOTH",
"695 1449 OFFCURVE",
"599 1431 OFFCURVE",
"512 1395 CURVE SMOOTH",
"425 1359 OFFCURVE",
"351 1309 OFFCURVE",
"289 1244 CURVE SMOOTH",
"227 1179 OFFCURVE",
"179 1101 OFFCURVE",
"145 1012 CURVE SMOOTH",
"111 922 OFFCURVE",
"94 823 OFFCURVE",
"94 716 CURVE SMOOTH",
"94 609 OFFCURVE",
"111 510 OFFCURVE",
"145 421 CURVE SMOOTH",
"179 331 OFFCURVE",
"227 254 OFFCURVE",
"289 189 CURVE SMOOTH",
"351 124 OFFCURVE",
"425 74 OFFCURVE",
"512 38 CURVE SMOOTH",
"599 3 OFFCURVE",
"695 -15 OFFCURVE",
"800 -15 CURVE SMOOTH",
"905 -15 OFFCURVE",
"1002 3 OFFCURVE",
"1089 38 CURVE SMOOTH",
"1176 74 OFFCURVE",
"1250 124 OFFCURVE",
"1312 189 CURVE SMOOTH",
"1374 254 OFFCURVE",
"1422 331 OFFCURVE",
"1456 421 CURVE SMOOTH",
"1490 510 OFFCURVE",
"1507 609 OFFCURVE",
"1507 716 CURVE SMOOTH"
);
},
{
closed = 1;
nodes = (
"1308 628 OFFCURVE",
"1296 549 OFFCURVE",
"1272 480 CURVE SMOOTH",
"1248 410 OFFCURVE",
"1214 351 OFFCURVE",
"1170 303 CURVE SMOOTH",
"1126 254 OFFCURVE",
"1073 217 OFFCURVE",
"1010 192 CURVE SMOOTH",
"947 166 OFFCURVE",
"877 153 OFFCURVE",
"800 153 CURVE SMOOTH",
"723 153 OFFCURVE",
"654 166 OFFCURVE",
"591 192 CURVE SMOOTH",
"528 217 OFFCURVE",
"475 254 OFFCURVE",
"431 303 CURVE SMOOTH",
"386 351 OFFCURVE",
"352 410 OFFCURVE",
"328 480 CURVE SMOOTH",
"304 549 OFFCURVE",
"292 628 OFFCURVE",
"292 716 CURVE SMOOTH",
"292 804 OFFCURVE",
"304 883 OFFCURVE",
"328 953 CURVE SMOOTH",
"352 1023 OFFCURVE",
"386 1082 OFFCURVE",
"431 1131 CURVE SMOOTH",
"475 1179 OFFCURVE",
"528 1216 OFFCURVE",
"591 1242 CURVE SMOOTH",
"654 1268 OFFCURVE",
"723 1281 OFFCURVE",
"800 1281 CURVE SMOOTH",
"877 1281 OFFCURVE",
"947 1268 OFFCURVE",
"1010 1242 CURVE SMOOTH",
"1073 1216 OFFCURVE",
"1126 1179 OFFCURVE",
"1170 1131 CURVE SMOOTH",
"1214 1082 OFFCURVE",
"1248 1023 OFFCURVE",
"1272 953 CURVE SMOOTH",
"1296 883 OFFCURVE",
"1308 804 OFFCURVE",
"1308 716 CURVE SMOOTH"
);
},
{
closed = 1;
nodes = (
"435 1852 LINE",
"747 1565 LINE SMOOTH",
"757 1556 OFFCURVE",
"766 1550 OFFCURVE",
"775 1549 CURVE",
"783 1547 OFFCURVE",
"794 1546 OFFCURVE",
"809 1546 CURVE SMOOTH",
"937 1546 LINE",
"709 1820 LINE",
"698 1835 OFFCURVE",
"686 1844 OFFCURVE",
"675 1847 CURVE SMOOTH",
"664 1850 OFFCURVE",
"647 1852 OFFCURVE",
"625 1852 CURVE SMOOTH"
);
}
);
width = 1601;
}
);
leftKerningGroup = C;
rightKerningGroup = O;
unicode = 00D2;
},
{
glyphname = Oslash;
layers = (
{
layerId = "E7469244-AD98-4857-BCFE-AC0111B942FA";
name = Regular;
paths = (
{
closed = 1;
nodes = (
"1507 830 OFFCURVE",
"1488 933 OFFCURVE",
"1451 1026 CURVE SMOOTH",
"1414 1119 OFFCURVE",
"1361 1198 OFFCURVE",
"1292 1263 CURVE",
"1464 1498 LINE",
"1364 1498 LINE SMOOTH",
"1343 1498 OFFCURVE",
"1327 1494 OFFCURVE",
"1316 1487 CURVE",
"1305 1479 OFFCURVE",
"1293 1466 OFFCURVE",
"1280 1448 CURVE SMOOTH",
"1198 1337 LINE",
"1143 1373 OFFCURVE",
"1082 1401 OFFCURVE",
"1015 1420 CURVE SMOOTH",
"948 1439 OFFCURVE",
"877 1449 OFFCURVE",
"800 1449 CURVE SMOOTH",
"695 1449 OFFCURVE",
"599 1431 OFFCURVE",
"512 1395 CURVE SMOOTH",
"425 1359 OFFCURVE",
"351 1309 OFFCURVE",
"289 1244 CURVE SMOOTH",
"227 1179 OFFCURVE",
"179 1101 OFFCURVE",
"145 1012 CURVE SMOOTH",
"111 922 OFFCURVE",
"94 823 OFFCURVE",
"94 716 CURVE SMOOTH",
"94 597 OFFCURVE",
"115 489 OFFCURVE",
"156 393 CURVE SMOOTH",
"197 297 OFFCURVE",
"254 216 OFFCURVE",
"329 151 CURVE",
"138 -109 LINE",
"216 -109 LINE SMOOTH",
"235 -109 OFFCURVE",
"255 -105 OFFCURVE",
"275 -97 CURVE",
"294 -88 OFFCURVE",
"311 -74 OFFCURVE",
"325 -54 CURVE SMOOTH",
"425 82 LINE",
"478 50 OFFCURVE",
"535 26 OFFCURVE",
"598 9 CURVE SMOOTH",
"661 -7 OFFCURVE",
"728 -15 OFFCURVE",
"800 -15 CURVE SMOOTH",
"905 -15 OFFCURVE",
"1002 3 OFFCURVE",
"1089 38 CURVE SMOOTH",
"1176 74 OFFCURVE",
"1250 124 OFFCURVE",
"1312 189 CURVE SMOOTH",
"1374 254 OFFCURVE",
"1422 331 OFFCURVE",
"1456 421 CURVE SMOOTH",
"1490 510 OFFCURVE",
"1507 609 OFFCURVE",
"1507 716 CURVE SMOOTH"
);
},
{
closed = 1;
nodes = (
"292 804 OFFCURVE",
"304 883 OFFCURVE",
"328 953 CURVE SMOOTH",
"352 1023 OFFCURVE",
"386 1082 OFFCURVE",
"431 1131 CURVE SMOOTH",
"475 1179 OFFCURVE",
"528 1216 OFFCURVE",
"591 1242 CURVE SMOOTH",
"654 1268 OFFCURVE",
"723 1281 OFFCURVE",
"800 1281 CURVE SMOOTH",
"858 1281 OFFCURVE",
"912 1274 OFFCURVE",
"961 1260 CURVE SMOOTH",
"1010 1245 OFFCURVE",
"1055 1224 OFFCURVE",
"1095 1196 CURVE",
"436 297 LINE",
"390 346 OFFCURVE",
"355 405 OFFCURVE",
"330 476 CURVE SMOOTH",
"305 546 OFFCURVE",
"292 626 OFFCURVE",
"292 716 CURVE SMOOTH"
);
},
{
closed = 1;
nodes = (
"1308 628 OFFCURVE",
"1296 549 OFFCURVE",
"1272 480 CURVE SMOOTH",
"1248 410 OFFCURVE",
"1214 351 OFFCURVE",
"1170 303 CURVE SMOOTH",
"1126 254 OFFCURVE",
"1073 217 OFFCURVE",
"1010 192 CURVE SMOOTH",
"947 166 OFFCURVE",
"877 153 OFFCURVE",
"800 153 CURVE SMOOTH",
"696 153 OFFCURVE",
"605 176 OFFCURVE",
"528 223 CURVE",
"1183 1115 LINE",
"1223 1067 OFFCURVE",
"1254 1010 OFFCURVE",
"1276 943 CURVE SMOOTH",
"1297 876 OFFCURVE",
"1308 800 OFFCURVE",
"1308 716 CURVE SMOOTH"
);
}
);
width = 1601;
}
);
leftKerningGroup = C;
rightKerningGroup = O;
unicode = 00D8;
},
{
glyphname = Otilde;
layers = (
{
layerId = "E7469244-AD98-4857-BCFE-AC0111B942FA";
name = Regular;
paths = (
{
closed = 1;
nodes = (
"1507 823 OFFCURVE",
"1490 922 OFFCURVE",
"1456 1012 CURVE SMOOTH",
"1422 1101 OFFCURVE",
"1374 1179 OFFCURVE",
"1312 1244 CURVE SMOOTH",
"1250 1309 OFFCURVE",
"1176 1359 OFFCURVE",
"1089 1395 CURVE SMOOTH",
"1002 1431 OFFCURVE",
"905 1449 OFFCURVE",
"800 1449 CURVE SMOOTH",
"695 1449 OFFCURVE",
"599 1431 OFFCURVE",
"512 1395 CURVE SMOOTH",
"425 1359 OFFCURVE",
"351 1309 OFFCURVE",
"289 1244 CURVE SMOOTH",
"227 1179 OFFCURVE",
"179 1101 OFFCURVE",
"145 1012 CURVE SMOOTH",
"111 922 OFFCURVE",
"94 823 OFFCURVE",
"94 716 CURVE SMOOTH",
"94 609 OFFCURVE",
"111 510 OFFCURVE",
"145 421 CURVE SMOOTH",
"179 331 OFFCURVE",
"227 254 OFFCURVE",
"289 189 CURVE SMOOTH",
"351 124 OFFCURVE",
"425 74 OFFCURVE",
"512 38 CURVE SMOOTH",
"599 3 OFFCURVE",
"695 -15 OFFCURVE",
"800 -15 CURVE SMOOTH",
"905 -15 OFFCURVE",
"1002 3 OFFCURVE",
"1089 38 CURVE SMOOTH",
"1176 74 OFFCURVE",
"1250 124 OFFCURVE",
"1312 189 CURVE SMOOTH",
"1374 254 OFFCURVE",
"1422 331 OFFCURVE",
"1456 421 CURVE SMOOTH",
"1490 510 OFFCURVE",
"1507 609 OFFCURVE",
"1507 716 CURVE SMOOTH"
);
},
{
closed = 1;
nodes = (
"1308 628 OFFCURVE",
"1296 549 OFFCURVE",
"1272 480 CURVE SMOOTH",
"1248 410 OFFCURVE",
"1214 351 OFFCURVE",
"1170 303 CURVE SMOOTH",
"1126 254 OFFCURVE",
"1073 217 OFFCURVE",
"1010 192 CURVE SMOOTH",
"947 166 OFFCURVE",
"877 153 OFFCURVE",
"800 153 CURVE SMOOTH",
"723 153 OFFCURVE",
"654 166 OFFCURVE",
"591 192 CURVE SMOOTH",
"528 217 OFFCURVE",
"475 254 OFFCURVE",
"431 303 CURVE SMOOTH",
"386 351 OFFCURVE",
"352 410 OFFCURVE",
"328 480 CURVE SMOOTH",
"304 549 OFFCURVE",
"292 628 OFFCURVE",
"292 716 CURVE SMOOTH",
"292 804 OFFCURVE",
"304 883 OFFCURVE",
"328 953 CURVE SMOOTH",
"352 1023 OFFCURVE",
"386 1082 OFFCURVE",
"431 1131 CURVE SMOOTH",
"475 1179 OFFCURVE",
"528 1216 OFFCURVE",
"591 1242 CURVE SMOOTH",
"654 1268 OFFCURVE",
"723 1281 OFFCURVE",
"800 1281 CURVE SMOOTH",
"877 1281 OFFCURVE",
"947 1268 OFFCURVE",
"1010 1242 CURVE SMOOTH",
"1073 1216 OFFCURVE",
"1126 1179 OFFCURVE",
"1170 1131 CURVE SMOOTH",
"1214 1082 OFFCURVE",
"1248 1023 OFFCURVE",
"1272 953 CURVE SMOOTH",
"1296 883 OFFCURVE",
"1308 804 OFFCURVE",
"1308 716 CURVE SMOOTH"
);
},
{
closed = 1;
nodes = (
"909 1663 OFFCURVE",
"891 1669 OFFCURVE",
"873 1680 CURVE SMOOTH",
"855 1691 OFFCURVE",
"836 1703 OFFCURVE",
"816 1716 CURVE SMOOTH",
"796 1729 OFFCURVE",
"774 1741 OFFCURVE",
"750 1752 CURVE SMOOTH",
"726 1763 OFFCURVE",
"699 1768 OFFCURVE",
"669 1768 CURVE SMOOTH",
"640 1768 OFFCURVE",
"614 1762 OFFCURVE",
"591 1750 CURVE SMOOTH",
"568 1738 OFFCURVE",
"549 1722 OFFCURVE",
"534 1702 CURVE SMOOTH",
"519 1681 OFFCURVE",
"507 1658 OFFCURVE",
"499 1631 CURVE SMOOTH",
"490 1604 OFFCURVE",
"486 1577 OFFCURVE",
"486 1548 CURVE",
"597 1548 LINE",
"597 1560 OFFCURVE",
"599 1572 OFFCURVE",
"603 1584 CURVE SMOOTH",
"607 1596 OFFCURVE",
"613 1607 OFFCURVE",
"621 1617 CURVE SMOOTH",
"628 1626 OFFCURVE",
"638 1634 OFFCURVE",
"649 1640 CURVE SMOOTH",
"660 1646 OFFCURVE",
"674 1649 OFFCURVE",
"689 1649 CURVE SMOOTH",
"708 1649 OFFCURVE",
"726 1644 OFFCURVE",
"744 1633 CURVE SMOOTH",
"762 1622 OFFCURVE",
"781 1610 OFFCURVE",
"802 1597 CURVE SMOOTH",
"822 1584 OFFCURVE",
"844 1572 OFFCURVE",
"868 1561 CURVE SMOOTH",
"891 1550 OFFCURVE",
"918 1544 OFFCURVE",
"948 1544 CURVE SMOOTH",
"977 1544 OFFCURVE",
"1003 1550 OFFCURVE",
"1026 1562 CURVE SMOOTH",
"1049 1574 OFFCURVE",
"1068 1590 OFFCURVE",
"1084 1611 CURVE SMOOTH",
"1099 1631 OFFCURVE",
"1111 1654 OFFCURVE",
"1119 1681 CURVE SMOOTH",
"1127 1707 OFFCURVE",
"1131 1734 OFFCURVE",
"1131 1763 CURVE",
"1022 1763 LINE",
"1022 1751 OFFCURVE",
"1020 1739 OFFCURVE",
"1016 1727 CURVE SMOOTH",
"1012 1715 OFFCURVE",
"1006 1704 OFFCURVE",
"998 1695 CURVE",
"990 1685 OFFCURVE",
"980 1677 OFFCURVE",
"969 1672 CURVE",
"957 1666 OFFCURVE",
"943 1663 OFFCURVE",
"928 1663 CURVE SMOOTH"
);
}
);
width = 1601;
}
);
leftKerningGroup = C;
rightKerningGroup = O;
unicode = 00D5;
},
{
glyphname = OE;
layers = (
{
layerId = "E7469244-AD98-4857-BCFE-AC0111B942FA";
name = Regular;
paths = (
{
closed = 1;
nodes = (
"2091 1433 LINE",
"1231 1433 LINE",
"1231 1193 LINE",
"1175 1274 OFFCURVE",
"1105 1337 OFFCURVE",
"1020 1382 CURVE SMOOTH",
"935 1427 OFFCURVE",
"839 1449 OFFCURVE",
"732 1449 CURVE SMOOTH",
"637 1449 OFFCURVE",
"551 1431 OFFCURVE",
"473 1395 CURVE SMOOTH",
"395 1359 OFFCURVE",
"328 1309 OFFCURVE",
"272 1244 CURVE SMOOTH",
"216 1179 OFFCURVE",
"173 1101 OFFCURVE",
"142 1012 CURVE SMOOTH",
"111 922 OFFCURVE",
"96 823 OFFCURVE",
"96 716 CURVE SMOOTH",
"96 609 OFFCURVE",
"111 510 OFFCURVE",
"142 421 CURVE SMOOTH",
"173 331 OFFCURVE",
"216 254 OFFCURVE",
"272 190 CURVE SMOOTH",
"328 125 OFFCURVE",
"395 75 OFFCURVE",
"473 39 CURVE SMOOTH",
"551 4 OFFCURVE",
"637 -14 OFFCURVE",
"732 -14 CURVE SMOOTH",
"839 -14 OFFCURVE",
"935 8 OFFCURVE",
"1020 52 CURVE SMOOTH",
"1105 97 OFFCURVE",
"1175 159 OFFCURVE",
"1231 239 CURVE",
"1231 -8 LINE",
"2091 -8 LINE",
"2092 158 LINE",
"1403 158 LINE",
"1403 647 LINE",
"1961 647 LINE",
"1961 799 LINE",
"1403 799 LINE",
"1403 1275 LINE",
"2091 1275 LINE"
);
},
{
closed = 1;
nodes = (
"1209 628 OFFCURVE",
"1198 549 OFFCURVE",
"1177 479 CURVE SMOOTH",
"1156 408 OFFCURVE",
"1125 349 OFFCURVE",
"1086 300 CURVE SMOOTH",
"1046 251 OFFCURVE",
"998 213 OFFCURVE",
"942 187 CURVE SMOOTH",
"885 161 OFFCURVE",
"822 148 OFFCURVE",
"753 148 CURVE SMOOTH",
"683 148 OFFCURVE",
"620 161 OFFCURVE",
"564 187 CURVE SMOOTH",
"507 213 OFFCURVE",
"459 251 OFFCURVE",
"419 300 CURVE SMOOTH",
"379 349 OFFCURVE",
"348 408 OFFCURVE",
"327 479 CURVE SMOOTH",
"305 549 OFFCURVE",
"294 628 OFFCURVE",
"294 716 CURVE SMOOTH",
"294 804 OFFCURVE",
"305 883 OFFCURVE",
"327 954 CURVE SMOOTH",
"348 1024 OFFCURVE",
"379 1084 OFFCURVE",
"419 1133 CURVE SMOOTH",
"459 1182 OFFCURVE",
"507 1220 OFFCURVE",
"564 1247 CURVE SMOOTH",
"620 1273 OFFCURVE",
"683 1286 OFFCURVE",
"753 1286 CURVE SMOOTH",
"822 1286 OFFCURVE",
"885 1273 OFFCURVE",
"942 1247 CURVE SMOOTH",
"998 1220 OFFCURVE",
"1046 1182 OFFCURVE",
"1086 1133 CURVE SMOOTH",
"1125 1084 OFFCURVE",
"1156 1024 OFFCURVE",
"1177 954 CURVE SMOOTH",
"1198 883 OFFCURVE",
"1209 804 OFFCURVE",
"1209 716 CURVE SMOOTH"
);
}
);
width = 2181;
}
);
leftKerningGroup = C;
rightKerningGroup = AE;
unicode = 0152;
},
{
glyphname = P;
layers = (
{
layerId = "E7469244-AD98-4857-BCFE-AC0111B942FA";
name = Regular;
paths = (
{
closed = 1;
nodes = (
"376 536 LINE",
"606 536 LINE SMOOTH",
"693 536 OFFCURVE",
"769 547 OFFCURVE",
"836 570 CURVE SMOOTH",
"902 592 OFFCURVE",
"958 623 OFFCURVE",
"1003 663 CURVE SMOOTH",
"1048 703 OFFCURVE",
"1082 751 OFFCURVE",
"1105 806 CURVE SMOOTH",
"1128 861 OFFCURVE",
"1140 922 OFFCURVE",
"1140 989 CURVE SMOOTH",
"1140 1056 OFFCURVE",
"1129 1117 OFFCURVE",
"1108 1172 CURVE SMOOTH",
"1086 1227 OFFCURVE",
"1053 1273 OFFCURVE",
"1009 1312 CURVE SMOOTH",
"965 1351 OFFCURVE",
"910 1381 OFFCURVE",
"843 1402 CURVE SMOOTH",
"776 1423 OFFCURVE",
"697 1433 OFFCURVE",
"606 1433 CURVE SMOOTH",
"183 1433 LINE",
"183 0 LINE",
"376 0 LINE"
);
},
{
closed = 1;
nodes = (
"376 690 LINE",
"376 1280 LINE",
"606 1280 LINE SMOOTH",
"721 1280 OFFCURVE",
"806 1254 OFFCURVE",
"863 1203 CURVE SMOOTH",
"919 1152 OFFCURVE",
"947 1080 OFFCURVE",
"947 989 CURVE SMOOTH",
"947 945 OFFCURVE",
"940 905 OFFCURVE",
"925 868 CURVE SMOOTH",
"910 831 OFFCURVE",
"889 800 OFFCURVE",
"860 774 CURVE SMOOTH",
"831 747 OFFCURVE",
"795 727 OFFCURVE",
"753 712 CURVE SMOOTH",
"710 697 OFFCURVE",
"661 690 OFFCURVE",
"606 690 CURVE SMOOTH"
);
}
);
width = 1201;
}
);
leftKerningGroup = B;
rightKerningGroup = P;
unicode = 0050;
},
{
glyphname = Thorn;
layers = (
{
layerId = "E7469244-AD98-4857-BCFE-AC0111B942FA";
name = Regular;
paths = (
{
closed = 1;
nodes = (
"376 272 LINE",
"606 272 LINE SMOOTH",
"693 272 OFFCURVE",
"769 283 OFFCURVE",
"836 306 CURVE SMOOTH",
"902 328 OFFCURVE",
"958 359 OFFCURVE",
"1003 399 CURVE SMOOTH",
"1048 439 OFFCURVE",
"1082 487 OFFCURVE",
"1105 542 CURVE SMOOTH",
"1128 597 OFFCURVE",
"1140 658 OFFCURVE",
"1140 725 CURVE SMOOTH",
"1140 792 OFFCURVE",
"1129 853 OFFCURVE",
"1108 908 CURVE SMOOTH",
"1086 963 OFFCURVE",
"1053 1009 OFFCURVE",
"1009 1048 CURVE SMOOTH",
"965 1087 OFFCURVE",
"910 1117 OFFCURVE",
"843 1138 CURVE SMOOTH",
"776 1159 OFFCURVE",
"697 1169 OFFCURVE",
"606 1169 CURVE SMOOTH",
"376 1169 LINE",
"376 1433 LINE",
"183 1433 LINE",
"183 0 LINE",
"376 0 LINE"
);
},
{
closed = 1;
nodes = (
"376 426 LINE",
"376 1016 LINE",
"606 1016 LINE SMOOTH",
"721 1016 OFFCURVE",
"806 990 OFFCURVE",
"863 939 CURVE SMOOTH",
"919 888 OFFCURVE",
"947 816 OFFCURVE",
"947 725 CURVE SMOOTH",
"947 681 OFFCURVE",
"940 641 OFFCURVE",
"925 604 CURVE SMOOTH",
"910 567 OFFCURVE",
"889 536 OFFCURVE",
"860 510 CURVE SMOOTH",
"831 483 OFFCURVE",
"795 463 OFFCURVE",
"753 448 CURVE SMOOTH",
"710 433 OFFCURVE",
"661 426 OFFCURVE",
"606 426 CURVE SMOOTH"
);
}
);
width = 1197;
}
);
leftKerningGroup = B;
rightKerningGroup = Thorn;
unicode = 00DE;
},
{
glyphname = Q;
layers = (
{
layerId = "E7469244-AD98-4857-BCFE-AC0111B942FA";
name = Regular;
paths = (
{
closed = 1;
nodes = (
"1549 0 LINE",
"1336 216 LINE",
"1387 275 OFFCURVE",
"1427 343 OFFCURVE",
"1456 421 CURVE SMOOTH",
"1490 510 OFFCURVE",
"1507 609 OFFCURVE",
"1507 716 CURVE SMOOTH",
"1507 823 OFFCURVE",
"1490 922 OFFCURVE",
"1456 1012 CURVE SMOOTH",
"1422 1101 OFFCURVE",
"1374 1179 OFFCURVE",
"1312 1244 CURVE SMOOTH",
"1250 1309 OFFCURVE",
"1176 1359 OFFCURVE",
"1089 1395 CURVE SMOOTH",
"1002 1431 OFFCURVE",
"905 1449 OFFCURVE",
"800 1449 CURVE SMOOTH",
"695 1449 OFFCURVE",
"599 1431 OFFCURVE",
"512 1395 CURVE SMOOTH",
"425 1359 OFFCURVE",
"351 1309 OFFCURVE",
"289 1244 CURVE SMOOTH",
"227 1179 OFFCURVE",
"179 1101 OFFCURVE",
"145 1012 CURVE SMOOTH",
"111 922 OFFCURVE",
"94 823 OFFCURVE",
"94 716 CURVE SMOOTH",
"94 609 OFFCURVE",
"111 510 OFFCURVE",
"145 421 CURVE SMOOTH",
"179 331 OFFCURVE",
"227 254 OFFCURVE",
"289 189 CURVE SMOOTH",
"351 124 OFFCURVE",
"425 74 OFFCURVE",
"512 39 CURVE SMOOTH",
"599 3 OFFCURVE",
"695 -15 OFFCURVE",
"800 -15 CURVE SMOOTH",
"905 -15 OFFCURVE",
"1002 3 OFFCURVE",
"1089 39 CURVE SMOOTH",
"1134 57 OFFCURVE",
"1175 79 OFFCURVE",
"1212 105 CURVE",
"1317 0 LINE"
);
},
{
closed = 1;
nodes = (
"947 166 OFFCURVE",
"877 153 OFFCURVE",
"800 153 CURVE SMOOTH",
"723 153 OFFCURVE",
"654 166 OFFCURVE",
"591 192 CURVE SMOOTH",
"528 217 OFFCURVE",
"475 254 OFFCURVE",
"431 303 CURVE SMOOTH",
"386 351 OFFCURVE",
"352 410 OFFCURVE",
"328 480 CURVE SMOOTH",
"304 549 OFFCURVE",
"292 628 OFFCURVE",
"292 716 CURVE SMOOTH",
"292 804 OFFCURVE",
"304 883 OFFCURVE",
"328 953 CURVE SMOOTH",
"352 1023 OFFCURVE",
"386 1082 OFFCURVE",
"431 1131 CURVE SMOOTH",
"475 1179 OFFCURVE",
"528 1216 OFFCURVE",
"591 1242 CURVE SMOOTH",
"654 1268 OFFCURVE",
"723 1281 OFFCURVE",
"800 1281 CURVE SMOOTH",
"877 1281 OFFCURVE",
"947 1268 OFFCURVE",
"1010 1242 CURVE SMOOTH",
"1073 1216 OFFCURVE",
"1126 1179 OFFCURVE",
"1170 1131 CURVE SMOOTH",
"1214 1082 OFFCURVE",
"1248 1023 OFFCURVE",
"1272 953 CURVE SMOOTH",
"1296 883 OFFCURVE",
"1308 804 OFFCURVE",
"1308 716 CURVE SMOOTH",
"1308 628 OFFCURVE",
"1296 549 OFFCURVE",
"1272 480 CURVE SMOOTH",
"1255 430 OFFCURVE",
"1233 386 OFFCURVE",
"1206 348 CURVE",
"1127 428 LINE",
"893 424 LINE",
"1086 231 LINE",
"1062 216 OFFCURVE",
"1037 203 OFFCURVE",
"1010 192 CURVE SMOOTH"
);
}
);
width = 1601;
}
);
leftKerningGroup = C;
rightKerningGroup = O;
unicode = 0051;
},
{
glyphname = R;
layers = (
{
layerId = "E7469244-AD98-4857-BCFE-AC0111B942FA";
name = Regular;
paths = (
{
closed = 1;
nodes = (
"376 598 LINE",
"523 598 LINE SMOOTH",
"550 598 OFFCURVE",
"571 595 OFFCURVE",
"584 588 CURVE SMOOTH",
"597 581 OFFCURVE",
"609 569 OFFCURVE",
"620 553 CURVE SMOOTH",
"1025 0 LINE",
"1242 0 LINE",
"776 630 LINE",
"831 642 OFFCURVE",
"865 661 OFFCURVE",
"909 686 CURVE SMOOTH",
"952 711 OFFCURVE",
"989 741 OFFCURVE",
"1020 776 CURVE SMOOTH",
"1050 811 OFFCURVE",
"1073 850 OFFCURVE",
"1089 894 CURVE SMOOTH",
"1105 938 OFFCURVE",
"1113 985 OFFCURVE",
"1113 1036 CURVE SMOOTH",
"1113 1097 OFFCURVE",
"1103 1152 OFFCURVE",
"1082 1201 CURVE SMOOTH",
"1061 1250 OFFCURVE",
"1030 1291 OFFCURVE",
"987 1326 CURVE SMOOTH",
"944 1361 OFFCURVE",
"889 1387 OFFCURVE",
"823 1406 CURVE SMOOTH",
"757 1424 OFFCURVE",
"679 1433 OFFCURVE",
"588 1433 CURVE SMOOTH",
"183 1433 LINE",
"183 0 LINE",
"376 0 LINE"
);
},
{
closed = 1;
nodes = (
"376 739 LINE",
"376 1280 LINE",
"588 1280 LINE SMOOTH",
"700 1280 OFFCURVE",
"784 1258 OFFCURVE",
"840 1215 CURVE SMOOTH",
"896 1172 OFFCURVE",
"924 1107 OFFCURVE",
"924 1022 CURVE SMOOTH",
"924 980 OFFCURVE",
"917 942 OFFCURVE",
"902 907 CURVE SMOOTH",
"887 872 OFFCURVE",
"866 843 OFFCURVE",
"837 818 CURVE SMOOTH",
"808 793 OFFCURVE",
"772 773 OFFCURVE",
"729 760 CURVE SMOOTH",
"686 746 OFFCURVE",
"636 739 OFFCURVE",
"580 739 CURVE SMOOTH"
);
}
);
width = 1253;
}
);
leftKerningGroup = B;
rightKerningGroup = R;
unicode = 0052;
},
{
glyphname = S;
layers = (
{
layerId = "E7469244-AD98-4857-BCFE-AC0111B942FA";
name = Regular;
paths = (
{
closed = 1;
nodes = (
"963 1301 LINE",
"913 1349 OFFCURVE",
"855 1386 OFFCURVE",
"790 1411 CURVE SMOOTH",
"724 1436 OFFCURVE",
"651 1449 OFFCURVE",
"571 1449 CURVE SMOOTH",
"500 1449 OFFCURVE",
"437 1438 OFFCURVE",
"382 1416 CURVE SMOOTH",
"327 1394 OFFCURVE",
"280 1365 OFFCURVE",
"243 1328 CURVE SMOOTH",
"205 1291 OFFCURVE",
"176 1249 OFFCURVE",
"157 1202 CURVE SMOOTH",
"137 1155 OFFCURVE",
"127 1106 OFFCURVE",
"127 1055 CURVE SMOOTH",
"127 992 OFFCURVE",
"137 939 OFFCURVE",
"157 896 CURVE SMOOTH",
"176 853 OFFCURVE",
"202 817 OFFCURVE",
"234 788 CURVE SMOOTH",
"266 759 OFFCURVE",
"303 736 OFFCURVE",
"344 718 CURVE SMOOTH",
"385 700 OFFCURVE",
"427 684 OFFCURVE",
"470 671 CURVE SMOOTH",
"513 657 OFFCURVE",
"555 644 OFFCURVE",
"596 631 CURVE SMOOTH",
"637 618 OFFCURVE",
"674 602 OFFCURVE",
"706 583 CURVE SMOOTH",
"738 564 OFFCURVE",
"764 541 OFFCURVE",
"784 514 CURVE",
"803 486 OFFCURVE",
"813 450 OFFCURVE",
"813 407 CURVE SMOOTH",
"813 368 OFFCURVE",
"806 332 OFFCURVE",
"793 300 CURVE SMOOTH",
"780 268 OFFCURVE",
"761 241 OFFCURVE",
"736 218 CURVE SMOOTH",
"711 195 OFFCURVE",
"680 177 OFFCURVE",
"644 164 CURVE SMOOTH",
"608 151 OFFCURVE",
"567 145 OFFCURVE",
"521 145 CURVE SMOOTH",
"484 145 OFFCURVE",
"451 149 OFFCURVE",
"422 156 CURVE SMOOTH",
"393 163 OFFCURVE",
"367 171 OFFCURVE",
"344 182 CURVE SMOOTH",
"321 193 OFFCURVE",
"300 204 OFFCURVE",
"282 217 CURVE SMOOTH",
"264 230 OFFCURVE",
"248 241 OFFCURVE",
"234 252 CURVE SMOOTH",
"220 263 OFFCURVE",
"208 272 OFFCURVE",
"197 279 CURVE SMOOTH",
"186 286 OFFCURVE",
"176 289 OFFCURVE",
"167 289 CURVE SMOOTH",
"158 289 OFFCURVE",
"149 287 OFFCURVE",
"142 282 CURVE",
"134 277 OFFCURVE",
"127 270 OFFCURVE",
"122 263 CURVE",
"66 171 LINE",
"120 114 OFFCURVE",
"185 68 OFFCURVE",
"261 34 CURVE SMOOTH",
"337 1 OFFCURVE",
"422 -16 OFFCURVE",
"515 -16 CURVE SMOOTH",
"591 -16 OFFCURVE",
"659 -4 OFFCURVE",
"719 19 CURVE SMOOTH",
"778 42 OFFCURVE",
"829 74 OFFCURVE",
"870 115 CURVE SMOOTH",
"911 156 OFFCURVE",
"942 204 OFFCURVE",
"963 259 CURVE SMOOTH",
"984 314 OFFCURVE",
"995 372 OFFCURVE",
"995 435 CURVE SMOOTH",
"995 494 OFFCURVE",
"985 544 OFFCURVE",
"966 585 CURVE SMOOTH",
"946 626 OFFCURVE",
"920 660 OFFCURVE",
"888 688 CURVE SMOOTH",
"855 716 OFFCURVE",
"819 739 OFFCURVE",
"778 758 CURVE SMOOTH",
"737 776 OFFCURVE",
"695 792 OFFCURVE",
"652 807 CURVE SMOOTH",
"609 822 OFFCURVE",
"567 836 OFFCURVE",
"526 850 CURVE SMOOTH",
"485 863 OFFCURVE",
"448 879 OFFCURVE",
"416 898 CURVE SMOOTH",
"383 917 OFFCURVE",
"357 939 OFFCURVE",
"338 966 CURVE",
"318 992 OFFCURVE",
"308 1025 OFFCURVE",
"308 1065 CURVE SMOOTH",
"308 1096 OFFCURVE",
"314 1126 OFFCURVE",
"325 1153 CURVE SMOOTH",
"336 1180 OFFCURVE",
"353 1203 OFFCURVE",
"376 1223 CURVE SMOOTH",
"398 1243 OFFCURVE",
"426 1259 OFFCURVE",
"459 1271 CURVE SMOOTH",
"492 1282 OFFCURVE",
"530 1288 OFFCURVE",
"573 1288 CURVE SMOOTH",
"619 1288 OFFCURVE",
"658 1282 OFFCURVE",
"691 1271 CURVE SMOOTH",
"723 1260 OFFCURVE",
"751 1247 OFFCURVE",
"774 1234 CURVE SMOOTH",
"797 1220 OFFCURVE",
"816 1207 OFFCURVE",
"831 1196 CURVE SMOOTH",
"846 1185 OFFCURVE",
"860 1179 OFFCURVE",
"871 1179 CURVE SMOOTH",
"881 1179 OFFCURVE",
"890 1182 OFFCURVE",
"897 1187 CURVE SMOOTH",
"904 1192 OFFCURVE",
"910 1199 OFFCURVE",
"916 1209 CURVE"
);
}
);
width = 1085;
}
);
leftKerningGroup = S;
rightKerningGroup = S;
unicode = 0053;
},
{
glyphname = T;
layers = (
{
layerId = "E7469244-AD98-4857-BCFE-AC0111B942FA";
name = Regular;
paths = (
{
closed = 1;
nodes = (
"1152 1433 LINE",
"30 1433 LINE",
"30 1270 LINE",
"495 1270 LINE",
"495 0 LINE",
"688 0 LINE",
"688 1270 LINE",
"1152 1270 LINE"
);
}
);
width = 1181;
}
);
leftKerningGroup = T;
rightKerningGroup = T;
unicode = 0054;
},
{
glyphname = U;
layers = (
{
layerId = "E7469244-AD98-4857-BCFE-AC0111B942FA";
name = Regular;
paths = (
{
closed = 1;
nodes = (
"677 154 OFFCURVE",
"624 164 OFFCURVE",
"577 185 CURVE SMOOTH",
"530 205 OFFCURVE",
"490 233 OFFCURVE",
"458 269 CURVE SMOOTH",
"425 305 OFFCURVE",
"401 348 OFFCURVE",
"384 398 CURVE SMOOTH",
"367 448 OFFCURVE",
"358 503 OFFCURVE",
"358 563 CURVE SMOOTH",
"358 1433 LINE",
"165 1433 LINE",
"165 562 LINE SMOOTH",
"165 479 OFFCURVE",
"178 403 OFFCURVE",
"205 332 CURVE SMOOTH",
"231 261 OFFCURVE",
"269 200 OFFCURVE",
"318 149 CURVE SMOOTH",
"367 97 OFFCURVE",
"427 56 OFFCURVE",
"498 27 CURVE SMOOTH",
"569 -2 OFFCURVE",
"648 -17 OFFCURVE",
"736 -17 CURVE SMOOTH",
"824 -17 OFFCURVE",
"903 -2 OFFCURVE",
"974 27 CURVE SMOOTH",
"1045 56 OFFCURVE",
"1105 97 OFFCURVE",
"1154 149 CURVE SMOOTH",
"1203 200 OFFCURVE",
"1240 261 OFFCURVE",
"1267 332 CURVE SMOOTH",
"1293 403 OFFCURVE",
"1306 479 OFFCURVE",
"1306 562 CURVE SMOOTH",
"1306 1433 LINE",
"1113 1433 LINE",
"1113 562 LINE SMOOTH",
"1113 502 OFFCURVE",
"1105 447 OFFCURVE",
"1088 397 CURVE SMOOTH",
"1071 347 OFFCURVE",
"1046 304 OFFCURVE",
"1014 268 CURVE SMOOTH",
"981 232 OFFCURVE",
"942 204 OFFCURVE",
"895 184 CURVE SMOOTH",
"848 164 OFFCURVE",
"795 154 OFFCURVE",
"736 154 CURVE SMOOTH"
);
}
);
width = 1471;
}
);
leftKerningGroup = U;
rightKerningGroup = U;
unicode = 0055;
},
{
glyphname = Uacute;
layers = (
{
layerId = "E7469244-AD98-4857-BCFE-AC0111B942FA";
name = Regular;
paths = (
{
closed = 1;
nodes = (
"677 154 OFFCURVE",
"624 164 OFFCURVE",
"577 185 CURVE SMOOTH",
"530 205 OFFCURVE",
"490 233 OFFCURVE",
"458 269 CURVE SMOOTH",
"425 305 OFFCURVE",
"401 348 OFFCURVE",
"384 398 CURVE SMOOTH",
"367 448 OFFCURVE",
"358 503 OFFCURVE",
"358 563 CURVE SMOOTH",
"358 1433 LINE",
"165 1433 LINE",
"165 562 LINE SMOOTH",
"165 479 OFFCURVE",
"178 403 OFFCURVE",
"205 332 CURVE SMOOTH",
"231 261 OFFCURVE",
"269 200 OFFCURVE",
"318 149 CURVE SMOOTH",
"367 97 OFFCURVE",
"427 56 OFFCURVE",
"498 27 CURVE SMOOTH",
"569 -2 OFFCURVE",
"648 -17 OFFCURVE",
"736 -17 CURVE SMOOTH",
"824 -17 OFFCURVE",
"903 -2 OFFCURVE",
"974 27 CURVE SMOOTH",
"1045 56 OFFCURVE",
"1105 97 OFFCURVE",
"1154 149 CURVE SMOOTH",
"1203 200 OFFCURVE",
"1240 261 OFFCURVE",
"1267 332 CURVE SMOOTH",
"1293 403 OFFCURVE",
"1306 479 OFFCURVE",
"1306 562 CURVE SMOOTH",
"1306 1433 LINE",
"1113 1433 LINE",
"1113 562 LINE SMOOTH",
"1113 502 OFFCURVE",
"1105 447 OFFCURVE",
"1088 397 CURVE SMOOTH",
"1071 347 OFFCURVE",
"1046 304 OFFCURVE",
"1014 268 CURVE SMOOTH",
"981 232 OFFCURVE",
"942 204 OFFCURVE",
"895 184 CURVE SMOOTH",
"848 164 OFFCURVE",
"795 154 OFFCURVE",
"736 154 CURVE SMOOTH"
);
},
{
closed = 1;
nodes = (
"1114 1852 LINE",
"913 1852 LINE SMOOTH",
"891 1852 OFFCURVE",
"874 1850 OFFCURVE",
"863 1847 CURVE SMOOTH",
"851 1844 OFFCURVE",
"839 1835 OFFCURVE",
"828 1820 CURVE",
"597 1546 LINE",
"725 1546 LINE SMOOTH",
"738 1546 OFFCURVE",
"750 1547 OFFCURVE",
"759 1549 CURVE SMOOTH",
"768 1551 OFFCURVE",
"778 1557 OFFCURVE",
"788 1566 CURVE SMOOTH"
);
}
);
width = 1471;
}
);
leftKerningGroup = U;
rightKerningGroup = U;
unicode = 00DA;
},
{
glyphname = Ucircumflex;
layers = (
{
layerId = "E7469244-AD98-4857-BCFE-AC0111B942FA";
name = Regular;
paths = (
{
closed = 1;
nodes = (
"677 154 OFFCURVE",
"624 164 OFFCURVE",
"577 185 CURVE SMOOTH",
"530 205 OFFCURVE",
"490 233 OFFCURVE",
"458 269 CURVE SMOOTH",
"425 305 OFFCURVE",
"401 348 OFFCURVE",
"384 398 CURVE SMOOTH",
"367 448 OFFCURVE",
"358 503 OFFCURVE",
"358 563 CURVE SMOOTH",
"358 1433 LINE",
"165 1433 LINE",
"165 562 LINE SMOOTH",
"165 479 OFFCURVE",
"178 403 OFFCURVE",
"205 332 CURVE SMOOTH",
"231 261 OFFCURVE",
"269 200 OFFCURVE",
"318 149 CURVE SMOOTH",
"367 97 OFFCURVE",
"427 56 OFFCURVE",
"498 27 CURVE SMOOTH",
"569 -2 OFFCURVE",
"648 -17 OFFCURVE",
"736 -17 CURVE SMOOTH",
"824 -17 OFFCURVE",
"903 -2 OFFCURVE",
"974 27 CURVE SMOOTH",
"1045 56 OFFCURVE",
"1105 97 OFFCURVE",
"1154 149 CURVE SMOOTH",
"1203 200 OFFCURVE",
"1240 261 OFFCURVE",
"1267 332 CURVE SMOOTH",
"1293 403 OFFCURVE",
"1306 479 OFFCURVE",
"1306 562 CURVE SMOOTH",
"1306 1433 LINE",
"1113 1433 LINE",
"1113 562 LINE SMOOTH",
"1113 502 OFFCURVE",
"1105 447 OFFCURVE",
"1088 397 CURVE SMOOTH",
"1071 347 OFFCURVE",
"1046 304 OFFCURVE",
"1014 268 CURVE SMOOTH",
"981 232 OFFCURVE",
"942 204 OFFCURVE",
"895 184 CURVE SMOOTH",
"848 164 OFFCURVE",
"795 154 OFFCURVE",
"736 154 CURVE SMOOTH"
);
},
{
closed = 1;
nodes = (
"1057 1546 LINE",
"819 1817 LINE",
"659 1817 LINE",
"420 1546 LINE",
"545 1546 LINE SMOOTH",
"553 1546 OFFCURVE",
"563 1548 OFFCURVE",
"574 1551 CURVE SMOOTH",
"585 1554 OFFCURVE",
"596 1562 OFFCURVE",
"607 1575 CURVE SMOOTH",
"724 1716 LINE",
"736 1733 LINE",
"740 1727 OFFCURVE",
"744 1721 OFFCURVE",
"748 1716 CURVE SMOOTH",
"865 1575 LINE SMOOTH",
"876 1562 OFFCURVE",
"888 1554 OFFCURVE",
"899 1551 CURVE SMOOTH",
"910 1548 OFFCURVE",
"919 1546 OFFCURVE",
"927 1546 CURVE SMOOTH"
);
}
);
width = 1471;
}
);
leftKerningGroup = U;
rightKerningGroup = U;
unicode = 00DB;
},
{
glyphname = Udieresis;
layers = (
{
layerId = "E7469244-AD98-4857-BCFE-AC0111B942FA";
name = Regular;
paths = (
{
closed = 1;
nodes = (
"677 154 OFFCURVE",
"624 164 OFFCURVE",
"577 185 CURVE SMOOTH",
"530 205 OFFCURVE",
"490 233 OFFCURVE",
"458 269 CURVE SMOOTH",
"425 305 OFFCURVE",
"401 348 OFFCURVE",
"384 398 CURVE SMOOTH",
"367 448 OFFCURVE",
"358 503 OFFCURVE",
"358 563 CURVE SMOOTH",
"358 1433 LINE",
"165 1433 LINE",
"165 562 LINE SMOOTH",
"165 479 OFFCURVE",
"178 403 OFFCURVE",
"205 332 CURVE SMOOTH",
"231 261 OFFCURVE",
"269 200 OFFCURVE",
"318 149 CURVE SMOOTH",
"367 97 OFFCURVE",
"427 56 OFFCURVE",
"498 27 CURVE SMOOTH",
"569 -2 OFFCURVE",
"648 -17 OFFCURVE",
"736 -17 CURVE SMOOTH",
"824 -17 OFFCURVE",
"903 -2 OFFCURVE",
"974 27 CURVE SMOOTH",
"1045 56 OFFCURVE",
"1105 97 OFFCURVE",
"1154 149 CURVE SMOOTH",
"1203 200 OFFCURVE",
"1240 261 OFFCURVE",
"1267 332 CURVE SMOOTH",
"1293 403 OFFCURVE",
"1306 479 OFFCURVE",
"1306 562 CURVE SMOOTH",
"1306 1433 LINE",
"1113 1433 LINE",
"1113 562 LINE SMOOTH",
"1113 502 OFFCURVE",
"1105 447 OFFCURVE",
"1088 397 CURVE SMOOTH",
"1071 347 OFFCURVE",
"1046 304 OFFCURVE",
"1014 268 CURVE SMOOTH",
"981 232 OFFCURVE",
"942 204 OFFCURVE",
"895 184 CURVE SMOOTH",
"848 164 OFFCURVE",
"795 154 OFFCURVE",
"736 154 CURVE SMOOTH"
);
},
{
closed = 1;
nodes = (
"637 1681 OFFCURVE",
"634 1696 OFFCURVE",
"628 1710 CURVE SMOOTH",
"622 1723 OFFCURVE",
"614 1735 OFFCURVE",
"604 1745 CURVE",
"593 1755 OFFCURVE",
"581 1763 OFFCURVE",
"568 1769 CURVE SMOOTH",
"554 1775 OFFCURVE",
"540 1778 OFFCURVE",
"525 1778 CURVE SMOOTH",
"511 1778 OFFCURVE",
"498 1775 OFFCURVE",
"485 1769 CURVE SMOOTH",
"472 1763 OFFCURVE",
"460 1755 OFFCURVE",
"450 1745 CURVE SMOOTH",
"440 1735 OFFCURVE",
"432 1723 OFFCURVE",
"426 1710 CURVE SMOOTH",
"420 1696 OFFCURVE",
"417 1681 OFFCURVE",
"417 1666 CURVE SMOOTH",
"417 1651 OFFCURVE",
"420 1638 OFFCURVE",
"426 1625 CURVE SMOOTH",
"432 1612 OFFCURVE",
"440 1600 OFFCURVE",
"450 1590 CURVE SMOOTH",
"460 1580 OFFCURVE",
"472 1572 OFFCURVE",
"485 1567 CURVE",
"498 1561 OFFCURVE",
"511 1558 OFFCURVE",
"525 1558 CURVE SMOOTH",
"540 1558 OFFCURVE",
"554 1561 OFFCURVE",
"568 1567 CURVE",
"581 1572 OFFCURVE",
"593 1580 OFFCURVE",
"604 1590 CURVE",
"614 1600 OFFCURVE",
"622 1612 OFFCURVE",
"628 1625 CURVE SMOOTH",
"634 1638 OFFCURVE",
"637 1651 OFFCURVE",
"637 1666 CURVE SMOOTH"
);
},
{
closed = 1;
nodes = (
"1055 1681 OFFCURVE",
"1052 1696 OFFCURVE",
"1046 1710 CURVE SMOOTH",
"1040 1723 OFFCURVE",
"1032 1735 OFFCURVE",
"1022 1745 CURVE SMOOTH",
"1012 1755 OFFCURVE",
"1000 1763 OFFCURVE",
"987 1769 CURVE SMOOTH",
"974 1775 OFFCURVE",
"960 1778 OFFCURVE",
"945 1778 CURVE SMOOTH",
"930 1778 OFFCURVE",
"915 1775 OFFCURVE",
"902 1769 CURVE SMOOTH",
"889 1763 OFFCURVE",
"877 1755 OFFCURVE",
"867 1745 CURVE SMOOTH",
"857 1735 OFFCURVE",
"849 1723 OFFCURVE",
"844 1710 CURVE",
"838 1696 OFFCURVE",
"835 1681 OFFCURVE",
"835 1666 CURVE SMOOTH",
"835 1651 OFFCURVE",
"838 1638 OFFCURVE",
"844 1625 CURVE",
"849 1612 OFFCURVE",
"857 1600 OFFCURVE",
"867 1590 CURVE SMOOTH",
"877 1580 OFFCURVE",
"889 1572 OFFCURVE",
"902 1567 CURVE",
"915 1561 OFFCURVE",
"930 1558 OFFCURVE",
"945 1558 CURVE SMOOTH",
"960 1558 OFFCURVE",
"974 1561 OFFCURVE",
"987 1567 CURVE",
"1000 1572 OFFCURVE",
"1012 1580 OFFCURVE",
"1022 1590 CURVE SMOOTH",
"1032 1600 OFFCURVE",
"1040 1612 OFFCURVE",
"1046 1625 CURVE SMOOTH",
"1052 1638 OFFCURVE",
"1055 1651 OFFCURVE",
"1055 1666 CURVE SMOOTH"
);
}
);
width = 1471;
}
);
leftKerningGroup = U;
rightKerningGroup = U;
unicode = 00DC;
},
{
glyphname = Ugrave;
layers = (
{
layerId = "E7469244-AD98-4857-BCFE-AC0111B942FA";
name = Regular;
paths = (
{
closed = 1;
nodes = (
"677 154 OFFCURVE",
"624 164 OFFCURVE",
"577 185 CURVE SMOOTH",
"530 205 OFFCURVE",
"490 233 OFFCURVE",
"458 269 CURVE SMOOTH",
"425 305 OFFCURVE",
"401 348 OFFCURVE",
"384 398 CURVE SMOOTH",
"367 448 OFFCURVE",
"358 503 OFFCURVE",
"358 563 CURVE SMOOTH",
"358 1433 LINE",
"165 1433 LINE",
"165 562 LINE SMOOTH",
"165 479 OFFCURVE",
"178 403 OFFCURVE",
"205 332 CURVE SMOOTH",
"231 261 OFFCURVE",
"269 200 OFFCURVE",
"318 149 CURVE SMOOTH",
"367 97 OFFCURVE",
"427 56 OFFCURVE",
"498 27 CURVE SMOOTH",
"569 -2 OFFCURVE",
"648 -17 OFFCURVE",
"736 -17 CURVE SMOOTH",
"824 -17 OFFCURVE",
"903 -2 OFFCURVE",
"974 27 CURVE SMOOTH",
"1045 56 OFFCURVE",
"1105 97 OFFCURVE",
"1154 149 CURVE SMOOTH",
"1203 200 OFFCURVE",
"1240 261 OFFCURVE",
"1267 332 CURVE SMOOTH",
"1293 403 OFFCURVE",
"1306 479 OFFCURVE",
"1306 562 CURVE SMOOTH",
"1306 1433 LINE",
"1113 1433 LINE",
"1113 562 LINE SMOOTH",
"1113 502 OFFCURVE",
"1105 447 OFFCURVE",
"1088 397 CURVE SMOOTH",
"1071 347 OFFCURVE",
"1046 304 OFFCURVE",
"1014 268 CURVE SMOOTH",
"981 232 OFFCURVE",
"942 204 OFFCURVE",
"895 184 CURVE SMOOTH",
"848 164 OFFCURVE",
"795 154 OFFCURVE",
"736 154 CURVE SMOOTH"
);
},
{
closed = 1;
nodes = (
"369 1852 LINE",
"681 1565 LINE SMOOTH",
"691 1556 OFFCURVE",
"700 1550 OFFCURVE",
"709 1549 CURVE",
"717 1547 OFFCURVE",
"728 1546 OFFCURVE",
"743 1546 CURVE SMOOTH",
"871 1546 LINE",
"643 1820 LINE",
"632 1835 OFFCURVE",
"620 1844 OFFCURVE",
"609 1847 CURVE SMOOTH",
"598 1850 OFFCURVE",
"581 1852 OFFCURVE",
"559 1852 CURVE SMOOTH"
);
}
);
width = 1471;
}
);
leftKerningGroup = U;
rightKerningGroup = U;
unicode = 00D9;
},
{
glyphname = V;
layers = (
{
layerId = "E7469244-AD98-4857-BCFE-AC0111B942FA";
name = Regular;
paths = (
{
closed = 1;
nodes = (
"6 1433 LINE",
"590 0 LINE",
"764 0 LINE",
"1348 1433 LINE",
"1193 1433 LINE SMOOTH",
"1176 1433 OFFCURVE",
"1162 1428 OFFCURVE",
"1151 1419 CURVE SMOOTH",
"1139 1409 OFFCURVE",
"1131 1398 OFFCURVE",
"1127 1387 CURVE SMOOTH",
"724 376 LINE SMOOTH",
"715 353 OFFCURVE",
"707 329 OFFCURVE",
"700 302 CURVE SMOOTH",
"692 275 OFFCURVE",
"685 248 OFFCURVE",
"679 219 CURVE",
"672 248 OFFCURVE",
"664 275 OFFCURVE",
"656 302 CURVE SMOOTH",
"648 329 OFFCURVE",
"640 353 OFFCURVE",
"631 376 CURVE SMOOTH",
"227 1387 LINE SMOOTH",
"222 1400 OFFCURVE",
"214 1411 OFFCURVE",
"203 1420 CURVE SMOOTH",
"192 1429 OFFCURVE",
"178 1433 OFFCURVE",
"161 1433 CURVE SMOOTH"
);
}
);
width = 1354;
}
);
leftKerningGroup = V;
rightKerningGroup = V;
unicode = 0056;
},
{
glyphname = W;
layers = (
{
layerId = "E7469244-AD98-4857-BCFE-AC0111B942FA";
name = Regular;
paths = (
{
closed = 1;
nodes = (
"31 1433 LINE",
"478 0 LINE",
"652 0 LINE",
"1017 1093 LINE SMOOTH",
"1020 1103 OFFCURVE",
"1024 1114 OFFCURVE",
"1027 1127 CURVE SMOOTH",
"1030 1139 OFFCURVE",
"1033 1152 OFFCURVE",
"1036 1165 CURVE",
"1042 1138 OFFCURVE",
"1049 1114 OFFCURVE",
"1056 1093 CURVE SMOOTH",
"1419 0 LINE",
"1593 0 LINE",
"2040 1433 LINE",
"1889 1433 LINE SMOOTH",
"1872 1433 OFFCURVE",
"1858 1428 OFFCURVE",
"1847 1419 CURVE",
"1835 1410 OFFCURVE",
"1827 1399 OFFCURVE",
"1824 1387 CURVE",
"1527 391 LINE SMOOTH",
"1522 374 OFFCURVE",
"1518 355 OFFCURVE",
"1514 335 CURVE SMOOTH",
"1510 315 OFFCURVE",
"1506 294 OFFCURVE",
"1502 273 CURVE",
"1498 294 OFFCURVE",
"1494 315 OFFCURVE",
"1489 335 CURVE SMOOTH",
"1484 355 OFFCURVE",
"1478 374 OFFCURVE",
"1472 391 CURVE SMOOTH",
"1136 1387 LINE",
"1131 1400 OFFCURVE",
"1123 1411 OFFCURVE",
"1112 1420 CURVE SMOOTH",
"1101 1429 OFFCURVE",
"1087 1433 OFFCURVE",
"1070 1433 CURVE SMOOTH",
"1014 1433 LINE SMOOTH",
"997 1433 OFFCURVE",
"983 1428 OFFCURVE",
"972 1419 CURVE SMOOTH",
"960 1409 OFFCURVE",
"952 1398 OFFCURVE",
"948 1387 CURVE SMOOTH",
"611 391 LINE SMOOTH",
"605 374 OFFCURVE",
"600 355 OFFCURVE",
"595 334 CURVE SMOOTH",
"590 313 OFFCURVE",
"585 291 OFFCURVE",
"580 268 CURVE",
"576 291 OFFCURVE",
"572 312 OFFCURVE",
"568 333 CURVE",
"563 354 OFFCURVE",
"559 373 OFFCURVE",
"554 391 CURVE SMOOTH",
"258 1387 LINE",
"255 1400 OFFCURVE",
"247 1411 OFFCURVE",
"236 1420 CURVE",
"224 1429 OFFCURVE",
"209 1433 OFFCURVE",
"192 1433 CURVE SMOOTH"
);
}
);
width = 2071;
}
);
leftKerningGroup = W;
rightKerningGroup = W;
unicode = 0057;
},
{
glyphname = X;
layers = (
{
layerId = "E7469244-AD98-4857-BCFE-AC0111B942FA";
name = Regular;
paths = (
{
closed = 1;
nodes = (
"513 736 LINE",
"20 0 LINE",
"200 0 LINE SMOOTH",
"213 0 OFFCURVE",
"224 4 OFFCURVE",
"232 12 CURVE SMOOTH",
"239 19 OFFCURVE",
"246 28 OFFCURVE",
"253 37 CURVE",
"627 598 LINE",
"634 611 OFFCURVE",
"640 624 OFFCURVE",
"645 638 CURVE",
"1029 37 LINE",
"1034 28 OFFCURVE",
"1041 19 OFFCURVE",
"1050 12 CURVE",
"1058 4 OFFCURVE",
"1069 0 OFFCURVE",
"1084 0 CURVE SMOOTH",
"1276 0 LINE",
"785 745 LINE",
"1260 1433 LINE",
"1075 1433 LINE SMOOTH",
"1065 1433 OFFCURVE",
"1056 1430 OFFCURVE",
"1049 1425 CURVE",
"1042 1419 OFFCURVE",
"1035 1411 OFFCURVE",
"1030 1402 CURVE",
"677 878 LINE",
"668 861 OFFCURVE",
"661 846 OFFCURVE",
"656 832 CURVE",
"282 1406 LINE",
"277 1415 OFFCURVE",
"271 1421 OFFCURVE",
"264 1426 CURVE SMOOTH",
"257 1431 OFFCURVE",
"247 1433 OFFCURVE",
"233 1433 CURVE SMOOTH",
"40 1433 LINE"
);
}
);
width = 1298;
}
);
leftKerningGroup = X;
rightKerningGroup = X;
unicode = 0058;
},
{
glyphname = Y;
layers = (
{
layerId = "E7469244-AD98-4857-BCFE-AC0111B942FA";
name = Regular;
paths = (
{
closed = 1;
nodes = (
"721 571 LINE",
"1246 1433 LINE",
"1075 1433 LINE SMOOTH",
"1058 1433 OFFCURVE",
"1045 1428 OFFCURVE",
"1034 1419 CURVE SMOOTH",
"1023 1410 OFFCURVE",
"1015 1399 OFFCURVE",
"1009 1388 CURVE SMOOTH",
"682 831 LINE",
"670 808 OFFCURVE",
"659 786 OFFCURVE",
"650 766 CURVE SMOOTH",
"641 745 OFFCURVE",
"632 725 OFFCURVE",
"625 705 CURVE",
"618 725 OFFCURVE",
"609 745 OFFCURVE",
"600 766 CURVE",
"590 786 OFFCURVE",
"579 808 OFFCURVE",
"567 831 CURVE",
"239 1388 LINE",
"232 1401 OFFCURVE",
"223 1412 OFFCURVE",
"213 1421 CURVE",
"203 1429 OFFCURVE",
"189 1433 OFFCURVE",
"172 1433 CURVE SMOOTH",
"2 1433 LINE",
"527 571 LINE",
"527 0 LINE",
"721 0 LINE"
);
}
);
width = 1248;
}
);
leftKerningGroup = Y;
rightKerningGroup = Y;
unicode = 0059;
},
{
glyphname = Yacute;
layers = (
{
layerId = "E7469244-AD98-4857-BCFE-AC0111B942FA";
name = Regular;
paths = (
{
closed = 1;
nodes = (
"721 571 LINE",
"1246 1433 LINE",
"1075 1433 LINE SMOOTH",
"1058 1433 OFFCURVE",
"1045 1428 OFFCURVE",
"1034 1419 CURVE SMOOTH",
"1023 1410 OFFCURVE",
"1015 1399 OFFCURVE",
"1009 1388 CURVE SMOOTH",
"682 831 LINE",
"670 808 OFFCURVE",
"659 786 OFFCURVE",
"650 766 CURVE SMOOTH",
"641 745 OFFCURVE",
"632 725 OFFCURVE",
"625 705 CURVE",
"618 725 OFFCURVE",
"609 745 OFFCURVE",
"600 766 CURVE",
"590 786 OFFCURVE",
"579 808 OFFCURVE",
"567 831 CURVE",
"239 1388 LINE",
"232 1401 OFFCURVE",
"223 1412 OFFCURVE",
"213 1421 CURVE",
"203 1429 OFFCURVE",
"189 1433 OFFCURVE",
"172 1433 CURVE SMOOTH",
"2 1433 LINE",
"527 571 LINE",
"527 0 LINE",
"721 0 LINE"
);
},
{
closed = 1;
nodes = (
"1004 1852 LINE",
"803 1852 LINE SMOOTH",
"781 1852 OFFCURVE",
"764 1850 OFFCURVE",
"753 1847 CURVE SMOOTH",
"741 1844 OFFCURVE",
"729 1835 OFFCURVE",
"718 1820 CURVE",
"487 1546 LINE",
"615 1546 LINE SMOOTH",
"628 1546 OFFCURVE",
"640 1547 OFFCURVE",
"649 1549 CURVE SMOOTH",
"658 1551 OFFCURVE",
"668 1557 OFFCURVE",
"678 1566 CURVE SMOOTH"
);
}
);
width = 1248;
}
);
leftKerningGroup = Y;
rightKerningGroup = Y;
unicode = 00DD;
},
{
glyphname = Ydieresis;
layers = (
{
layerId = "E7469244-AD98-4857-BCFE-AC0111B942FA";
name = Regular;
paths = (
{
closed = 1;
nodes = (
"721 571 LINE",
"1246 1433 LINE",
"1075 1433 LINE SMOOTH",
"1058 1433 OFFCURVE",
"1045 1428 OFFCURVE",
"1034 1419 CURVE SMOOTH",
"1023 1410 OFFCURVE",
"1015 1399 OFFCURVE",
"1009 1388 CURVE SMOOTH",
"682 831 LINE",
"670 808 OFFCURVE",
"659 786 OFFCURVE",
"650 766 CURVE SMOOTH",
"641 745 OFFCURVE",
"632 725 OFFCURVE",
"625 705 CURVE",
"618 725 OFFCURVE",
"609 745 OFFCURVE",
"600 766 CURVE",
"590 786 OFFCURVE",
"579 808 OFFCURVE",
"567 831 CURVE",
"239 1388 LINE",
"232 1401 OFFCURVE",
"223 1412 OFFCURVE",
"213 1421 CURVE",
"203 1429 OFFCURVE",
"189 1433 OFFCURVE",
"172 1433 CURVE SMOOTH",
"2 1433 LINE",
"527 571 LINE",
"527 0 LINE",
"721 0 LINE"
);
},
{
closed = 1;
nodes = (
"527 1681 OFFCURVE",
"524 1696 OFFCURVE",
"518 1710 CURVE SMOOTH",
"512 1723 OFFCURVE",
"504 1735 OFFCURVE",
"494 1745 CURVE",
"483 1755 OFFCURVE",
"471 1763 OFFCURVE",
"458 1769 CURVE SMOOTH",
"444 1775 OFFCURVE",
"430 1778 OFFCURVE",
"415 1778 CURVE SMOOTH",
"401 1778 OFFCURVE",
"388 1775 OFFCURVE",
"375 1769 CURVE SMOOTH",
"362 1763 OFFCURVE",
"350 1755 OFFCURVE",
"340 1745 CURVE SMOOTH",
"330 1735 OFFCURVE",
"322 1723 OFFCURVE",
"316 1710 CURVE SMOOTH",
"310 1696 OFFCURVE",
"307 1681 OFFCURVE",
"307 1666 CURVE SMOOTH",
"307 1651 OFFCURVE",
"310 1638 OFFCURVE",
"316 1625 CURVE SMOOTH",
"322 1612 OFFCURVE",
"330 1600 OFFCURVE",
"340 1590 CURVE SMOOTH",
"350 1580 OFFCURVE",
"362 1572 OFFCURVE",
"375 1567 CURVE",
"388 1561 OFFCURVE",
"401 1558 OFFCURVE",
"415 1558 CURVE SMOOTH",
"430 1558 OFFCURVE",
"444 1561 OFFCURVE",
"458 1567 CURVE",
"471 1572 OFFCURVE",
"483 1580 OFFCURVE",
"494 1590 CURVE",
"504 1600 OFFCURVE",
"512 1612 OFFCURVE",
"518 1625 CURVE SMOOTH",
"524 1638 OFFCURVE",
"527 1651 OFFCURVE",
"527 1666 CURVE SMOOTH"
);
},
{
closed = 1;
nodes = (
"945 1681 OFFCURVE",
"942 1696 OFFCURVE",
"936 1710 CURVE SMOOTH",
"930 1723 OFFCURVE",
"922 1735 OFFCURVE",
"912 1745 CURVE SMOOTH",
"902 1755 OFFCURVE",
"890 1763 OFFCURVE",
"877 1769 CURVE SMOOTH",
"864 1775 OFFCURVE",
"850 1778 OFFCURVE",
"835 1778 CURVE SMOOTH",
"820 1778 OFFCURVE",
"805 1775 OFFCURVE",
"792 1769 CURVE SMOOTH",
"779 1763 OFFCURVE",
"767 1755 OFFCURVE",
"757 1745 CURVE SMOOTH",
"747 1735 OFFCURVE",
"739 1723 OFFCURVE",
"734 1710 CURVE",
"728 1696 OFFCURVE",
"725 1681 OFFCURVE",
"725 1666 CURVE SMOOTH",
"725 1651 OFFCURVE",
"728 1638 OFFCURVE",
"734 1625 CURVE",
"739 1612 OFFCURVE",
"747 1600 OFFCURVE",
"757 1590 CURVE SMOOTH",
"767 1580 OFFCURVE",
"779 1572 OFFCURVE",
"792 1567 CURVE",
"805 1561 OFFCURVE",
"820 1558 OFFCURVE",
"835 1558 CURVE SMOOTH",
"850 1558 OFFCURVE",
"864 1561 OFFCURVE",
"877 1567 CURVE",
"890 1572 OFFCURVE",
"902 1580 OFFCURVE",
"912 1590 CURVE SMOOTH",
"922 1600 OFFCURVE",
"930 1612 OFFCURVE",
"936 1625 CURVE SMOOTH",
"942 1638 OFFCURVE",
"945 1651 OFFCURVE",
"945 1666 CURVE SMOOTH"
);
}
);
width = 1248;
}
);
leftKerningGroup = Y;
rightKerningGroup = Y;
unicode = 0178;
},
{
glyphname = Z;
layers = (
{
layerId = "E7469244-AD98-4857-BCFE-AC0111B942FA";
name = Regular;
paths = (
{
closed = 1;
nodes = (
"1139 1433 LINE",
"91 1433 LINE",
"91 1275 LINE",
"884 1275 LINE",
"72 133 LINE",
"67 124 OFFCURVE",
"62 115 OFFCURVE",
"59 106 CURVE",
"55 97 OFFCURVE",
"53 87 OFFCURVE",
"53 76 CURVE SMOOTH",
"53 0 LINE",
"1127 0 LINE",
"1127 158 LINE",
"307 158 LINE",
"1119 1297 LINE",
"1132 1318 OFFCURVE",
"1139 1339 OFFCURVE",
"1139 1361 CURVE SMOOTH"
);
}
);
width = 1204;
}
);
leftKerningGroup = Z;
rightKerningGroup = Z;
unicode = 005A;
},
{
glyphname = a;
layers = (
{
layerId = "E7469244-AD98-4857-BCFE-AC0111B942FA";
name = Regular;
paths = (
{
closed = 1;
nodes = (
"432 1031 OFFCURVE",
"361 1018 OFFCURVE",
"296 991 CURVE SMOOTH",
"231 964 OFFCURVE",
"171 924 OFFCURVE",
"115 870 CURVE",
"147 813 LINE",
"153 804 OFFCURVE",
"160 796 OFFCURVE",
"169 790 CURVE",
"178 783 OFFCURVE",
"188 780 OFFCURVE",
"200 780 CURVE SMOOTH",
"215 780 OFFCURVE",
"231 786 OFFCURVE",
"247 797 CURVE SMOOTH",
"262 808 OFFCURVE",
"281 820 OFFCURVE",
"303 834 CURVE SMOOTH",
"324 847 OFFCURVE",
"350 860 OFFCURVE",
"380 871 CURVE SMOOTH",
"409 882 OFFCURVE",
"446 887 OFFCURVE",
"490 887 CURVE SMOOTH",
"555 887 OFFCURVE",
"605 867 OFFCURVE",
"639 827 CURVE SMOOTH",
"673 786 OFFCURVE",
"690 727 OFFCURVE",
"690 648 CURVE SMOOTH",
"690 637 LINE",
"575 634 OFFCURVE",
"477 624 OFFCURVE",
"398 606 CURVE SMOOTH",
"319 587 OFFCURVE",
"254 564 OFFCURVE",
"205 535 CURVE SMOOTH",
"156 506 OFFCURVE",
"120 474 OFFCURVE",
"98 437 CURVE SMOOTH",
"76 400 OFFCURVE",
"65 378 OFFCURVE",
"65 270 CURVE SMOOTH",
"65 224 OFFCURVE",
"73 167 OFFCURVE",
"88 134 CURVE SMOOTH",
"103 100 OFFCURVE",
"123 72 OFFCURVE",
"149 50 CURVE SMOOTH",
"174 28 OFFCURVE",
"204 12 OFFCURVE",
"239 1 CURVE SMOOTH",
"274 -10 OFFCURVE",
"311 -16 OFFCURVE",
"350 -16 CURVE SMOOTH",
"389 -16 OFFCURVE",
"424 -12 OFFCURVE",
"456 -5 CURVE SMOOTH",
"487 2 OFFCURVE",
"517 12 OFFCURVE",
"545 25 CURVE SMOOTH",
"572 38 OFFCURVE",
"599 54 OFFCURVE",
"625 73 CURVE SMOOTH",
"650 92 OFFCURVE",
"676 113 OFFCURVE",
"703 137 CURVE",
"723 42 LINE",
"728 25 OFFCURVE",
"736 15 OFFCURVE",
"745 9 CURVE SMOOTH",
"758 0 OFFCURVE",
"776 0 OFFCURVE",
"785 0 CURVE SMOOTH",
"864 0 LINE",
"864 648 LINE SMOOTH",
"864 705 OFFCURVE",
"856 757 OFFCURVE",
"841 804 CURVE SMOOTH",
"826 851 OFFCURVE",
"803 892 OFFCURVE",
"773 925 CURVE SMOOTH",
"743 958 OFFCURVE",
"706 984 OFFCURVE",
"662 1003 CURVE SMOOTH",
"618 1022 OFFCURVE",
"568 1031 OFFCURVE",
"511 1031 CURVE SMOOTH"
);
},
{
closed = 1;
nodes = (
"690 246 LINE",
"670 225 OFFCURVE",
"650 206 OFFCURVE",
"629 189 CURVE SMOOTH",
"608 172 OFFCURVE",
"586 157 OFFCURVE",
"563 146 CURVE SMOOTH",
"540 134 OFFCURVE",
"515 125 OFFCURVE",
"489 119 CURVE",
"463 112 OFFCURVE",
"434 109 OFFCURVE",
"403 109 CURVE SMOOTH",
"380 109 OFFCURVE",
"358 112 OFFCURVE",
"338 118 CURVE",
"317 123 OFFCURVE",
"300 132 OFFCURVE",
"285 145 CURVE",
"270 157 OFFCURVE",
"258 173 OFFCURVE",
"249 192 CURVE SMOOTH",
"240 211 OFFCURVE",
"236 251 OFFCURVE",
"236 278 CURVE SMOOTH",
"236 374 OFFCURVE",
"244 375 OFFCURVE",
"261 405 CURVE SMOOTH",
"274 428 OFFCURVE",
"303 447 OFFCURVE",
"340 464 CURVE SMOOTH",
"376 480 OFFCURVE",
"423 494 OFFCURVE",
"481 504 CURVE SMOOTH",
"538 514 OFFCURVE",
"608 521 OFFCURVE",
"690 524 CURVE"
);
}
);
width = 994;
}
);
leftKerningGroup = a;
rightKerningGroup = a;
unicode = 0061;
},
{
glyphname = aacute;
layers = (
{
layerId = "E7469244-AD98-4857-BCFE-AC0111B942FA";
name = Regular;
paths = (
{
closed = 1;
nodes = (
"780 1449 LINE",
"606 1449 LINE SMOOTH",
"585 1449 OFFCURVE",
"569 1446 OFFCURVE",
"558 1439 CURVE SMOOTH",
"547 1432 OFFCURVE",
"536 1420 OFFCURVE",
"527 1405 CURVE SMOOTH",
"379 1163 LINE",
"485 1163 LINE SMOOTH",
"499 1163 OFFCURVE",
"511 1165 OFFCURVE",
"520 1170 CURVE",
"529 1174 OFFCURVE",
"538 1181 OFFCURVE",
"547 1191 CURVE SMOOTH"
);
},
{
closed = 1;
nodes = (
"432 1031 OFFCURVE",
"361 1018 OFFCURVE",
"296 991 CURVE SMOOTH",
"231 964 OFFCURVE",
"171 924 OFFCURVE",
"115 870 CURVE",
"147 813 LINE",
"153 804 OFFCURVE",
"160 796 OFFCURVE",
"169 790 CURVE",
"178 783 OFFCURVE",
"188 780 OFFCURVE",
"200 780 CURVE SMOOTH",
"215 780 OFFCURVE",
"231 786 OFFCURVE",
"247 797 CURVE SMOOTH",
"262 808 OFFCURVE",
"281 820 OFFCURVE",
"303 834 CURVE SMOOTH",
"324 847 OFFCURVE",
"350 860 OFFCURVE",
"380 871 CURVE SMOOTH",
"409 882 OFFCURVE",
"446 887 OFFCURVE",
"490 887 CURVE SMOOTH",
"555 887 OFFCURVE",
"605 867 OFFCURVE",
"639 827 CURVE SMOOTH",
"673 786 OFFCURVE",
"690 727 OFFCURVE",
"690 648 CURVE SMOOTH",
"690 637 LINE",
"575 634 OFFCURVE",
"477 624 OFFCURVE",
"398 606 CURVE SMOOTH",
"319 587 OFFCURVE",
"254 564 OFFCURVE",
"205 535 CURVE SMOOTH",
"156 506 OFFCURVE",
"120 474 OFFCURVE",
"98 437 CURVE SMOOTH",
"76 400 OFFCURVE",
"65 378 OFFCURVE",
"65 270 CURVE SMOOTH",
"65 224 OFFCURVE",
"73 167 OFFCURVE",
"88 134 CURVE SMOOTH",
"103 100 OFFCURVE",
"123 72 OFFCURVE",
"149 50 CURVE SMOOTH",
"174 28 OFFCURVE",
"204 12 OFFCURVE",
"239 1 CURVE SMOOTH",
"274 -10 OFFCURVE",
"311 -16 OFFCURVE",
"350 -16 CURVE SMOOTH",
"389 -16 OFFCURVE",
"424 -12 OFFCURVE",
"456 -5 CURVE SMOOTH",
"487 2 OFFCURVE",
"517 12 OFFCURVE",
"545 25 CURVE SMOOTH",
"572 38 OFFCURVE",
"599 54 OFFCURVE",
"625 73 CURVE SMOOTH",
"650 92 OFFCURVE",
"676 113 OFFCURVE",
"703 137 CURVE",
"723 42 LINE",
"728 25 OFFCURVE",
"736 15 OFFCURVE",
"745 9 CURVE SMOOTH",
"758 0 OFFCURVE",
"776 0 OFFCURVE",
"785 0 CURVE SMOOTH",
"864 0 LINE",
"864 648 LINE SMOOTH",
"864 705 OFFCURVE",
"856 757 OFFCURVE",
"841 804 CURVE SMOOTH",
"826 851 OFFCURVE",
"803 892 OFFCURVE",
"773 925 CURVE SMOOTH",
"743 958 OFFCURVE",
"706 984 OFFCURVE",
"662 1003 CURVE SMOOTH",
"618 1022 OFFCURVE",
"568 1031 OFFCURVE",
"511 1031 CURVE SMOOTH"
);
},
{
closed = 1;
nodes = (
"690 246 LINE",
"670 225 OFFCURVE",
"650 206 OFFCURVE",
"629 189 CURVE SMOOTH",
"608 172 OFFCURVE",
"586 157 OFFCURVE",
"563 146 CURVE SMOOTH",
"540 134 OFFCURVE",
"515 125 OFFCURVE",
"489 119 CURVE",
"463 112 OFFCURVE",
"434 109 OFFCURVE",
"403 109 CURVE SMOOTH",
"380 109 OFFCURVE",
"358 112 OFFCURVE",
"338 118 CURVE",
"317 123 OFFCURVE",
"300 132 OFFCURVE",
"285 145 CURVE",
"270 157 OFFCURVE",
"258 173 OFFCURVE",
"249 192 CURVE SMOOTH",
"240 211 OFFCURVE",
"236 251 OFFCURVE",
"236 278 CURVE SMOOTH",
"236 374 OFFCURVE",
"244 375 OFFCURVE",
"261 405 CURVE SMOOTH",
"274 428 OFFCURVE",
"303 447 OFFCURVE",
"340 464 CURVE SMOOTH",
"376 480 OFFCURVE",
"423 494 OFFCURVE",
"481 504 CURVE SMOOTH",
"538 514 OFFCURVE",
"608 521 OFFCURVE",
"690 524 CURVE"
);
}
);
width = 994;
}
);
leftKerningGroup = a;
rightKerningGroup = a;
unicode = 00E1;
},
{
glyphname = acircumflex;
layers = (
{
layerId = "E7469244-AD98-4857-BCFE-AC0111B942FA";
name = Regular;
paths = (
{
closed = 1;
nodes = (
"795 1169 LINE",
"572 1433 LINE",
"406 1433 LINE",
"183 1169 LINE",
"306 1169 LINE SMOOTH",
"322 1169 OFFCURVE",
"337 1175 OFFCURVE",
"351 1188 CURVE",
"475 1320 LINE SMOOTH",
"480 1325 OFFCURVE",
"486 1332 OFFCURVE",
"491 1339 CURVE",
"494 1336 OFFCURVE",
"497 1332 OFFCURVE",
"500 1329 CURVE",
"502 1326 OFFCURVE",
"505 1323 OFFCURVE",
"508 1320 CURVE",
"631 1188 LINE",
"638 1181 OFFCURVE",
"646 1176 OFFCURVE",
"654 1173 CURVE",
"661 1170 OFFCURVE",
"669 1169 OFFCURVE",
"676 1169 CURVE SMOOTH"
);
},
{
closed = 1;
nodes = (
"432 1031 OFFCURVE",
"361 1018 OFFCURVE",
"296 991 CURVE SMOOTH",
"231 964 OFFCURVE",
"171 924 OFFCURVE",
"115 870 CURVE",
"147 813 LINE",
"153 804 OFFCURVE",
"160 796 OFFCURVE",
"169 790 CURVE",
"178 783 OFFCURVE",
"188 780 OFFCURVE",
"200 780 CURVE SMOOTH",
"215 780 OFFCURVE",
"231 786 OFFCURVE",
"247 797 CURVE SMOOTH",
"262 808 OFFCURVE",
"281 820 OFFCURVE",
"303 834 CURVE SMOOTH",
"324 847 OFFCURVE",
"350 860 OFFCURVE",
"380 871 CURVE SMOOTH",
"409 882 OFFCURVE",
"446 887 OFFCURVE",
"490 887 CURVE SMOOTH",
"555 887 OFFCURVE",
"605 867 OFFCURVE",
"639 827 CURVE SMOOTH",
"673 786 OFFCURVE",
"690 727 OFFCURVE",
"690 648 CURVE SMOOTH",
"690 637 LINE",
"575 634 OFFCURVE",
"477 624 OFFCURVE",
"398 606 CURVE SMOOTH",
"319 587 OFFCURVE",
"254 564 OFFCURVE",
"205 535 CURVE SMOOTH",
"156 506 OFFCURVE",
"120 474 OFFCURVE",
"98 437 CURVE SMOOTH",
"76 400 OFFCURVE",
"65 378 OFFCURVE",
"65 270 CURVE SMOOTH",
"65 224 OFFCURVE",
"73 167 OFFCURVE",
"88 134 CURVE SMOOTH",
"103 100 OFFCURVE",
"123 72 OFFCURVE",
"149 50 CURVE SMOOTH",
"174 28 OFFCURVE",
"204 12 OFFCURVE",
"239 1 CURVE SMOOTH",
"274 -10 OFFCURVE",
"311 -16 OFFCURVE",
"350 -16 CURVE SMOOTH",
"389 -16 OFFCURVE",
"424 -12 OFFCURVE",
"456 -5 CURVE SMOOTH",
"487 2 OFFCURVE",
"517 12 OFFCURVE",
"545 25 CURVE SMOOTH",
"572 38 OFFCURVE",
"599 54 OFFCURVE",
"625 73 CURVE SMOOTH",
"650 92 OFFCURVE",
"676 113 OFFCURVE",
"703 137 CURVE",
"723 42 LINE",
"728 25 OFFCURVE",
"736 15 OFFCURVE",
"745 9 CURVE SMOOTH",
"758 0 OFFCURVE",
"776 0 OFFCURVE",
"785 0 CURVE SMOOTH",
"864 0 LINE",
"864 648 LINE SMOOTH",
"864 705 OFFCURVE",
"856 757 OFFCURVE",
"841 804 CURVE SMOOTH",
"826 851 OFFCURVE",
"803 892 OFFCURVE",
"773 925 CURVE SMOOTH",
"743 958 OFFCURVE",
"706 984 OFFCURVE",
"662 1003 CURVE SMOOTH",
"618 1022 OFFCURVE",
"568 1031 OFFCURVE",
"511 1031 CURVE SMOOTH"
);
},
{
closed = 1;
nodes = (
"690 246 LINE",
"670 225 OFFCURVE",
"650 206 OFFCURVE",
"629 189 CURVE SMOOTH",
"608 172 OFFCURVE",
"586 157 OFFCURVE",
"563 146 CURVE SMOOTH",
"540 134 OFFCURVE",
"515 125 OFFCURVE",
"489 119 CURVE",
"463 112 OFFCURVE",
"434 109 OFFCURVE",
"403 109 CURVE SMOOTH",
"380 109 OFFCURVE",
"358 112 OFFCURVE",
"338 118 CURVE",
"317 123 OFFCURVE",
"300 132 OFFCURVE",
"285 145 CURVE",
"270 157 OFFCURVE",
"258 173 OFFCURVE",
"249 192 CURVE SMOOTH",
"240 211 OFFCURVE",
"236 251 OFFCURVE",
"236 278 CURVE SMOOTH",
"236 374 OFFCURVE",
"244 375 OFFCURVE",
"261 405 CURVE SMOOTH",
"274 428 OFFCURVE",
"303 447 OFFCURVE",
"340 464 CURVE SMOOTH",
"376 480 OFFCURVE",
"423 494 OFFCURVE",
"481 504 CURVE SMOOTH",
"538 514 OFFCURVE",
"608 521 OFFCURVE",
"690 524 CURVE"
);
}
);
width = 994;
}
);
leftKerningGroup = a;
rightKerningGroup = a;
unicode = 00E2;
},
{
glyphname = adieresis;
layers = (
{
layerId = "E7469244-AD98-4857-BCFE-AC0111B942FA";
name = Regular;
paths = (
{
closed = 1;
nodes = (
"411 1304 OFFCURVE",
"408 1319 OFFCURVE",
"402 1333 CURVE SMOOTH",
"396 1347 OFFCURVE",
"388 1359 OFFCURVE",
"377 1370 CURVE",
"366 1380 OFFCURVE",
"354 1388 OFFCURVE",
"341 1394 CURVE SMOOTH",
"327 1400 OFFCURVE",
"312 1403 OFFCURVE",
"297 1403 CURVE SMOOTH",
"282 1403 OFFCURVE",
"268 1400 OFFCURVE",
"255 1394 CURVE SMOOTH",
"242 1388 OFFCURVE",
"230 1380 OFFCURVE",
"220 1370 CURVE SMOOTH",
"209 1359 OFFCURVE",
"201 1347 OFFCURVE",
"195 1333 CURVE SMOOTH",
"189 1319 OFFCURVE",
"186 1304 OFFCURVE",
"186 1289 CURVE SMOOTH",
"186 1274 OFFCURVE",
"189 1259 OFFCURVE",
"195 1246 CURVE SMOOTH",
"201 1233 OFFCURVE",
"209 1221 OFFCURVE",
"220 1211 CURVE",
"230 1201 OFFCURVE",
"242 1193 OFFCURVE",
"255 1187 CURVE SMOOTH",
"268 1181 OFFCURVE",
"282 1178 OFFCURVE",
"297 1178 CURVE SMOOTH",
"312 1178 OFFCURVE",
"327 1181 OFFCURVE",
"341 1187 CURVE SMOOTH",
"354 1193 OFFCURVE",
"366 1201 OFFCURVE",
"377 1211 CURVE SMOOTH",
"388 1221 OFFCURVE",
"396 1233 OFFCURVE",
"402 1246 CURVE SMOOTH",
"408 1259 OFFCURVE",
"411 1274 OFFCURVE",
"411 1289 CURVE SMOOTH"
);
},
{
closed = 1;
nodes = (
"792 1304 OFFCURVE",
"789 1319 OFFCURVE",
"783 1333 CURVE SMOOTH",
"777 1347 OFFCURVE",
"769 1359 OFFCURVE",
"759 1370 CURVE",
"748 1380 OFFCURVE",
"736 1388 OFFCURVE",
"723 1394 CURVE SMOOTH",
"709 1400 OFFCURVE",
"694 1403 OFFCURVE",
"679 1403 CURVE SMOOTH",
"664 1403 OFFCURVE",
"649 1400 OFFCURVE",
"636 1394 CURVE SMOOTH",
"622 1388 OFFCURVE",
"610 1380 OFFCURVE",
"600 1370 CURVE",
"590 1359 OFFCURVE",
"582 1347 OFFCURVE",
"576 1333 CURVE SMOOTH",
"570 1319 OFFCURVE",
"567 1304 OFFCURVE",
"567 1289 CURVE SMOOTH",
"567 1274 OFFCURVE",
"570 1259 OFFCURVE",
"576 1246 CURVE SMOOTH",
"582 1233 OFFCURVE",
"590 1221 OFFCURVE",
"600 1211 CURVE SMOOTH",
"610 1201 OFFCURVE",
"622 1193 OFFCURVE",
"636 1187 CURVE SMOOTH",
"649 1181 OFFCURVE",
"664 1178 OFFCURVE",
"679 1178 CURVE SMOOTH",
"694 1178 OFFCURVE",
"709 1181 OFFCURVE",
"723 1187 CURVE SMOOTH",
"736 1193 OFFCURVE",
"748 1201 OFFCURVE",
"759 1211 CURVE",
"769 1221 OFFCURVE",
"777 1233 OFFCURVE",
"783 1246 CURVE SMOOTH",
"789 1259 OFFCURVE",
"792 1274 OFFCURVE",
"792 1289 CURVE SMOOTH"
);
},
{
closed = 1;
nodes = (
"432 1031 OFFCURVE",
"361 1018 OFFCURVE",
"296 991 CURVE SMOOTH",
"231 964 OFFCURVE",
"171 924 OFFCURVE",
"115 870 CURVE",
"147 813 LINE",
"153 804 OFFCURVE",
"160 796 OFFCURVE",
"169 790 CURVE",
"178 783 OFFCURVE",
"188 780 OFFCURVE",
"200 780 CURVE SMOOTH",
"215 780 OFFCURVE",
"231 786 OFFCURVE",
"247 797 CURVE SMOOTH",
"262 808 OFFCURVE",
"281 820 OFFCURVE",
"303 834 CURVE SMOOTH",
"324 847 OFFCURVE",
"350 860 OFFCURVE",
"380 871 CURVE SMOOTH",
"409 882 OFFCURVE",
"446 887 OFFCURVE",
"490 887 CURVE SMOOTH",
"555 887 OFFCURVE",
"605 867 OFFCURVE",
"639 827 CURVE SMOOTH",
"673 786 OFFCURVE",
"690 727 OFFCURVE",
"690 648 CURVE SMOOTH",
"690 637 LINE",
"575 634 OFFCURVE",
"477 624 OFFCURVE",
"398 606 CURVE SMOOTH",
"319 587 OFFCURVE",
"254 564 OFFCURVE",
"205 535 CURVE SMOOTH",
"156 506 OFFCURVE",
"120 474 OFFCURVE",
"98 437 CURVE SMOOTH",
"76 400 OFFCURVE",
"65 378 OFFCURVE",
"65 270 CURVE SMOOTH",
"65 224 OFFCURVE",
"73 167 OFFCURVE",
"88 134 CURVE SMOOTH",
"103 100 OFFCURVE",
"123 72 OFFCURVE",
"149 50 CURVE SMOOTH",
"174 28 OFFCURVE",
"204 12 OFFCURVE",
"239 1 CURVE SMOOTH",
"274 -10 OFFCURVE",
"311 -16 OFFCURVE",
"350 -16 CURVE SMOOTH",
"389 -16 OFFCURVE",
"424 -12 OFFCURVE",
"456 -5 CURVE SMOOTH",
"487 2 OFFCURVE",
"517 12 OFFCURVE",
"545 25 CURVE SMOOTH",
"572 38 OFFCURVE",
"599 54 OFFCURVE",
"625 73 CURVE SMOOTH",
"650 92 OFFCURVE",
"676 113 OFFCURVE",
"703 137 CURVE",
"723 42 LINE",
"728 25 OFFCURVE",
"736 15 OFFCURVE",
"745 9 CURVE SMOOTH",
"758 0 OFFCURVE",
"776 0 OFFCURVE",
"785 0 CURVE SMOOTH",
"864 0 LINE",
"864 648 LINE SMOOTH",
"864 705 OFFCURVE",
"856 757 OFFCURVE",
"841 804 CURVE SMOOTH",
"826 851 OFFCURVE",
"803 892 OFFCURVE",
"773 925 CURVE SMOOTH",
"743 958 OFFCURVE",
"706 984 OFFCURVE",
"662 1003 CURVE SMOOTH",
"618 1022 OFFCURVE",
"568 1031 OFFCURVE",
"511 1031 CURVE SMOOTH"
);
},
{
closed = 1;
nodes = (
"690 246 LINE",
"670 225 OFFCURVE",
"650 206 OFFCURVE",
"629 189 CURVE SMOOTH",
"608 172 OFFCURVE",
"586 157 OFFCURVE",
"563 146 CURVE SMOOTH",
"540 134 OFFCURVE",
"515 125 OFFCURVE",
"489 119 CURVE",
"463 112 OFFCURVE",
"434 109 OFFCURVE",
"403 109 CURVE SMOOTH",
"380 109 OFFCURVE",
"358 112 OFFCURVE",
"338 118 CURVE",
"317 123 OFFCURVE",
"300 132 OFFCURVE",
"285 145 CURVE",
"270 157 OFFCURVE",
"258 173 OFFCURVE",
"249 192 CURVE SMOOTH",
"240 211 OFFCURVE",
"236 251 OFFCURVE",
"236 278 CURVE SMOOTH",
"236 374 OFFCURVE",
"244 375 OFFCURVE",
"261 405 CURVE SMOOTH",
"274 428 OFFCURVE",
"303 447 OFFCURVE",
"340 464 CURVE SMOOTH",
"376 480 OFFCURVE",
"423 494 OFFCURVE",
"481 504 CURVE SMOOTH",
"538 514 OFFCURVE",
"608 521 OFFCURVE",
"690 524 CURVE"
);
}
);
width = 994;
}
);
leftKerningGroup = a;
rightKerningGroup = a;
unicode = 00E4;
},
{
glyphname = agrave;
layers = (
{
layerId = "E7469244-AD98-4857-BCFE-AC0111B942FA";
name = Regular;
paths = (
{
closed = 1;
nodes = (
"220 1449 LINE",
"454 1191 LINE SMOOTH",
"463 1181 OFFCURVE",
"472 1174 OFFCURVE",
"481 1170 CURVE",
"490 1165 OFFCURVE",
"501 1163 OFFCURVE",
"515 1163 CURVE SMOOTH",
"617 1163 LINE",
"468 1405 LINE SMOOTH",
"459 1420 OFFCURVE",
"449 1432 OFFCURVE",
"438 1439 CURVE SMOOTH",
"427 1446 OFFCURVE",
"411 1449 OFFCURVE",
"389 1449 CURVE SMOOTH"
);
},
{
closed = 1;
nodes = (
"432 1031 OFFCURVE",
"361 1018 OFFCURVE",
"296 991 CURVE SMOOTH",
"231 964 OFFCURVE",
"171 924 OFFCURVE",
"115 870 CURVE",
"147 813 LINE",
"153 804 OFFCURVE",
"160 796 OFFCURVE",
"169 790 CURVE",
"178 783 OFFCURVE",
"188 780 OFFCURVE",
"200 780 CURVE SMOOTH",
"215 780 OFFCURVE",
"231 786 OFFCURVE",
"247 797 CURVE SMOOTH",
"262 808 OFFCURVE",
"281 820 OFFCURVE",
"303 834 CURVE SMOOTH",
"324 847 OFFCURVE",
"350 860 OFFCURVE",
"380 871 CURVE SMOOTH",
"409 882 OFFCURVE",
"446 887 OFFCURVE",
"490 887 CURVE SMOOTH",
"555 887 OFFCURVE",
"605 867 OFFCURVE",
"639 827 CURVE SMOOTH",
"673 786 OFFCURVE",
"690 727 OFFCURVE",
"690 648 CURVE SMOOTH",
"690 637 LINE",
"575 634 OFFCURVE",
"477 624 OFFCURVE",
"398 606 CURVE SMOOTH",
"319 587 OFFCURVE",
"254 564 OFFCURVE",
"205 535 CURVE SMOOTH",
"156 506 OFFCURVE",
"120 474 OFFCURVE",
"98 437 CURVE SMOOTH",
"76 400 OFFCURVE",
"65 378 OFFCURVE",
"65 270 CURVE SMOOTH",
"65 224 OFFCURVE",
"73 167 OFFCURVE",
"88 134 CURVE SMOOTH",
"103 100 OFFCURVE",
"123 72 OFFCURVE",
"149 50 CURVE SMOOTH",
"174 28 OFFCURVE",
"204 12 OFFCURVE",
"239 1 CURVE SMOOTH",
"274 -10 OFFCURVE",
"311 -16 OFFCURVE",
"350 -16 CURVE SMOOTH",
"389 -16 OFFCURVE",
"424 -12 OFFCURVE",
"456 -5 CURVE SMOOTH",
"487 2 OFFCURVE",
"517 12 OFFCURVE",
"545 25 CURVE SMOOTH",
"572 38 OFFCURVE",
"599 54 OFFCURVE",
"625 73 CURVE SMOOTH",
"650 92 OFFCURVE",
"676 113 OFFCURVE",
"703 137 CURVE",
"723 42 LINE",
"728 25 OFFCURVE",
"736 15 OFFCURVE",
"745 9 CURVE SMOOTH",
"758 0 OFFCURVE",
"776 0 OFFCURVE",
"785 0 CURVE SMOOTH",
"864 0 LINE",
"864 648 LINE SMOOTH",
"864 705 OFFCURVE",
"856 757 OFFCURVE",
"841 804 CURVE SMOOTH",
"826 851 OFFCURVE",
"803 892 OFFCURVE",
"773 925 CURVE SMOOTH",
"743 958 OFFCURVE",
"706 984 OFFCURVE",
"662 1003 CURVE SMOOTH",
"618 1022 OFFCURVE",
"568 1031 OFFCURVE",
"511 1031 CURVE SMOOTH"
);
},
{
closed = 1;
nodes = (
"690 246 LINE",
"670 225 OFFCURVE",
"650 206 OFFCURVE",
"629 189 CURVE SMOOTH",
"608 172 OFFCURVE",
"586 157 OFFCURVE",
"563 146 CURVE SMOOTH",
"540 134 OFFCURVE",
"515 125 OFFCURVE",
"489 119 CURVE",
"463 112 OFFCURVE",
"434 109 OFFCURVE",
"403 109 CURVE SMOOTH",
"380 109 OFFCURVE",
"358 112 OFFCURVE",
"338 118 CURVE",
"317 123 OFFCURVE",
"300 132 OFFCURVE",
"285 145 CURVE",
"270 157 OFFCURVE",
"258 173 OFFCURVE",
"249 192 CURVE SMOOTH",
"240 211 OFFCURVE",
"236 251 OFFCURVE",
"236 278 CURVE SMOOTH",
"236 374 OFFCURVE",
"244 375 OFFCURVE",
"261 405 CURVE SMOOTH",
"274 428 OFFCURVE",
"303 447 OFFCURVE",
"340 464 CURVE SMOOTH",
"376 480 OFFCURVE",
"423 494 OFFCURVE",
"481 504 CURVE SMOOTH",
"538 514 OFFCURVE",
"608 521 OFFCURVE",
"690 524 CURVE"
);
}
);
width = 994;
}
);
leftKerningGroup = a;
rightKerningGroup = a;
unicode = 00E0;
},
{
glyphname = aring;
layers = (
{
layerId = "E7469244-AD98-4857-BCFE-AC0111B942FA";
name = Regular;
paths = (
{
closed = 1;
nodes = (
"290 1288 OFFCURVE",
"295 1263 OFFCURVE",
"306 1240 CURVE SMOOTH",
"317 1217 OFFCURVE",
"331 1198 OFFCURVE",
"350 1182 CURVE SMOOTH",
"368 1166 OFFCURVE",
"389 1154 OFFCURVE",
"413 1145 CURVE SMOOTH",
"437 1136 OFFCURVE",
"462 1131 OFFCURVE",
"489 1131 CURVE SMOOTH",
"516 1131 OFFCURVE",
"542 1136 OFFCURVE",
"567 1145 CURVE SMOOTH",
"591 1154 OFFCURVE",
"612 1166 OFFCURVE",
"631 1182 CURVE SMOOTH",
"650 1198 OFFCURVE",
"664 1217 OFFCURVE",
"675 1240 CURVE SMOOTH",
"686 1263 OFFCURVE",
"691 1288 OFFCURVE",
"691 1315 CURVE SMOOTH",
"691 1343 OFFCURVE",
"686 1368 OFFCURVE",
"675 1391 CURVE SMOOTH",
"664 1414 OFFCURVE",
"650 1433 OFFCURVE",
"631 1450 CURVE SMOOTH",
"612 1467 OFFCURVE",
"591 1480 OFFCURVE",
"567 1489 CURVE SMOOTH",
"542 1498 OFFCURVE",
"516 1502 OFFCURVE",
"489 1502 CURVE SMOOTH",
"462 1502 OFFCURVE",
"437 1498 OFFCURVE",
"413 1489 CURVE SMOOTH",
"389 1480 OFFCURVE",
"368 1467 OFFCURVE",
"350 1450 CURVE SMOOTH",
"331 1433 OFFCURVE",
"317 1414 OFFCURVE",
"306 1391 CURVE SMOOTH",
"295 1368 OFFCURVE",
"290 1343 OFFCURVE",
"290 1315 CURVE SMOOTH"
);
},
{
closed = 1;
nodes = (
"390 1345 OFFCURVE",
"399 1369 OFFCURVE",
"417 1388 CURVE SMOOTH",
"435 1407 OFFCURVE",
"460 1416 OFFCURVE",
"491 1416 CURVE SMOOTH",
"521 1416 OFFCURVE",
"545 1407 OFFCURVE",
"564 1388 CURVE SMOOTH",
"582 1369 OFFCURVE",
"591 1345 OFFCURVE",
"591 1315 CURVE SMOOTH",
"591 1286 OFFCURVE",
"582 1262 OFFCURVE",
"564 1243 CURVE SMOOTH",
"545 1224 OFFCURVE",
"521 1215 OFFCURVE",
"491 1215 CURVE SMOOTH",
"460 1215 OFFCURVE",
"435 1224 OFFCURVE",
"417 1243 CURVE SMOOTH",
"399 1262 OFFCURVE",
"390 1286 OFFCURVE",
"390 1315 CURVE SMOOTH"
);
},
{
closed = 1;
nodes = (
"432 1031 OFFCURVE",
"361 1018 OFFCURVE",
"296 991 CURVE SMOOTH",
"231 964 OFFCURVE",
"171 924 OFFCURVE",
"115 870 CURVE",
"147 813 LINE",
"153 804 OFFCURVE",
"160 796 OFFCURVE",
"169 790 CURVE",
"178 783 OFFCURVE",
"188 780 OFFCURVE",
"200 780 CURVE SMOOTH",
"215 780 OFFCURVE",
"231 786 OFFCURVE",
"247 797 CURVE SMOOTH",
"262 808 OFFCURVE",
"281 820 OFFCURVE",
"303 834 CURVE SMOOTH",
"324 847 OFFCURVE",
"350 860 OFFCURVE",
"380 871 CURVE SMOOTH",
"409 882 OFFCURVE",
"446 887 OFFCURVE",
"490 887 CURVE SMOOTH",
"555 887 OFFCURVE",
"605 867 OFFCURVE",
"639 827 CURVE SMOOTH",
"673 786 OFFCURVE",
"690 727 OFFCURVE",
"690 648 CURVE SMOOTH",
"690 637 LINE",
"575 634 OFFCURVE",
"477 624 OFFCURVE",
"398 606 CURVE SMOOTH",
"319 587 OFFCURVE",
"254 564 OFFCURVE",
"205 535 CURVE SMOOTH",
"156 506 OFFCURVE",
"120 474 OFFCURVE",
"98 437 CURVE SMOOTH",
"76 400 OFFCURVE",
"65 378 OFFCURVE",
"65 270 CURVE SMOOTH",
"65 224 OFFCURVE",
"73 167 OFFCURVE",
"88 134 CURVE SMOOTH",
"103 100 OFFCURVE",
"123 72 OFFCURVE",
"149 50 CURVE SMOOTH",
"174 28 OFFCURVE",
"204 12 OFFCURVE",
"239 1 CURVE SMOOTH",
"274 -10 OFFCURVE",
"311 -16 OFFCURVE",
"350 -16 CURVE SMOOTH",
"389 -16 OFFCURVE",
"424 -12 OFFCURVE",
"456 -5 CURVE SMOOTH",
"487 2 OFFCURVE",
"517 12 OFFCURVE",
"545 25 CURVE SMOOTH",
"572 38 OFFCURVE",
"599 54 OFFCURVE",
"625 73 CURVE SMOOTH",
"650 92 OFFCURVE",
"676 113 OFFCURVE",
"703 137 CURVE",
"723 42 LINE",
"728 25 OFFCURVE",
"736 15 OFFCURVE",
"745 9 CURVE SMOOTH",
"758 0 OFFCURVE",
"776 0 OFFCURVE",
"785 0 CURVE SMOOTH",
"864 0 LINE",
"864 648 LINE SMOOTH",
"864 705 OFFCURVE",
"856 757 OFFCURVE",
"841 804 CURVE SMOOTH",
"826 851 OFFCURVE",
"803 892 OFFCURVE",
"773 925 CURVE SMOOTH",
"743 958 OFFCURVE",
"706 984 OFFCURVE",
"662 1003 CURVE SMOOTH",
"618 1022 OFFCURVE",
"568 1031 OFFCURVE",
"511 1031 CURVE SMOOTH"
);
},
{
closed = 1;
nodes = (
"690 246 LINE",
"670 225 OFFCURVE",
"650 206 OFFCURVE",
"629 189 CURVE SMOOTH",
"608 172 OFFCURVE",
"586 157 OFFCURVE",
"563 146 CURVE SMOOTH",
"540 134 OFFCURVE",
"515 125 OFFCURVE",
"489 119 CURVE",
"463 112 OFFCURVE",
"434 109 OFFCURVE",
"403 109 CURVE SMOOTH",
"380 109 OFFCURVE",
"358 112 OFFCURVE",
"338 118 CURVE",
"317 123 OFFCURVE",
"300 132 OFFCURVE",
"285 145 CURVE",
"270 157 OFFCURVE",
"258 173 OFFCURVE",
"249 192 CURVE SMOOTH",
"240 211 OFFCURVE",
"236 251 OFFCURVE",
"236 278 CURVE SMOOTH",
"236 374 OFFCURVE",
"244 375 OFFCURVE",
"261 405 CURVE SMOOTH",
"274 428 OFFCURVE",
"303 447 OFFCURVE",
"340 464 CURVE SMOOTH",
"376 480 OFFCURVE",
"423 494 OFFCURVE",
"481 504 CURVE SMOOTH",
"538 514 OFFCURVE",
"608 521 OFFCURVE",
"690 524 CURVE"
);
}
);
width = 994;
}
);
leftKerningGroup = a;
rightKerningGroup = a;
unicode = 00E5;
},
{
glyphname = atilde;
layers = (
{
layerId = "E7469244-AD98-4857-BCFE-AC0111B942FA";
name = Regular;
paths = (
{
closed = 1;
nodes = (
"584 1325 OFFCURVE",
"568 1330 OFFCURVE",
"553 1340 CURVE",
"537 1349 OFFCURVE",
"520 1360 OFFCURVE",
"502 1371 CURVE SMOOTH",
"484 1382 OFFCURVE",
"465 1393 OFFCURVE",
"445 1403 CURVE",
"424 1412 OFFCURVE",
"402 1417 OFFCURVE",
"379 1417 CURVE SMOOTH",
"353 1417 OFFCURVE",
"329 1412 OFFCURVE",
"307 1402 CURVE",
"285 1391 OFFCURVE",
"266 1377 OFFCURVE",
"250 1358 CURVE SMOOTH",
"234 1339 OFFCURVE",
"222 1316 OFFCURVE",
"213 1290 CURVE SMOOTH",
"204 1263 OFFCURVE",
"200 1234 OFFCURVE",
"200 1202 CURVE",
"311 1202 LINE",
"312 1261 OFFCURVE",
"337 1290 OFFCURVE",
"385 1290 CURVE SMOOTH",
"400 1290 OFFCURVE",
"416 1285 OFFCURVE",
"432 1276 CURVE",
"448 1266 OFFCURVE",
"465 1255 OFFCURVE",
"483 1244 CURVE SMOOTH",
"501 1233 OFFCURVE",
"520 1222 OFFCURVE",
"541 1213 CURVE",
"561 1203 OFFCURVE",
"583 1198 OFFCURVE",
"606 1198 CURVE SMOOTH",
"633 1198 OFFCURVE",
"657 1203 OFFCURVE",
"679 1214 CURVE SMOOTH",
"700 1224 OFFCURVE",
"719 1238 OFFCURVE",
"735 1257 CURVE SMOOTH",
"750 1276 OFFCURVE",
"762 1298 OFFCURVE",
"771 1325 CURVE SMOOTH",
"779 1351 OFFCURVE",
"783 1380 OFFCURVE",
"783 1411 CURVE",
"675 1411 LINE",
"674 1382 OFFCURVE",
"668 1360 OFFCURVE",
"655 1346 CURVE SMOOTH",
"642 1332 OFFCURVE",
"623 1325 OFFCURVE",
"599 1325 CURVE SMOOTH"
);
},
{
closed = 1;
nodes = (
"432 1031 OFFCURVE",
"361 1018 OFFCURVE",
"296 991 CURVE SMOOTH",
"231 964 OFFCURVE",
"171 924 OFFCURVE",
"115 870 CURVE",
"147 813 LINE",
"153 804 OFFCURVE",
"160 796 OFFCURVE",
"169 790 CURVE",
"178 783 OFFCURVE",
"188 780 OFFCURVE",
"200 780 CURVE SMOOTH",
"215 780 OFFCURVE",
"231 786 OFFCURVE",
"247 797 CURVE SMOOTH",
"262 808 OFFCURVE",
"281 820 OFFCURVE",
"303 834 CURVE SMOOTH",
"324 847 OFFCURVE",
"350 860 OFFCURVE",
"380 871 CURVE SMOOTH",
"409 882 OFFCURVE",
"446 887 OFFCURVE",
"490 887 CURVE SMOOTH",
"555 887 OFFCURVE",
"605 867 OFFCURVE",
"639 827 CURVE SMOOTH",
"673 786 OFFCURVE",
"690 727 OFFCURVE",
"690 648 CURVE SMOOTH",
"690 637 LINE",
"575 634 OFFCURVE",
"477 624 OFFCURVE",
"398 606 CURVE SMOOTH",
"319 587 OFFCURVE",
"254 564 OFFCURVE",
"205 535 CURVE SMOOTH",
"156 506 OFFCURVE",
"120 474 OFFCURVE",
"98 437 CURVE SMOOTH",
"76 400 OFFCURVE",
"65 378 OFFCURVE",
"65 270 CURVE SMOOTH",
"65 224 OFFCURVE",
"73 167 OFFCURVE",
"88 134 CURVE SMOOTH",
"103 100 OFFCURVE",
"123 72 OFFCURVE",
"149 50 CURVE SMOOTH",
"174 28 OFFCURVE",
"204 12 OFFCURVE",
"239 1 CURVE SMOOTH",
"274 -10 OFFCURVE",
"311 -16 OFFCURVE",
"350 -16 CURVE SMOOTH",
"389 -16 OFFCURVE",
"424 -12 OFFCURVE",
"456 -5 CURVE SMOOTH",
"487 2 OFFCURVE",
"517 12 OFFCURVE",
"545 25 CURVE SMOOTH",
"572 38 OFFCURVE",
"599 54 OFFCURVE",
"625 73 CURVE SMOOTH",
"650 92 OFFCURVE",
"676 113 OFFCURVE",
"703 137 CURVE",
"723 42 LINE",
"728 25 OFFCURVE",
"736 15 OFFCURVE",
"745 9 CURVE SMOOTH",
"758 0 OFFCURVE",
"776 0 OFFCURVE",
"785 0 CURVE SMOOTH",
"864 0 LINE",
"864 648 LINE SMOOTH",
"864 705 OFFCURVE",
"856 757 OFFCURVE",
"841 804 CURVE SMOOTH",
"826 851 OFFCURVE",
"803 892 OFFCURVE",
"773 925 CURVE SMOOTH",
"743 958 OFFCURVE",
"706 984 OFFCURVE",
"662 1003 CURVE SMOOTH",
"618 1022 OFFCURVE",
"568 1031 OFFCURVE",
"511 1031 CURVE SMOOTH"
);
},
{
closed = 1;
nodes = (
"690 246 LINE",
"670 225 OFFCURVE",
"650 206 OFFCURVE",
"629 189 CURVE SMOOTH",
"608 172 OFFCURVE",
"586 157 OFFCURVE",
"563 146 CURVE SMOOTH",
"540 134 OFFCURVE",
"515 125 OFFCURVE",
"489 119 CURVE",
"463 112 OFFCURVE",
"434 109 OFFCURVE",
"403 109 CURVE SMOOTH",
"380 109 OFFCURVE",
"358 112 OFFCURVE",
"338 118 CURVE",
"317 123 OFFCURVE",
"300 132 OFFCURVE",
"285 145 CURVE",
"270 157 OFFCURVE",
"258 173 OFFCURVE",
"249 192 CURVE SMOOTH",
"240 211 OFFCURVE",
"236 251 OFFCURVE",
"236 278 CURVE SMOOTH",
"236 374 OFFCURVE",
"244 375 OFFCURVE",
"261 405 CURVE SMOOTH",
"274 428 OFFCURVE",
"303 447 OFFCURVE",
"340 464 CURVE SMOOTH",
"376 480 OFFCURVE",
"423 494 OFFCURVE",
"481 504 CURVE SMOOTH",
"538 514 OFFCURVE",
"608 521 OFFCURVE",
"690 524 CURVE"
);
}
);
width = 994;
}
);
leftKerningGroup = a;
rightKerningGroup = a;
unicode = 00E3;
},
{
glyphname = ae;
layers = (
{
layerId = "E7469244-AD98-4857-BCFE-AC0111B942FA";
name = Regular;
paths = (
{
closed = 1;
nodes = (
"1061 1029 OFFCURVE",
"992 1012 OFFCURVE",
"935 978 CURVE SMOOTH",
"877 943 OFFCURVE",
"830 897 OFFCURVE",
"794 838 CURVE",
"772 899 OFFCURVE",
"737 946 OFFCURVE",
"688 980 CURVE SMOOTH",
"639 1014 OFFCURVE",
"575 1031 OFFCURVE",
"495 1031 CURVE SMOOTH",
"420 1031 OFFCURVE",
"352 1018 OFFCURVE",
"292 991 CURVE SMOOTH",
"231 964 OFFCURVE",
"173 924 OFFCURVE",
"117 870 CURVE",
"149 813 LINE",
"155 804 OFFCURVE",
"162 796 OFFCURVE",
"171 790 CURVE",
"180 783 OFFCURVE",
"190 780 OFFCURVE",
"202 780 CURVE SMOOTH",
"217 780 OFFCURVE",
"233 786 OFFCURVE",
"249 798 CURVE SMOOTH",
"264 809 OFFCURVE",
"283 822 OFFCURVE",
"305 836 CURVE SMOOTH",
"326 850 OFFCURVE",
"352 863 OFFCURVE",
"382 875 CURVE SMOOTH",
"411 886 OFFCURVE",
"448 892 OFFCURVE",
"492 892 CURVE SMOOTH",
"557 892 OFFCURVE",
"607 871 OFFCURVE",
"641 829 CURVE SMOOTH",
"675 787 OFFCURVE",
"692 727 OFFCURVE",
"692 648 CURVE SMOOTH",
"692 598 LINE",
"577 595 OFFCURVE",
"479 584 OFFCURVE",
"400 565 CURVE SMOOTH",
"321 545 OFFCURVE",
"257 520 OFFCURVE",
"208 489 CURVE SMOOTH",
"159 458 OFFCURVE",
"123 424 OFFCURVE",
"101 385 CURVE SMOOTH",
"79 346 OFFCURVE",
"68 307 OFFCURVE",
"68 267 CURVE SMOOTH",
"68 219 OFFCURVE",
"76 177 OFFCURVE",
"91 142 CURVE SMOOTH",
"106 107 OFFCURVE",
"127 77 OFFCURVE",
"155 54 CURVE SMOOTH",
"182 31 OFFCURVE",
"215 13 OFFCURVE",
"253 2 CURVE SMOOTH",
"291 -10 OFFCURVE",
"333 -16 OFFCURVE",
"379 -16 CURVE SMOOTH",
"418 -16 OFFCURVE",
"458 -12 OFFCURVE",
"498 -3 CURVE SMOOTH",
"537 5 OFFCURVE",
"575 18 OFFCURVE",
"610 37 CURVE SMOOTH",
"645 56 OFFCURVE",
"678 80 OFFCURVE",
"707 109 CURVE SMOOTH",
"736 138 OFFCURVE",
"759 174 OFFCURVE",
"777 215 CURVE",
"814 138 OFFCURVE",
"864 80 OFFCURVE",
"928 43 CURVE SMOOTH",
"991 5 OFFCURVE",
"1062 -14 OFFCURVE",
"1140 -14 CURVE SMOOTH",
"1175 -14 OFFCURVE",
"1210 -11 OFFCURVE",
"1245 -4 CURVE SMOOTH",
"1280 2 OFFCURVE",
"1315 11 OFFCURVE",
"1348 24 CURVE SMOOTH",
"1381 37 OFFCURVE",
"1412 53 OFFCURVE",
"1441 73 CURVE SMOOTH",
"1470 92 OFFCURVE",
"1495 115 OFFCURVE",
"1517 142 CURVE",
"1470 203 LINE SMOOTH",
"1466 208 OFFCURVE",
"1461 213 OFFCURVE",
"1456 216 CURVE",
"1450 219 OFFCURVE",
"1442 220 OFFCURVE",
"1433 220 CURVE SMOOTH",
"1422 220 OFFCURVE",
"1411 215 OFFCURVE",
"1398 206 CURVE",
"1385 196 OFFCURVE",
"1368 185 OFFCURVE",
"1348 173 CURVE SMOOTH",
"1327 161 OFFCURVE",
"1302 150 OFFCURVE",
"1271 141 CURVE SMOOTH",
"1240 131 OFFCURVE",
"1202 126 OFFCURVE",
"1156 126 CURVE SMOOTH",
"1113 126 OFFCURVE",
"1074 133 OFFCURVE",
"1039 148 CURVE SMOOTH",
"1004 163 OFFCURVE",
"973 185 OFFCURVE",
"948 215 CURVE SMOOTH",
"922 245 OFFCURVE",
"901 283 OFFCURVE",
"886 328 CURVE SMOOTH",
"871 373 OFFCURVE",
"862 425 OFFCURVE",
"859 486 CURVE",
"1489 486 LINE SMOOTH",
"1506 486 OFFCURVE",
"1517 491 OFFCURVE",
"1522 501 CURVE",
"1527 510 OFFCURVE",
"1530 529 OFFCURVE",
"1530 556 CURVE SMOOTH",
"1530 631 OFFCURVE",
"1520 697 OFFCURVE",
"1500 756 CURVE SMOOTH",
"1480 814 OFFCURVE",
"1453 863 OFFCURVE",
"1418 904 CURVE SMOOTH",
"1383 945 OFFCURVE",
"1342 976 OFFCURVE",
"1295 997 CURVE SMOOTH",
"1248 1018 OFFCURVE",
"1197 1029 OFFCURVE",
"1142 1029 CURVE SMOOTH"
);
},
{
closed = 1;
nodes = (
"692 403 LINE SMOOTH",
"692 354 OFFCURVE",
"685 311 OFFCURVE",
"671 274 CURVE SMOOTH",
"657 237 OFFCURVE",
"638 207 OFFCURVE",
"613 182 CURVE SMOOTH",
"588 157 OFFCURVE",
"560 139 OFFCURVE",
"527 127 CURVE SMOOTH",
"494 115 OFFCURVE",
"458 109 OFFCURVE",
"420 109 CURVE SMOOTH",
"366 109 OFFCURVE",
"322 122 OFFCURVE",
"289 149 CURVE SMOOTH",
"256 176 OFFCURVE",
"239 218 OFFCURVE",
"239 276 CURVE SMOOTH",
"239 304 OFFCURVE",
"247 330 OFFCURVE",
"264 354 CURVE SMOOTH",
"280 378 OFFCURVE",
"306 399 OFFCURVE",
"342 418 CURVE SMOOTH",
"378 437 OFFCURVE",
"425 452 OFFCURVE",
"483 464 CURVE SMOOTH",
"540 475 OFFCURVE",
"610 483 OFFCURVE",
"692 486 CURVE"
);
},
{
closed = 1;
nodes = (
"1173 898 OFFCURVE",
"1206 891 OFFCURVE",
"1235 876 CURVE SMOOTH",
"1264 861 OFFCURVE",
"1289 840 OFFCURVE",
"1310 813 CURVE SMOOTH",
"1330 786 OFFCURVE",
"1345 755 OFFCURVE",
"1356 718 CURVE SMOOTH",
"1367 681 OFFCURVE",
"1372 640 OFFCURVE",
"1372 597 CURVE",
"861 597 LINE",
"866 644 OFFCURVE",
"875 686 OFFCURVE",
"889 723 CURVE SMOOTH",
"903 760 OFFCURVE",
"922 792 OFFCURVE",
"945 818 CURVE SMOOTH",
"968 844 OFFCURVE",
"995 864 OFFCURVE",
"1027 878 CURVE SMOOTH",
"1059 891 OFFCURVE",
"1095 898 OFFCURVE",
"1136 898 CURVE SMOOTH"
);
}
);
width = 1610;
}
);
leftKerningGroup = a;
rightKerningGroup = ae;
unicode = 00E6;
},
{
glyphname = b;
layers = (
{
layerId = "E7469244-AD98-4857-BCFE-AC0111B942FA";
name = Regular;
paths = (
{
closed = 1;
nodes = (
"141 0 LINE",
"256 0 LINE SMOOTH",
"281 0 OFFCURVE",
"297 13 OFFCURVE",
"302 38 CURVE",
"311 130 LINE",
"345 84 OFFCURVE",
"385 49 OFFCURVE",
"431 24 CURVE SMOOTH",
"476 -2 OFFCURVE",
"532 -14 OFFCURVE",
"599 -14 CURVE SMOOTH",
"666 -14 OFFCURVE",
"727 -1 OFFCURVE",
"781 26 CURVE SMOOTH",
"835 52 OFFCURVE",
"881 89 OFFCURVE",
"919 137 CURVE SMOOTH",
"956 184 OFFCURVE",
"985 242 OFFCURVE",
"1005 309 CURVE SMOOTH",
"1025 376 OFFCURVE",
"1035 451 OFFCURVE",
"1035 533 CURVE SMOOTH",
"1035 610 OFFCURVE",
"1026 679 OFFCURVE",
"1009 740 CURVE SMOOTH",
"991 801 OFFCURVE",
"965 854 OFFCURVE",
"932 897 CURVE SMOOTH",
"899 940 OFFCURVE",
"858 972 OFFCURVE",
"811 995 CURVE SMOOTH",
"763 1018 OFFCURVE",
"709 1029 OFFCURVE",
"650 1029 CURVE SMOOTH",
"580 1029 OFFCURVE",
"518 1014 OFFCURVE",
"464 985 CURVE SMOOTH",
"410 956 OFFCURVE",
"362 916 OFFCURVE",
"320 866 CURVE",
"320 1473 LINE",
"141 1473 LINE"
);
},
{
closed = 1;
nodes = (
"674 887 OFFCURVE",
"739 858 OFFCURVE",
"784 800 CURVE SMOOTH",
"829 741 OFFCURVE",
"851 650 OFFCURVE",
"851 526 CURVE SMOOTH",
"851 393 OFFCURVE",
"826 292 OFFCURVE",
"775 225 CURVE SMOOTH",
"724 158 OFFCURVE",
"651 124 OFFCURVE",
"556 124 CURVE SMOOTH",
"509 124 OFFCURVE",
"467 133 OFFCURVE",
"428 151 CURVE SMOOTH",
"389 169 OFFCURVE",
"353 200 OFFCURVE",
"320 244 CURVE",
"320 734 LINE",
"356 783 OFFCURVE",
"396 820 OFFCURVE",
"439 847 CURVE SMOOTH",
"482 874 OFFCURVE",
"533 887 OFFCURVE",
"591 887 CURVE SMOOTH"
);
}
);
width = 1120;
}
);
leftKerningGroup = b;
rightKerningGroup = b;
unicode = 0062;
},
{
glyphname = c;
layers = (
{
layerId = "E7469244-AD98-4857-BCFE-AC0111B942FA";
name = Regular;
paths = (
{
closed = 1;
nodes = (
"893 897 LINE",
"851 939 OFFCURVE",
"803 972 OFFCURVE",
"749 995 CURVE SMOOTH",
"694 1018 OFFCURVE",
"631 1029 OFFCURVE",
"560 1029 CURVE SMOOTH",
"483 1029 OFFCURVE",
"416 1016 OFFCURVE",
"357 990 CURVE SMOOTH",
"298 964 OFFCURVE",
"248 928 OFFCURVE",
"208 882 CURVE SMOOTH",
"167 835 OFFCURVE",
"137 780 OFFCURVE",
"116 716 CURVE SMOOTH",
"95 652 OFFCURVE",
"84 582 OFFCURVE",
"84 507 CURVE SMOOTH",
"84 424 OFFCURVE",
"95 351 OFFCURVE",
"118 286 CURVE SMOOTH",
"141 221 OFFCURVE",
"172 167 OFFCURVE",
"212 123 CURVE SMOOTH",
"252 78 OFFCURVE",
"299 44 OFFCURVE",
"354 21 CURVE SMOOTH",
"408 -2 OFFCURVE",
"467 -14 OFFCURVE",
"530 -14 CURVE SMOOTH",
"567 -14 OFFCURVE",
"603 -11 OFFCURVE",
"638 -5 CURVE SMOOTH",
"673 1 OFFCURVE",
"707 11 OFFCURVE",
"740 24 CURVE SMOOTH",
"772 37 OFFCURVE",
"802 53 OFFCURVE",
"830 72 CURVE SMOOTH",
"858 91 OFFCURVE",
"883 115 OFFCURVE",
"905 142 CURVE",
"855 207 LINE SMOOTH",
"847 218 OFFCURVE",
"836 224 OFFCURVE",
"821 224 CURVE SMOOTH",
"809 224 OFFCURVE",
"797 219 OFFCURVE",
"785 209 CURVE SMOOTH",
"772 198 OFFCURVE",
"757 187 OFFCURVE",
"739 174 CURVE SMOOTH",
"720 161 OFFCURVE",
"697 150 OFFCURVE",
"669 140 CURVE SMOOTH",
"641 129 OFFCURVE",
"605 124 OFFCURVE",
"562 124 CURVE SMOOTH",
"517 124 OFFCURVE",
"476 133 OFFCURVE",
"440 150 CURVE SMOOTH",
"403 167 OFFCURVE",
"372 191 OFFCURVE",
"347 224 CURVE SMOOTH",
"321 256 OFFCURVE",
"301 296 OFFCURVE",
"287 344 CURVE SMOOTH",
"273 391 OFFCURVE",
"266 446 OFFCURVE",
"266 507 CURVE SMOOTH",
"266 566 OFFCURVE",
"273 619 OFFCURVE",
"286 666 CURVE SMOOTH",
"299 713 OFFCURVE",
"318 754 OFFCURVE",
"344 787 CURVE SMOOTH",
"369 820 OFFCURVE",
"401 846 OFFCURVE",
"439 864 CURVE SMOOTH",
"477 881 OFFCURVE",
"521 890 OFFCURVE",
"571 890 CURVE SMOOTH",
"608 890 OFFCURVE",
"640 886 OFFCURVE",
"666 878 CURVE",
"691 869 OFFCURVE",
"713 860 OFFCURVE",
"731 850 CURVE SMOOTH",
"748 840 OFFCURVE",
"763 831 OFFCURVE",
"775 823 CURVE",
"787 814 OFFCURVE",
"798 810 OFFCURVE",
"808 810 CURVE SMOOTH",
"817 810 OFFCURVE",
"825 812 OFFCURVE",
"830 816 CURVE SMOOTH",
"835 820 OFFCURVE",
"841 826 OFFCURVE",
"846 833 CURVE SMOOTH"
);
}
);
width = 955;
}
);
leftKerningGroup = c;
rightKerningGroup = c;
unicode = 0063;
},
{
glyphname = ccedilla;
layers = (
{
layerId = "E7469244-AD98-4857-BCFE-AC0111B942FA";
name = Regular;
paths = (
{
closed = 1;
nodes = (
"411 -253 OFFCURVE",
"403 -259 OFFCURVE",
"399 -271 CURVE",
"383 -326 LINE",
"403 -335 OFFCURVE",
"426 -343 OFFCURVE",
"451 -349 CURVE",
"476 -354 OFFCURVE",
"502 -357 OFFCURVE",
"529 -357 CURVE SMOOTH",
"561 -357 OFFCURVE",
"590 -354 OFFCURVE",
"617 -348 CURVE",
"643 -341 OFFCURVE",
"666 -332 OFFCURVE",
"685 -320 CURVE SMOOTH",
"704 -308 OFFCURVE",
"718 -293 OFFCURVE",
"729 -276 CURVE SMOOTH",
"740 -259 OFFCURVE",
"745 -239 OFFCURVE",
"745 -218 CURVE SMOOTH",
"745 -182 OFFCURVE",
"731 -152 OFFCURVE",
"704 -129 CURVE SMOOTH",
"676 -106 OFFCURVE",
"631 -88 OFFCURVE",
"569 -75 CURVE",
"587 -11 LINE",
"650 -6 OFFCURVE",
"710 9 OFFCURVE",
"765 34 CURVE SMOOTH",
"820 59 OFFCURVE",
"866 95 OFFCURVE",
"905 142 CURVE",
"855 207 LINE SMOOTH",
"847 218 OFFCURVE",
"836 224 OFFCURVE",
"821 224 CURVE SMOOTH",
"809 224 OFFCURVE",
"797 219 OFFCURVE",
"785 209 CURVE SMOOTH",
"772 198 OFFCURVE",
"757 187 OFFCURVE",
"739 174 CURVE SMOOTH",
"720 161 OFFCURVE",
"697 150 OFFCURVE",
"669 140 CURVE SMOOTH",
"641 129 OFFCURVE",
"605 124 OFFCURVE",
"562 124 CURVE SMOOTH",
"517 124 OFFCURVE",
"476 133 OFFCURVE",
"440 150 CURVE SMOOTH",
"403 167 OFFCURVE",
"372 191 OFFCURVE",
"347 224 CURVE SMOOTH",
"321 256 OFFCURVE",
"301 296 OFFCURVE",
"287 344 CURVE SMOOTH",
"273 391 OFFCURVE",
"266 446 OFFCURVE",
"266 507 CURVE SMOOTH",
"266 566 OFFCURVE",
"273 619 OFFCURVE",
"286 666 CURVE SMOOTH",
"299 713 OFFCURVE",
"318 754 OFFCURVE",
"344 787 CURVE SMOOTH",
"369 820 OFFCURVE",
"401 846 OFFCURVE",
"439 864 CURVE SMOOTH",
"477 881 OFFCURVE",
"521 890 OFFCURVE",
"571 890 CURVE SMOOTH",
"608 890 OFFCURVE",
"640 886 OFFCURVE",
"666 878 CURVE",
"691 869 OFFCURVE",
"713 860 OFFCURVE",
"731 850 CURVE SMOOTH",
"748 840 OFFCURVE",
"763 831 OFFCURVE",
"775 823 CURVE",
"787 814 OFFCURVE",
"798 810 OFFCURVE",
"808 810 CURVE SMOOTH",
"817 810 OFFCURVE",
"825 812 OFFCURVE",
"830 816 CURVE SMOOTH",
"835 820 OFFCURVE",
"841 826 OFFCURVE",
"846 833 CURVE SMOOTH",
"893 897 LINE",
"851 939 OFFCURVE",
"803 972 OFFCURVE",
"749 995 CURVE SMOOTH",
"694 1018 OFFCURVE",
"631 1029 OFFCURVE",
"560 1029 CURVE SMOOTH",
"483 1029 OFFCURVE",
"416 1016 OFFCURVE",
"357 990 CURVE SMOOTH",
"298 964 OFFCURVE",
"248 928 OFFCURVE",
"208 882 CURVE SMOOTH",
"167 835 OFFCURVE",
"137 780 OFFCURVE",
"116 716 CURVE SMOOTH",
"95 652 OFFCURVE",
"84 582 OFFCURVE",
"84 507 CURVE SMOOTH",
"84 430 OFFCURVE",
"94 360 OFFCURVE",
"114 298 CURVE SMOOTH",
"134 236 OFFCURVE",
"162 183 OFFCURVE",
"198 139 CURVE SMOOTH",
"233 95 OFFCURVE",
"276 60 OFFCURVE",
"325 35 CURVE SMOOTH",
"374 9 OFFCURVE",
"427 -7 OFFCURVE",
"485 -12 CURVE",
"444 -137 LINE",
"495 -144 OFFCURVE",
"534 -152 OFFCURVE",
"562 -163 CURVE SMOOTH",
"590 -173 OFFCURVE",
"604 -191 OFFCURVE",
"604 -216 CURVE SMOOTH",
"604 -233 OFFCURVE",
"597 -248 OFFCURVE",
"583 -259 CURVE SMOOTH",
"569 -270 OFFCURVE",
"548 -276 OFFCURVE",
"520 -276 CURVE SMOOTH",
"505 -276 OFFCURVE",
"493 -275 OFFCURVE",
"483 -273 CURVE",
"472 -270 OFFCURVE",
"463 -268 OFFCURVE",
"456 -265 CURVE",
"448 -262 OFFCURVE",
"441 -259 OFFCURVE",
"436 -257 CURVE",
"431 -254 OFFCURVE",
"426 -253 OFFCURVE",
"422 -253 CURVE SMOOTH"
);
}
);
width = 956;
}
);
leftKerningGroup = c;
rightKerningGroup = c;
unicode = 00E7;
},
{
glyphname = d;
layers = (
{
layerId = "E7469244-AD98-4857-BCFE-AC0111B942FA";
name = Regular;
paths = (
{
closed = 1;
nodes = (
"873 0 LINE",
"979 0 LINE",
"979 1473 LINE",
"801 1473 LINE",
"801 911 LINE",
"766 949 OFFCURVE",
"727 979 OFFCURVE",
"683 1000 CURVE SMOOTH",
"638 1021 OFFCURVE",
"585 1031 OFFCURVE",
"523 1031 CURVE SMOOTH",
"455 1031 OFFCURVE",
"394 1018 OFFCURVE",
"340 991 CURVE SMOOTH",
"285 964 OFFCURVE",
"239 926 OFFCURVE",
"202 879 CURVE SMOOTH",
"165 832 OFFCURVE",
"136 776 OFFCURVE",
"116 712 CURVE SMOOTH",
"96 647 OFFCURVE",
"86 578 OFFCURVE",
"86 503 CURVE SMOOTH",
"86 419 OFFCURVE",
"95 345 OFFCURVE",
"113 280 CURVE SMOOTH",
"131 215 OFFCURVE",
"157 161 OFFCURVE",
"190 118 CURVE SMOOTH",
"223 75 OFFCURVE",
"264 42 OFFCURVE",
"311 20 CURVE SMOOTH",
"358 -3 OFFCURVE",
"411 -14 OFFCURVE",
"469 -14 CURVE SMOOTH",
"541 -14 OFFCURVE",
"605 2 OFFCURVE",
"661 34 CURVE SMOOTH",
"716 65 OFFCURVE",
"766 107 OFFCURVE",
"809 160 CURVE",
"825 37 LINE",
"832 12 OFFCURVE",
"835 -4 OFFCURVE",
"843 0 CURVE"
);
},
{
closed = 1;
nodes = (
"486 130 OFFCURVE",
"450 137 OFFCURVE",
"418 151 CURVE SMOOTH",
"386 165 OFFCURVE",
"359 187 OFFCURVE",
"337 218 CURVE SMOOTH",
"315 248 OFFCURVE",
"298 287 OFFCURVE",
"287 334 CURVE SMOOTH",
"276 381 OFFCURVE",
"270 437 OFFCURVE",
"270 503 CURVE SMOOTH",
"270 628 OFFCURVE",
"295 724 OFFCURVE",
"346 791 CURVE SMOOTH",
"397 858 OFFCURVE",
"469 892 OFFCURVE",
"563 892 CURVE SMOOTH",
"611 892 OFFCURVE",
"654 883 OFFCURVE",
"693 865 CURVE SMOOTH",
"732 847 OFFCURVE",
"768 816 OFFCURVE",
"801 772 CURVE",
"801 283 LINE",
"764 234 OFFCURVE",
"724 197 OFFCURVE",
"681 170 CURVE SMOOTH",
"637 143 OFFCURVE",
"586 130 OFFCURVE",
"527 130 CURVE SMOOTH"
);
}
);
width = 1120;
}
);
leftKerningGroup = d;
rightKerningGroup = d;
unicode = 0064;
},
{
glyphname = eth;
layers = (
{
layerId = "E7469244-AD98-4857-BCFE-AC0111B942FA";
name = Regular;
paths = (
{
closed = 1;
nodes = (
"456 1009 LINE",
"640 1144 LINE",
"703 1101 OFFCURVE",
"754 1048 OFFCURVE",
"793 985 CURVE SMOOTH",
"832 922 OFFCURVE",
"858 845 OFFCURVE",
"871 754 CURVE",
"828 812 OFFCURVE",
"778 855 OFFCURVE",
"719 884 CURVE SMOOTH",
"660 913 OFFCURVE",
"596 927 OFFCURVE",
"529 927 CURVE SMOOTH",
"460 927 OFFCURVE",
"398 915 OFFCURVE",
"343 890 CURVE SMOOTH",
"288 865 OFFCURVE",
"241 832 OFFCURVE",
"202 790 CURVE SMOOTH",
"163 748 OFFCURVE",
"134 699 OFFCURVE",
"113 644 CURVE SMOOTH",
"92 588 OFFCURVE",
"82 529 OFFCURVE",
"82 466 CURVE SMOOTH",
"82 391 OFFCURVE",
"94 324 OFFCURVE",
"118 265 CURVE SMOOTH",
"142 206 OFFCURVE",
"175 156 OFFCURVE",
"217 115 CURVE SMOOTH",
"259 74 OFFCURVE",
"308 42 OFFCURVE",
"365 20 CURVE SMOOTH",
"421 -2 OFFCURVE",
"482 -13 OFFCURVE",
"547 -13 CURVE SMOOTH",
"627 -13 OFFCURVE",
"698 1 OFFCURVE",
"759 30 CURVE SMOOTH",
"820 59 OFFCURVE",
"871 100 OFFCURVE",
"912 153 CURVE SMOOTH",
"953 206 OFFCURVE",
"983 271 OFFCURVE",
"1004 347 CURVE SMOOTH",
"1025 423 OFFCURVE",
"1035 509 OFFCURVE",
"1035 604 CURVE SMOOTH",
"1035 677 OFFCURVE",
"1029 745 OFFCURVE",
"1016 807 CURVE SMOOTH",
"1003 868 OFFCURVE",
"984 925 OFFCURVE",
"961 977 CURVE SMOOTH",
"938 1028 OFFCURVE",
"910 1075 OFFCURVE",
"877 1116 CURVE SMOOTH",
"844 1157 OFFCURVE",
"807 1194 OFFCURVE",
"767 1227 CURVE",
"864 1294 LINE",
"875 1301 OFFCURVE",
"882 1311 OFFCURVE",
"885 1322 CURVE SMOOTH",
"888 1333 OFFCURVE",
"885 1344 OFFCURVE",
"878 1355 CURVE SMOOTH",
"843 1412 LINE",
"677 1290 LINE",
"623 1322 OFFCURVE",
"566 1348 OFFCURVE",
"506 1368 CURVE SMOOTH",
"445 1388 OFFCURVE",
"383 1403 OFFCURVE",
"319 1414 CURVE",
"299 1352 LINE",
"290 1328 OFFCURVE",
"291 1309 OFFCURVE",
"300 1295 CURVE SMOOTH",
"309 1281 OFFCURVE",
"322 1272 OFFCURVE",
"337 1267 CURVE",
"375 1258 OFFCURVE",
"411 1248 OFFCURVE",
"445 1237 CURVE SMOOTH",
"478 1226 OFFCURVE",
"510 1213 OFFCURVE",
"540 1200 CURVE",
"437 1128 LINE",
"425 1121 OFFCURVE",
"418 1111 OFFCURVE",
"415 1100 CURVE SMOOTH",
"412 1089 OFFCURVE",
"415 1077 OFFCURVE",
"423 1065 CURVE"
);
},
{
closed = 1;
nodes = (
"511 125 OFFCURVE",
"474 133 OFFCURVE",
"439 148 CURVE SMOOTH",
"404 163 OFFCURVE",
"373 184 OFFCURVE",
"346 213 CURVE SMOOTH",
"319 242 OFFCURVE",
"298 277 OFFCURVE",
"283 320 CURVE SMOOTH",
"268 362 OFFCURVE",
"260 410 OFFCURVE",
"260 464 CURVE SMOOTH",
"260 509 OFFCURVE",
"267 552 OFFCURVE",
"280 592 CURVE SMOOTH",
"293 631 OFFCURVE",
"312 666 OFFCURVE",
"337 695 CURVE SMOOTH",
"362 724 OFFCURVE",
"394 746 OFFCURVE",
"432 763 CURVE SMOOTH",
"470 780 OFFCURVE",
"514 788 OFFCURVE",
"564 788 CURVE SMOOTH",
"605 788 OFFCURVE",
"643 782 OFFCURVE",
"676 770 CURVE SMOOTH",
"709 757 OFFCURVE",
"737 741 OFFCURVE",
"762 720 CURVE SMOOTH",
"787 699 OFFCURVE",
"808 675 OFFCURVE",
"825 648 CURVE SMOOTH",
"842 621 OFFCURVE",
"856 593 OFFCURVE",
"867 564 CURVE",
"865 490 OFFCURVE",
"856 426 OFFCURVE",
"841 371 CURVE SMOOTH",
"826 316 OFFCURVE",
"805 270 OFFCURVE",
"778 234 CURVE SMOOTH",
"751 197 OFFCURVE",
"718 170 OFFCURVE",
"680 152 CURVE SMOOTH",
"641 134 OFFCURVE",
"598 125 OFFCURVE",
"551 125 CURVE SMOOTH"
);
}
);
width = 1132;
}
);
leftKerningGroup = eth;
rightKerningGroup = eth;
unicode = 00F0;
},
{
glyphname = e;
layers = (
{
layerId = "E7469244-AD98-4857-BCFE-AC0111B942FA";
name = Regular;
paths = (
{
closed = 1;
nodes = (
"483 1029 OFFCURVE",
"417 1016 OFFCURVE",
"358 991 CURVE SMOOTH",
"299 965 OFFCURVE",
"250 930 OFFCURVE",
"209 885 CURVE SMOOTH",
"168 840 OFFCURVE",
"137 786 OFFCURVE",
"116 725 CURVE SMOOTH",
"94 664 OFFCURVE",
"83 598 OFFCURVE",
"83 527 CURVE SMOOTH",
"83 440 OFFCURVE",
"95 362 OFFCURVE",
"119 295 CURVE SMOOTH",
"143 228 OFFCURVE",
"177 171 OFFCURVE",
"220 126 CURVE SMOOTH",
"263 80 OFFCURVE",
"314 45 OFFCURVE",
"373 22 CURVE SMOOTH",
"432 -2 OFFCURVE",
"496 -14 OFFCURVE",
"566 -14 CURVE SMOOTH",
"603 -14 OFFCURVE",
"640 -11 OFFCURVE",
"677 -5 CURVE SMOOTH",
"714 2 OFFCURVE",
"751 11 OFFCURVE",
"786 24 CURVE SMOOTH",
"821 37 OFFCURVE",
"853 53 OFFCURVE",
"884 73 CURVE SMOOTH",
"915 92 OFFCURVE",
"941 115 OFFCURVE",
"963 142 CURVE",
"913 207 LINE SMOOTH",
"905 218 OFFCURVE",
"894 224 OFFCURVE",
"879 224 CURVE SMOOTH",
"868 224 OFFCURVE",
"854 219 OFFCURVE",
"839 209 CURVE SMOOTH",
"823 198 OFFCURVE",
"803 187 OFFCURVE",
"780 175 CURVE SMOOTH",
"757 163 OFFCURVE",
"729 152 OFFCURVE",
"697 142 CURVE SMOOTH",
"664 131 OFFCURVE",
"626 126 OFFCURVE",
"581 126 CURVE SMOOTH",
"533 126 OFFCURVE",
"490 134 OFFCURVE",
"451 150 CURVE SMOOTH",
"412 165 OFFCURVE",
"383 178 OFFCURVE",
"351 211 CURVE SMOOTH",
"333 229 OFFCURVE",
"301 271 OFFCURVE",
"285 316 CURVE SMOOTH",
"268 364 OFFCURVE",
"260 419 OFFCURVE",
"259 483 CURVE",
"936 483 LINE SMOOTH",
"953 483 OFFCURVE",
"964 488 OFFCURVE",
"970 497 CURVE SMOOTH",
"976 506 OFFCURVE",
"979 525 OFFCURVE",
"979 553 CURVE SMOOTH",
"979 625 OFFCURVE",
"968 712 OFFCURVE",
"947 769 CURVE SMOOTH",
"926 825 OFFCURVE",
"896 872 OFFCURVE",
"859 911 CURVE SMOOTH",
"821 949 OFFCURVE",
"776 978 OFFCURVE",
"725 999 CURVE SMOOTH",
"673 1019 OFFCURVE",
"617 1029 OFFCURVE",
"556 1029 CURVE SMOOTH"
);
},
{
closed = 1;
nodes = (
"601 898 OFFCURVE",
"637 891 OFFCURVE",
"669 878 CURVE SMOOTH",
"701 864 OFFCURVE",
"728 845 OFFCURVE",
"751 820 CURVE SMOOTH",
"773 795 OFFCURVE",
"790 765 OFFCURVE",
"802 731 CURVE SMOOTH",
"813 696 OFFCURVE",
"819 635 OFFCURVE",
"819 594 CURVE",
"265 594 LINE",
"277 682 OFFCURVE",
"308 774 OFFCURVE",
"357 824 CURVE SMOOTH",
"406 873 OFFCURVE",
"474 898 OFFCURVE",
"560 898 CURVE SMOOTH"
);
}
);
width = 1056;
}
);
leftKerningGroup = c;
rightKerningGroup = ae;
unicode = 0065;
},
{
glyphname = eacute;
layers = (
{
layerId = "E7469244-AD98-4857-BCFE-AC0111B942FA";
name = Regular;
paths = (
{
closed = 1;
nodes = (
"851 1449 LINE",
"677 1449 LINE SMOOTH",
"656 1449 OFFCURVE",
"640 1446 OFFCURVE",
"629 1439 CURVE SMOOTH",
"618 1432 OFFCURVE",
"607 1420 OFFCURVE",
"598 1405 CURVE SMOOTH",
"450 1163 LINE",
"556 1163 LINE SMOOTH",
"570 1163 OFFCURVE",
"582 1165 OFFCURVE",
"591 1170 CURVE",
"600 1174 OFFCURVE",
"609 1181 OFFCURVE",
"618 1191 CURVE SMOOTH"
);
},
{
closed = 1;
nodes = (
"483 1029 OFFCURVE",
"417 1016 OFFCURVE",
"358 991 CURVE SMOOTH",
"299 965 OFFCURVE",
"250 930 OFFCURVE",
"209 885 CURVE SMOOTH",
"168 840 OFFCURVE",
"137 786 OFFCURVE",
"116 725 CURVE SMOOTH",
"94 664 OFFCURVE",
"83 598 OFFCURVE",
"83 527 CURVE SMOOTH",
"83 440 OFFCURVE",
"95 362 OFFCURVE",
"119 295 CURVE SMOOTH",
"143 228 OFFCURVE",
"177 171 OFFCURVE",
"220 126 CURVE SMOOTH",
"263 80 OFFCURVE",
"314 45 OFFCURVE",
"373 22 CURVE SMOOTH",
"432 -2 OFFCURVE",
"496 -14 OFFCURVE",
"566 -14 CURVE SMOOTH",
"603 -14 OFFCURVE",
"640 -11 OFFCURVE",
"677 -5 CURVE SMOOTH",
"714 2 OFFCURVE",
"751 11 OFFCURVE",
"786 24 CURVE SMOOTH",
"821 37 OFFCURVE",
"853 53 OFFCURVE",
"884 73 CURVE SMOOTH",
"915 92 OFFCURVE",
"941 115 OFFCURVE",
"963 142 CURVE",
"913 207 LINE SMOOTH",
"905 218 OFFCURVE",
"894 224 OFFCURVE",
"879 224 CURVE SMOOTH",
"868 224 OFFCURVE",
"854 219 OFFCURVE",
"839 209 CURVE SMOOTH",
"823 198 OFFCURVE",
"803 187 OFFCURVE",
"780 175 CURVE SMOOTH",
"757 163 OFFCURVE",
"729 152 OFFCURVE",
"697 142 CURVE SMOOTH",
"664 131 OFFCURVE",
"626 126 OFFCURVE",
"581 126 CURVE SMOOTH",
"533 126 OFFCURVE",
"490 134 OFFCURVE",
"451 150 CURVE SMOOTH",
"412 165 OFFCURVE",
"383 178 OFFCURVE",
"351 211 CURVE SMOOTH",
"333 229 OFFCURVE",
"301 271 OFFCURVE",
"285 316 CURVE SMOOTH",
"268 364 OFFCURVE",
"260 419 OFFCURVE",
"259 483 CURVE",
"936 483 LINE SMOOTH",
"953 483 OFFCURVE",
"964 488 OFFCURVE",
"970 497 CURVE SMOOTH",
"976 506 OFFCURVE",
"979 525 OFFCURVE",
"979 553 CURVE SMOOTH",
"979 625 OFFCURVE",
"968 712 OFFCURVE",
"947 769 CURVE SMOOTH",
"926 825 OFFCURVE",
"896 872 OFFCURVE",
"859 911 CURVE SMOOTH",
"821 949 OFFCURVE",
"776 978 OFFCURVE",
"725 999 CURVE SMOOTH",
"673 1019 OFFCURVE",
"617 1029 OFFCURVE",
"556 1029 CURVE SMOOTH"
);
},
{
closed = 1;
nodes = (
"601 898 OFFCURVE",
"637 891 OFFCURVE",
"669 878 CURVE SMOOTH",
"701 864 OFFCURVE",
"728 845 OFFCURVE",
"751 820 CURVE SMOOTH",
"773 795 OFFCURVE",
"790 765 OFFCURVE",
"802 731 CURVE SMOOTH",
"813 696 OFFCURVE",
"819 635 OFFCURVE",
"819 594 CURVE",
"265 594 LINE",
"277 682 OFFCURVE",
"308 774 OFFCURVE",
"357 824 CURVE SMOOTH",
"406 873 OFFCURVE",
"474 898 OFFCURVE",
"560 898 CURVE SMOOTH"
);
}
);
width = 1056;
}
);
leftKerningGroup = c;
rightKerningGroup = ae;
unicode = 00E9;
},
{
glyphname = ecircumflex;
layers = (
{
layerId = "E7469244-AD98-4857-BCFE-AC0111B942FA";
name = Regular;
paths = (
{
closed = 1;
nodes = (
"866 1169 LINE",
"643 1433 LINE",
"477 1433 LINE",
"254 1169 LINE",
"377 1169 LINE SMOOTH",
"393 1169 OFFCURVE",
"408 1175 OFFCURVE",
"422 1188 CURVE",
"546 1320 LINE SMOOTH",
"551 1325 OFFCURVE",
"557 1332 OFFCURVE",
"562 1339 CURVE",
"565 1336 OFFCURVE",
"568 1332 OFFCURVE",
"571 1329 CURVE",
"573 1326 OFFCURVE",
"576 1323 OFFCURVE",
"579 1320 CURVE",
"702 1188 LINE",
"709 1181 OFFCURVE",
"717 1176 OFFCURVE",
"725 1173 CURVE",
"732 1170 OFFCURVE",
"740 1169 OFFCURVE",
"747 1169 CURVE SMOOTH"
);
},
{
closed = 1;
nodes = (
"483 1029 OFFCURVE",
"417 1016 OFFCURVE",
"358 991 CURVE SMOOTH",
"299 965 OFFCURVE",
"250 930 OFFCURVE",
"209 885 CURVE SMOOTH",
"168 840 OFFCURVE",
"137 786 OFFCURVE",
"116 725 CURVE SMOOTH",
"94 664 OFFCURVE",
"83 598 OFFCURVE",
"83 527 CURVE SMOOTH",
"83 440 OFFCURVE",
"95 362 OFFCURVE",
"119 295 CURVE SMOOTH",
"143 228 OFFCURVE",
"177 171 OFFCURVE",
"220 126 CURVE SMOOTH",
"263 80 OFFCURVE",
"314 45 OFFCURVE",
"373 22 CURVE SMOOTH",
"432 -2 OFFCURVE",
"496 -14 OFFCURVE",
"566 -14 CURVE SMOOTH",
"603 -14 OFFCURVE",
"640 -11 OFFCURVE",
"677 -5 CURVE SMOOTH",
"714 2 OFFCURVE",
"751 11 OFFCURVE",
"786 24 CURVE SMOOTH",
"821 37 OFFCURVE",
"853 53 OFFCURVE",
"884 73 CURVE SMOOTH",
"915 92 OFFCURVE",
"941 115 OFFCURVE",
"963 142 CURVE",
"913 207 LINE SMOOTH",
"905 218 OFFCURVE",
"894 224 OFFCURVE",
"879 224 CURVE SMOOTH",
"868 224 OFFCURVE",
"854 219 OFFCURVE",
"839 209 CURVE SMOOTH",
"823 198 OFFCURVE",
"803 187 OFFCURVE",
"780 175 CURVE SMOOTH",
"757 163 OFFCURVE",
"729 152 OFFCURVE",
"697 142 CURVE SMOOTH",
"664 131 OFFCURVE",
"626 126 OFFCURVE",
"581 126 CURVE SMOOTH",
"533 126 OFFCURVE",
"490 134 OFFCURVE",
"451 150 CURVE SMOOTH",
"412 165 OFFCURVE",
"383 178 OFFCURVE",
"351 211 CURVE SMOOTH",
"333 229 OFFCURVE",
"301 271 OFFCURVE",
"285 316 CURVE SMOOTH",
"268 364 OFFCURVE",
"260 419 OFFCURVE",
"259 483 CURVE",
"936 483 LINE SMOOTH",
"953 483 OFFCURVE",
"964 488 OFFCURVE",
"970 497 CURVE SMOOTH",
"976 506 OFFCURVE",
"979 525 OFFCURVE",
"979 553 CURVE SMOOTH",
"979 625 OFFCURVE",
"968 712 OFFCURVE",
"947 769 CURVE SMOOTH",
"926 825 OFFCURVE",
"896 872 OFFCURVE",
"859 911 CURVE SMOOTH",
"821 949 OFFCURVE",
"776 978 OFFCURVE",
"725 999 CURVE SMOOTH",
"673 1019 OFFCURVE",
"617 1029 OFFCURVE",
"556 1029 CURVE SMOOTH"
);
},
{
closed = 1;
nodes = (
"601 898 OFFCURVE",
"637 891 OFFCURVE",
"669 878 CURVE SMOOTH",
"701 864 OFFCURVE",
"728 845 OFFCURVE",
"751 820 CURVE SMOOTH",
"773 795 OFFCURVE",
"790 765 OFFCURVE",
"802 731 CURVE SMOOTH",
"813 696 OFFCURVE",
"819 635 OFFCURVE",
"819 594 CURVE",
"265 594 LINE",
"277 682 OFFCURVE",
"308 774 OFFCURVE",
"357 824 CURVE SMOOTH",
"406 873 OFFCURVE",
"474 898 OFFCURVE",
"560 898 CURVE SMOOTH"
);
}
);
width = 1056;
}
);
leftKerningGroup = c;
rightKerningGroup = ae;
unicode = 00EA;
},
{
glyphname = edieresis;
layers = (
{
layerId = "E7469244-AD98-4857-BCFE-AC0111B942FA";
name = Regular;
paths = (
{
closed = 1;
nodes = (
"482 1304 OFFCURVE",
"479 1319 OFFCURVE",
"473 1333 CURVE SMOOTH",
"467 1347 OFFCURVE",
"459 1359 OFFCURVE",
"448 1370 CURVE",
"437 1380 OFFCURVE",
"425 1388 OFFCURVE",
"412 1394 CURVE SMOOTH",
"398 1400 OFFCURVE",
"383 1403 OFFCURVE",
"368 1403 CURVE SMOOTH",
"353 1403 OFFCURVE",
"339 1400 OFFCURVE",
"326 1394 CURVE SMOOTH",
"313 1388 OFFCURVE",
"301 1380 OFFCURVE",
"291 1370 CURVE SMOOTH",
"280 1359 OFFCURVE",
"272 1347 OFFCURVE",
"266 1333 CURVE SMOOTH",
"260 1319 OFFCURVE",
"257 1304 OFFCURVE",
"257 1289 CURVE SMOOTH",
"257 1274 OFFCURVE",
"260 1259 OFFCURVE",
"266 1246 CURVE SMOOTH",
"272 1233 OFFCURVE",
"280 1221 OFFCURVE",
"291 1211 CURVE",
"301 1201 OFFCURVE",
"313 1193 OFFCURVE",
"326 1187 CURVE SMOOTH",
"339 1181 OFFCURVE",
"353 1178 OFFCURVE",
"368 1178 CURVE SMOOTH",
"383 1178 OFFCURVE",
"398 1181 OFFCURVE",
"412 1187 CURVE SMOOTH",
"425 1193 OFFCURVE",
"437 1201 OFFCURVE",
"448 1211 CURVE SMOOTH",
"459 1221 OFFCURVE",
"467 1233 OFFCURVE",
"473 1246 CURVE SMOOTH",
"479 1259 OFFCURVE",
"482 1274 OFFCURVE",
"482 1289 CURVE SMOOTH"
);
},
{
closed = 1;
nodes = (
"863 1304 OFFCURVE",
"860 1319 OFFCURVE",
"854 1333 CURVE SMOOTH",
"848 1347 OFFCURVE",
"840 1359 OFFCURVE",
"830 1370 CURVE",
"819 1380 OFFCURVE",
"807 1388 OFFCURVE",
"794 1394 CURVE SMOOTH",
"780 1400 OFFCURVE",
"765 1403 OFFCURVE",
"750 1403 CURVE SMOOTH",
"735 1403 OFFCURVE",
"720 1400 OFFCURVE",
"707 1394 CURVE SMOOTH",
"693 1388 OFFCURVE",
"681 1380 OFFCURVE",
"671 1370 CURVE",
"661 1359 OFFCURVE",
"653 1347 OFFCURVE",
"647 1333 CURVE SMOOTH",
"641 1319 OFFCURVE",
"638 1304 OFFCURVE",
"638 1289 CURVE SMOOTH",
"638 1274 OFFCURVE",
"641 1259 OFFCURVE",
"647 1246 CURVE SMOOTH",
"653 1233 OFFCURVE",
"661 1221 OFFCURVE",
"671 1211 CURVE SMOOTH",
"681 1201 OFFCURVE",
"693 1193 OFFCURVE",
"707 1187 CURVE SMOOTH",
"720 1181 OFFCURVE",
"735 1178 OFFCURVE",
"750 1178 CURVE SMOOTH",
"765 1178 OFFCURVE",
"780 1181 OFFCURVE",
"794 1187 CURVE SMOOTH",
"807 1193 OFFCURVE",
"819 1201 OFFCURVE",
"830 1211 CURVE",
"840 1221 OFFCURVE",
"848 1233 OFFCURVE",
"854 1246 CURVE SMOOTH",
"860 1259 OFFCURVE",
"863 1274 OFFCURVE",
"863 1289 CURVE SMOOTH"
);
},
{
closed = 1;
nodes = (
"483 1029 OFFCURVE",
"417 1016 OFFCURVE",
"358 991 CURVE SMOOTH",
"299 965 OFFCURVE",
"250 930 OFFCURVE",
"209 885 CURVE SMOOTH",
"168 840 OFFCURVE",
"137 786 OFFCURVE",
"116 725 CURVE SMOOTH",
"94 664 OFFCURVE",
"83 598 OFFCURVE",
"83 527 CURVE SMOOTH",
"83 440 OFFCURVE",
"95 362 OFFCURVE",
"119 295 CURVE SMOOTH",
"143 228 OFFCURVE",
"177 171 OFFCURVE",
"220 126 CURVE SMOOTH",
"263 80 OFFCURVE",
"314 45 OFFCURVE",
"373 22 CURVE SMOOTH",
"432 -2 OFFCURVE",
"496 -14 OFFCURVE",
"566 -14 CURVE SMOOTH",
"603 -14 OFFCURVE",
"640 -11 OFFCURVE",
"677 -5 CURVE SMOOTH",
"714 2 OFFCURVE",
"751 11 OFFCURVE",
"786 24 CURVE SMOOTH",
"821 37 OFFCURVE",
"853 53 OFFCURVE",
"884 73 CURVE SMOOTH",
"915 92 OFFCURVE",
"941 115 OFFCURVE",
"963 142 CURVE",
"913 207 LINE SMOOTH",
"905 218 OFFCURVE",
"894 224 OFFCURVE",
"879 224 CURVE SMOOTH",
"868 224 OFFCURVE",
"854 219 OFFCURVE",
"839 209 CURVE SMOOTH",
"823 198 OFFCURVE",
"803 187 OFFCURVE",
"780 175 CURVE SMOOTH",
"757 163 OFFCURVE",
"729 152 OFFCURVE",
"697 142 CURVE SMOOTH",
"664 131 OFFCURVE",
"626 126 OFFCURVE",
"581 126 CURVE SMOOTH",
"533 126 OFFCURVE",
"490 134 OFFCURVE",
"451 150 CURVE SMOOTH",
"412 165 OFFCURVE",
"383 178 OFFCURVE",
"351 211 CURVE SMOOTH",
"333 229 OFFCURVE",
"301 271 OFFCURVE",
"285 316 CURVE SMOOTH",
"268 364 OFFCURVE",
"260 419 OFFCURVE",
"259 483 CURVE",
"936 483 LINE SMOOTH",
"953 483 OFFCURVE",
"964 488 OFFCURVE",
"970 497 CURVE SMOOTH",
"976 506 OFFCURVE",
"979 525 OFFCURVE",
"979 553 CURVE SMOOTH",
"979 625 OFFCURVE",
"968 712 OFFCURVE",
"947 769 CURVE SMOOTH",
"926 825 OFFCURVE",
"896 872 OFFCURVE",
"859 911 CURVE SMOOTH",
"821 949 OFFCURVE",
"776 978 OFFCURVE",
"725 999 CURVE SMOOTH",
"673 1019 OFFCURVE",
"617 1029 OFFCURVE",
"556 1029 CURVE SMOOTH"
);
},
{
closed = 1;
nodes = (
"601 898 OFFCURVE",
"637 891 OFFCURVE",
"669 878 CURVE SMOOTH",
"701 864 OFFCURVE",
"728 845 OFFCURVE",
"751 820 CURVE SMOOTH",
"773 795 OFFCURVE",
"790 765 OFFCURVE",
"802 731 CURVE SMOOTH",
"813 696 OFFCURVE",
"819 635 OFFCURVE",
"819 594 CURVE",
"265 594 LINE",
"277 682 OFFCURVE",
"308 774 OFFCURVE",
"357 824 CURVE SMOOTH",
"406 873 OFFCURVE",
"474 898 OFFCURVE",
"560 898 CURVE SMOOTH"
);
}
);
width = 1056;
}
);
leftKerningGroup = c;
rightKerningGroup = ae;
unicode = 00EB;
},
{
glyphname = egrave;
layers = (
{
layerId = "E7469244-AD98-4857-BCFE-AC0111B942FA";
name = Regular;
paths = (
{
closed = 1;
nodes = (
"291 1449 LINE",
"525 1191 LINE SMOOTH",
"534 1181 OFFCURVE",
"543 1174 OFFCURVE",
"552 1170 CURVE",
"561 1165 OFFCURVE",
"572 1163 OFFCURVE",
"586 1163 CURVE SMOOTH",
"688 1163 LINE",
"539 1405 LINE SMOOTH",
"530 1420 OFFCURVE",
"520 1432 OFFCURVE",
"509 1439 CURVE SMOOTH",
"498 1446 OFFCURVE",
"482 1449 OFFCURVE",
"460 1449 CURVE SMOOTH"
);
},
{
closed = 1;
nodes = (
"483 1029 OFFCURVE",
"417 1016 OFFCURVE",
"358 991 CURVE SMOOTH",
"299 965 OFFCURVE",
"250 930 OFFCURVE",
"209 885 CURVE SMOOTH",
"168 840 OFFCURVE",
"137 786 OFFCURVE",
"116 725 CURVE SMOOTH",
"94 664 OFFCURVE",
"83 598 OFFCURVE",
"83 527 CURVE SMOOTH",
"83 440 OFFCURVE",
"95 362 OFFCURVE",
"119 295 CURVE SMOOTH",
"143 228 OFFCURVE",
"177 171 OFFCURVE",
"220 126 CURVE SMOOTH",
"263 80 OFFCURVE",
"314 45 OFFCURVE",
"373 22 CURVE SMOOTH",
"432 -2 OFFCURVE",
"496 -14 OFFCURVE",
"566 -14 CURVE SMOOTH",
"603 -14 OFFCURVE",
"640 -11 OFFCURVE",
"677 -5 CURVE SMOOTH",
"714 2 OFFCURVE",
"751 11 OFFCURVE",
"786 24 CURVE SMOOTH",
"821 37 OFFCURVE",
"853 53 OFFCURVE",
"884 73 CURVE SMOOTH",
"915 92 OFFCURVE",
"941 115 OFFCURVE",
"963 142 CURVE",
"913 207 LINE SMOOTH",
"905 218 OFFCURVE",
"894 224 OFFCURVE",
"879 224 CURVE SMOOTH",
"868 224 OFFCURVE",
"854 219 OFFCURVE",
"839 209 CURVE SMOOTH",
"823 198 OFFCURVE",
"803 187 OFFCURVE",
"780 175 CURVE SMOOTH",
"757 163 OFFCURVE",
"729 152 OFFCURVE",
"697 142 CURVE SMOOTH",
"664 131 OFFCURVE",
"626 126 OFFCURVE",
"581 126 CURVE SMOOTH",
"533 126 OFFCURVE",
"490 134 OFFCURVE",
"451 150 CURVE SMOOTH",
"412 165 OFFCURVE",
"383 178 OFFCURVE",
"351 211 CURVE SMOOTH",
"333 229 OFFCURVE",
"301 271 OFFCURVE",
"285 316 CURVE SMOOTH",
"268 364 OFFCURVE",
"260 419 OFFCURVE",
"259 483 CURVE",
"936 483 LINE SMOOTH",
"953 483 OFFCURVE",
"964 488 OFFCURVE",
"970 497 CURVE SMOOTH",
"976 506 OFFCURVE",
"979 525 OFFCURVE",
"979 553 CURVE SMOOTH",
"979 625 OFFCURVE",
"968 712 OFFCURVE",
"947 769 CURVE SMOOTH",
"926 825 OFFCURVE",
"896 872 OFFCURVE",
"859 911 CURVE SMOOTH",
"821 949 OFFCURVE",
"776 978 OFFCURVE",
"725 999 CURVE SMOOTH",
"673 1019 OFFCURVE",
"617 1029 OFFCURVE",
"556 1029 CURVE SMOOTH"
);
},
{
closed = 1;
nodes = (
"601 898 OFFCURVE",
"637 891 OFFCURVE",
"669 878 CURVE SMOOTH",
"701 864 OFFCURVE",
"728 845 OFFCURVE",
"751 820 CURVE SMOOTH",
"773 795 OFFCURVE",
"790 765 OFFCURVE",
"802 731 CURVE SMOOTH",
"813 696 OFFCURVE",
"819 635 OFFCURVE",
"819 594 CURVE",
"265 594 LINE",
"277 682 OFFCURVE",
"308 774 OFFCURVE",
"357 824 CURVE SMOOTH",
"406 873 OFFCURVE",
"474 898 OFFCURVE",
"560 898 CURVE SMOOTH"
);
}
);
width = 1056;
}
);
leftKerningGroup = c;
rightKerningGroup = ae;
unicode = 00E8;
},
{
glyphname = f;
layers = (
{
layerId = "E7469244-AD98-4857-BCFE-AC0111B942FA";
name = Regular;
paths = (
{
closed = 1;
nodes = (
"207 0 LINE",
"386 0 LINE",
"386 864 LINE",
"672 864 LINE",
"672 993 LINE",
"380 993 LINE",
"380 1086 LINE SMOOTH",
"380 1129 OFFCURVE",
"385 1166 OFFCURVE",
"395 1195 CURVE SMOOTH",
"404 1224 OFFCURVE",
"418 1248 OFFCURVE",
"436 1266 CURVE SMOOTH",
"454 1284 OFFCURVE",
"476 1297 OFFCURVE",
"501 1305 CURVE SMOOTH",
"526 1313 OFFCURVE",
"553 1317 OFFCURVE",
"584 1317 CURVE SMOOTH",
"611 1317 OFFCURVE",
"650 1315 OFFCURVE",
"667 1316 CURVE SMOOTH",
"683 1317 OFFCURVE",
"692 1326 OFFCURVE",
"693 1342 CURVE SMOOTH",
"697 1431 LINE",
"659 1444 OFFCURVE",
"600 1454 OFFCURVE",
"555 1454 CURVE SMOOTH",
"502 1454 OFFCURVE",
"454 1446 OFFCURVE",
"411 1430 CURVE SMOOTH",
"368 1414 OFFCURVE",
"332 1391 OFFCURVE",
"302 1360 CURVE SMOOTH",
"271 1329 OFFCURVE",
"248 1291 OFFCURVE",
"232 1246 CURVE SMOOTH",
"215 1201 OFFCURVE",
"207 1149 OFFCURVE",
"207 1091 CURVE SMOOTH",
"207 993 LINE",
"47 993 LINE",
"47 907 LINE SMOOTH",
"47 894 OFFCURVE",
"52 884 OFFCURVE",
"61 877 CURVE SMOOTH",
"70 870 OFFCURVE",
"81 864 OFFCURVE",
"95 861 CURVE",
"207 861 LINE"
);
}
);
width = 701;
}
);
leftKerningGroup = f;
rightKerningGroup = f;
unicode = 0066;
},
{
glyphname = g;
layers = (
{
layerId = "E7469244-AD98-4857-BCFE-AC0111B942FA";
name = Regular;
paths = (
{
closed = 1;
nodes = (
"980 1013 LINE",
"816 1013 LINE",
"814 896 LINE",
"779 939 OFFCURVE",
"738 972 OFFCURVE",
"692 995 CURVE SMOOTH",
"646 1018 OFFCURVE",
"590 1030 OFFCURVE",
"524 1030 CURVE SMOOTH",
"456 1030 OFFCURVE",
"395 1017 OFFCURVE",
"341 991 CURVE SMOOTH",
"286 964 OFFCURVE",
"240 928 OFFCURVE",
"203 883 CURVE SMOOTH",
"165 837 OFFCURVE",
"136 783 OFFCURVE",
"116 721 CURVE SMOOTH",
"96 658 OFFCURVE",
"86 591 OFFCURVE",
"86 519 CURVE SMOOTH",
"86 438 OFFCURVE",
"95 365 OFFCURVE",
"114 302 CURVE SMOOTH",
"132 239 OFFCURVE",
"158 186 OFFCURVE",
"192 143 CURVE SMOOTH",
"226 100 OFFCURVE",
"268 67 OFFCURVE",
"317 45 CURVE SMOOTH",
"366 22 OFFCURVE",
"421 11 OFFCURVE",
"482 11 CURVE SMOOTH",
"517 11 OFFCURVE",
"549 14 OFFCURVE",
"579 21 CURVE SMOOTH",
"608 27 OFFCURVE",
"636 37 OFFCURVE",
"661 50 CURVE SMOOTH",
"686 63 OFFCURVE",
"711 79 OFFCURVE",
"734 98 CURVE SMOOTH",
"757 117 OFFCURVE",
"779 140 OFFCURVE",
"801 165 CURVE",
"801 48 LINE SMOOTH",
"801 8 OFFCURVE",
"795 -29 OFFCURVE",
"783 -63 CURVE SMOOTH",
"770 -97 OFFCURVE",
"752 -127 OFFCURVE",
"727 -152 CURVE SMOOTH",
"702 -177 OFFCURVE",
"672 -196 OFFCURVE",
"635 -210 CURVE SMOOTH",
"598 -224 OFFCURVE",
"523 -231 OFFCURVE",
"474 -231 CURVE SMOOTH",
"431 -231 OFFCURVE",
"396 -226 OFFCURVE",
"367 -217 CURVE SMOOTH",
"338 -208 OFFCURVE",
"313 -197 OFFCURVE",
"293 -186 CURVE SMOOTH",
"273 -175 OFFCURVE",
"256 -164 OFFCURVE",
"242 -156 CURVE SMOOTH",
"228 -148 OFFCURVE",
"217 -141 OFFCURVE",
"205 -134 CURVE SMOOTH",
"185 -122 LINE",
"114 -235 LINE",
"154 -271 OFFCURVE",
"204 -301 OFFCURVE",
"264 -326 CURVE SMOOTH",
"323 -350 OFFCURVE",
"395 -362 OFFCURVE",
"478 -362 CURVE SMOOTH",
"553 -362 OFFCURVE",
"651 -352 OFFCURVE",
"710 -331 CURVE SMOOTH",
"768 -310 OFFCURVE",
"817 -281 OFFCURVE",
"857 -244 CURVE SMOOTH",
"897 -207 OFFCURVE",
"928 -163 OFFCURVE",
"949 -112 CURVE SMOOTH",
"970 -61 OFFCURVE",
"980 -5 OFFCURVE",
"980 56 CURVE SMOOTH"
);
},
{
closed = 1;
nodes = (
"487 155 OFFCURVE",
"451 162 OFFCURVE",
"419 176 CURVE SMOOTH",
"387 190 OFFCURVE",
"360 212 OFFCURVE",
"338 242 CURVE SMOOTH",
"316 271 OFFCURVE",
"299 309 OFFCURVE",
"288 355 CURVE SMOOTH",
"276 401 OFFCURVE",
"270 456 OFFCURVE",
"270 519 CURVE SMOOTH",
"270 638 OFFCURVE",
"295 730 OFFCURVE",
"346 795 CURVE SMOOTH",
"397 860 OFFCURVE",
"469 892 OFFCURVE",
"564 892 CURVE SMOOTH",
"612 892 OFFCURVE",
"656 883 OFFCURVE",
"695 865 CURVE SMOOTH",
"734 846 OFFCURVE",
"769 816 OFFCURVE",
"801 773 CURVE",
"801 309 LINE",
"764 260 OFFCURVE",
"724 222 OFFCURVE",
"681 195 CURVE SMOOTH",
"637 168 OFFCURVE",
"586 155 OFFCURVE",
"528 155 CURVE SMOOTH"
);
}
);
width = 1120;
}
);
leftKerningGroup = g;
rightKerningGroup = g;
unicode = 0067;
},
{
glyphname = h;
layers = (
{
layerId = "E7469244-AD98-4857-BCFE-AC0111B942FA";
name = Regular;
paths = (
{
closed = 1;
nodes = (
"141 0 LINE",
"320 0 LINE",
"320 746 LINE",
"358 789 OFFCURVE",
"400 824 OFFCURVE",
"446 849 CURVE SMOOTH",
"491 874 OFFCURVE",
"541 887 OFFCURVE",
"594 887 CURVE SMOOTH",
"665 887 OFFCURVE",
"719 866 OFFCURVE",
"754 824 CURVE SMOOTH",
"789 781 OFFCURVE",
"806 722 OFFCURVE",
"806 645 CURVE SMOOTH",
"806 -6 LINE",
"985 -6 LINE",
"985 645 LINE SMOOTH",
"985 702 OFFCURVE",
"978 755 OFFCURVE",
"963 802 CURVE SMOOTH",
"948 849 OFFCURVE",
"927 890 OFFCURVE",
"899 924 CURVE SMOOTH",
"870 957 OFFCURVE",
"835 983 OFFCURVE",
"793 1002 CURVE SMOOTH",
"750 1020 OFFCURVE",
"701 1029 OFFCURVE",
"646 1029 CURVE SMOOTH",
"577 1029 OFFCURVE",
"517 1015 OFFCURVE",
"464 988 CURVE SMOOTH",
"411 960 OFFCURVE",
"363 923 OFFCURVE",
"320 877 CURVE",
"320 1473 LINE",
"141 1473 LINE"
);
}
);
width = 1116;
}
);
leftKerningGroup = b;
rightKerningGroup = h;
unicode = 0068;
},
{
glyphname = i;
layers = (
{
layerId = "E7469244-AD98-4857-BCFE-AC0111B942FA";
name = Regular;
paths = (
{
closed = 1;
nodes = (
"329 1013 LINE",
"151 1013 LINE",
"151 0 LINE",
"329 0 LINE"
);
},
{
closed = 1;
nodes = (
"367 1348 OFFCURVE",
"364 1365 OFFCURVE",
"357 1381 CURVE SMOOTH",
"350 1396 OFFCURVE",
"340 1410 OFFCURVE",
"329 1422 CURVE",
"317 1433 OFFCURVE",
"303 1442 OFFCURVE",
"288 1449 CURVE SMOOTH",
"272 1456 OFFCURVE",
"255 1459 OFFCURVE",
"238 1459 CURVE SMOOTH",
"221 1459 OFFCURVE",
"205 1456 OFFCURVE",
"190 1449 CURVE SMOOTH",
"175 1442 OFFCURVE",
"161 1433 OFFCURVE",
"150 1422 CURVE",
"139 1410 OFFCURVE",
"130 1396 OFFCURVE",
"123 1381 CURVE SMOOTH",
"116 1365 OFFCURVE",
"113 1348 OFFCURVE",
"113 1331 CURVE SMOOTH",
"113 1314 OFFCURVE",
"116 1298 OFFCURVE",
"123 1283 CURVE SMOOTH",
"130 1268 OFFCURVE",
"139 1254 OFFCURVE",
"150 1243 CURVE",
"161 1231 OFFCURVE",
"175 1222 OFFCURVE",
"190 1215 CURVE SMOOTH",
"205 1208 OFFCURVE",
"221 1205 OFFCURVE",
"238 1205 CURVE SMOOTH",
"255 1205 OFFCURVE",
"272 1208 OFFCURVE",
"288 1215 CURVE SMOOTH",
"303 1222 OFFCURVE",
"317 1231 OFFCURVE",
"329 1243 CURVE SMOOTH",
"340 1254 OFFCURVE",
"350 1268 OFFCURVE",
"357 1283 CURVE SMOOTH",
"364 1298 OFFCURVE",
"367 1314 OFFCURVE",
"367 1331 CURVE SMOOTH"
);
}
);
width = 480;
}
);
leftKerningGroup = i;
rightKerningGroup = i;
unicode = 0069;
},
{
glyphname = iacute;
layers = (
{
layerId = "E7469244-AD98-4857-BCFE-AC0111B942FA";
name = Regular;
paths = (
{
closed = 1;
nodes = (
"330 1013 LINE",
"151 1013 LINE",
"151 0 LINE",
"330 0 LINE"
);
},
{
closed = 1;
nodes = (
"536 1449 LINE",
"362 1449 LINE SMOOTH",
"341 1449 OFFCURVE",
"325 1446 OFFCURVE",
"314 1439 CURVE SMOOTH",
"303 1432 OFFCURVE",
"292 1420 OFFCURVE",
"283 1405 CURVE SMOOTH",
"135 1163 LINE",
"241 1163 LINE SMOOTH",
"255 1163 OFFCURVE",
"267 1165 OFFCURVE",
"276 1170 CURVE",
"285 1174 OFFCURVE",
"294 1181 OFFCURVE",
"303 1191 CURVE SMOOTH"
);
}
);
width = 480;
}
);
leftKerningGroup = i;
rightKerningGroup = i;
unicode = 00ED;
},
{
glyphname = icircumflex;
layers = (
{
layerId = "E7469244-AD98-4857-BCFE-AC0111B942FA";
name = Regular;
paths = (
{
closed = 1;
nodes = (
"329 1013 LINE",
"150 1013 LINE",
"150 0 LINE",
"329 0 LINE"
);
},
{
closed = 1;
nodes = (
"551 1169 LINE",
"328 1433 LINE",
"162 1433 LINE",
"-61 1169 LINE",
"62 1169 LINE SMOOTH",
"78 1169 OFFCURVE",
"93 1175 OFFCURVE",
"107 1188 CURVE",
"231 1320 LINE SMOOTH",
"236 1325 OFFCURVE",
"242 1332 OFFCURVE",
"247 1339 CURVE",
"250 1336 OFFCURVE",
"253 1332 OFFCURVE",
"256 1329 CURVE",
"258 1326 OFFCURVE",
"261 1323 OFFCURVE",
"264 1320 CURVE",
"387 1188 LINE",
"394 1181 OFFCURVE",
"402 1176 OFFCURVE",
"410 1173 CURVE",
"417 1170 OFFCURVE",
"425 1169 OFFCURVE",
"432 1169 CURVE SMOOTH"
);
}
);
width = 480;
}
);
leftKerningGroup = i;
rightKerningGroup = i;
unicode = 00EE;
},
{
glyphname = idieresis;
layers = (
{
layerId = "E7469244-AD98-4857-BCFE-AC0111B942FA";
name = Regular;
paths = (
{
closed = 1;
nodes = (
"329 1013 LINE",
"150 1013 LINE",
"150 0 LINE",
"329 0 LINE"
);
},
{
closed = 1;
nodes = (
"202 1304 OFFCURVE",
"199 1319 OFFCURVE",
"193 1333 CURVE SMOOTH",
"187 1347 OFFCURVE",
"179 1359 OFFCURVE",
"168 1370 CURVE",
"157 1380 OFFCURVE",
"145 1388 OFFCURVE",
"132 1394 CURVE SMOOTH",
"118 1400 OFFCURVE",
"103 1403 OFFCURVE",
"88 1403 CURVE SMOOTH",
"73 1403 OFFCURVE",
"58 1400 OFFCURVE",
"45 1394 CURVE SMOOTH",
"32 1388 OFFCURVE",
"20 1380 OFFCURVE",
"10 1370 CURVE SMOOTH",
"-1 1359 OFFCURVE",
"-9 1347 OFFCURVE",
"-15 1333 CURVE SMOOTH",
"-21 1319 OFFCURVE",
"-24 1304 OFFCURVE",
"-24 1289 CURVE SMOOTH",
"-24 1274 OFFCURVE",
"-21 1259 OFFCURVE",
"-15 1246 CURVE SMOOTH",
"-9 1233 OFFCURVE",
"-1 1221 OFFCURVE",
"10 1211 CURVE",
"20 1201 OFFCURVE",
"32 1193 OFFCURVE",
"45 1187 CURVE SMOOTH",
"58 1181 OFFCURVE",
"73 1178 OFFCURVE",
"88 1178 CURVE SMOOTH",
"103 1178 OFFCURVE",
"118 1181 OFFCURVE",
"132 1187 CURVE SMOOTH",
"145 1193 OFFCURVE",
"157 1201 OFFCURVE",
"168 1211 CURVE SMOOTH",
"179 1221 OFFCURVE",
"187 1233 OFFCURVE",
"193 1246 CURVE SMOOTH",
"199 1259 OFFCURVE",
"202 1274 OFFCURVE",
"202 1289 CURVE SMOOTH"
);
},
{
closed = 1;
nodes = (
"514 1304 OFFCURVE",
"511 1319 OFFCURVE",
"505 1333 CURVE SMOOTH",
"499 1347 OFFCURVE",
"491 1359 OFFCURVE",
"481 1370 CURVE",
"470 1380 OFFCURVE",
"458 1388 OFFCURVE",
"444 1394 CURVE SMOOTH",
"430 1400 OFFCURVE",
"415 1403 OFFCURVE",
"400 1403 CURVE SMOOTH",
"385 1403 OFFCURVE",
"370 1400 OFFCURVE",
"357 1394 CURVE SMOOTH",
"343 1388 OFFCURVE",
"331 1380 OFFCURVE",
"321 1370 CURVE",
"311 1359 OFFCURVE",
"303 1347 OFFCURVE",
"297 1333 CURVE SMOOTH",
"291 1319 OFFCURVE",
"288 1304 OFFCURVE",
"288 1289 CURVE SMOOTH",
"288 1274 OFFCURVE",
"291 1259 OFFCURVE",
"297 1246 CURVE SMOOTH",
"303 1233 OFFCURVE",
"311 1221 OFFCURVE",
"321 1211 CURVE SMOOTH",
"331 1201 OFFCURVE",
"343 1193 OFFCURVE",
"357 1187 CURVE SMOOTH",
"370 1181 OFFCURVE",
"385 1178 OFFCURVE",
"400 1178 CURVE SMOOTH",
"415 1178 OFFCURVE",
"430 1181 OFFCURVE",
"444 1187 CURVE SMOOTH",
"458 1193 OFFCURVE",
"470 1201 OFFCURVE",
"481 1211 CURVE",
"491 1221 OFFCURVE",
"499 1233 OFFCURVE",
"505 1246 CURVE SMOOTH",
"511 1259 OFFCURVE",
"514 1274 OFFCURVE",
"514 1289 CURVE SMOOTH"
);
}
);
width = 480;
}
);
leftKerningGroup = i;
rightKerningGroup = i;
unicode = 00EF;
},
{
glyphname = igrave;
layers = (
{
layerId = "E7469244-AD98-4857-BCFE-AC0111B942FA";
name = Regular;
paths = (
{
closed = 1;
nodes = (
"329 1013 LINE",
"150 1013 LINE",
"150 0 LINE",
"329 0 LINE"
);
},
{
closed = 1;
nodes = (
"-24 1449 LINE",
"210 1191 LINE SMOOTH",
"219 1181 OFFCURVE",
"228 1174 OFFCURVE",
"237 1170 CURVE",
"246 1165 OFFCURVE",
"257 1163 OFFCURVE",
"271 1163 CURVE SMOOTH",
"373 1163 LINE",
"224 1405 LINE SMOOTH",
"215 1420 OFFCURVE",
"205 1432 OFFCURVE",
"194 1439 CURVE SMOOTH",
"183 1446 OFFCURVE",
"167 1449 OFFCURVE",
"145 1449 CURVE SMOOTH"
);
}
);
width = 480;
}
);
leftKerningGroup = i;
rightKerningGroup = i;
unicode = 00EC;
},
{
glyphname = j;
layers = (
{
layerId = "E7469244-AD98-4857-BCFE-AC0111B942FA";
name = Regular;
paths = (
{
closed = 1;
nodes = (
"329 1013 LINE",
"151 1013 LINE",
"151 -75 LINE SMOOTH",
"151 -129 OFFCURVE",
"140 -168 OFFCURVE",
"118 -193 CURVE SMOOTH",
"96 -217 OFFCURVE",
"59 -229 OFFCURVE",
"7 -229 CURVE SMOOTH",
"-6 -229 OFFCURVE",
"-16 -229 OFFCURVE",
"-25 -229 CURVE",
"-33 -228 OFFCURVE",
"-40 -228 OFFCURVE",
"-45 -229 CURVE SMOOTH",
"-50 -230 OFFCURVE",
"-55 -232 OFFCURVE",
"-58 -235 CURVE SMOOTH",
"-61 -238 OFFCURVE",
"-63 -242 OFFCURVE",
"-64 -248 CURVE",
"-71 -344 LINE",
"-53 -351 OFFCURVE",
"-35 -356 OFFCURVE",
"-17 -359 CURVE SMOOTH",
"1 -362 OFFCURVE",
"21 -364 OFFCURVE",
"42 -364 CURVE SMOOTH",
"93 -364 OFFCURVE",
"136 -357 OFFCURVE",
"173 -342 CURVE SMOOTH",
"209 -327 OFFCURVE",
"239 -306 OFFCURVE",
"262 -280 CURVE SMOOTH",
"285 -254 OFFCURVE",
"302 -224 OFFCURVE",
"313 -189 CURVE SMOOTH",
"324 -154 OFFCURVE",
"329 -116 OFFCURVE",
"329 -75 CURVE SMOOTH"
);
},
{
closed = 1;
nodes = (
"366 1348 OFFCURVE",
"363 1365 OFFCURVE",
"356 1381 CURVE SMOOTH",
"349 1396 OFFCURVE",
"339 1410 OFFCURVE",
"328 1422 CURVE",
"316 1433 OFFCURVE",
"302 1442 OFFCURVE",
"287 1449 CURVE SMOOTH",
"272 1456 OFFCURVE",
"255 1459 OFFCURVE",
"238 1459 CURVE SMOOTH",
"221 1459 OFFCURVE",
"205 1456 OFFCURVE",
"190 1449 CURVE SMOOTH",
"175 1442 OFFCURVE",
"161 1433 OFFCURVE",
"150 1422 CURVE",
"139 1410 OFFCURVE",
"130 1396 OFFCURVE",
"123 1381 CURVE SMOOTH",
"116 1365 OFFCURVE",
"113 1348 OFFCURVE",
"113 1331 CURVE SMOOTH",
"113 1314 OFFCURVE",
"116 1298 OFFCURVE",
"123 1283 CURVE SMOOTH",
"130 1268 OFFCURVE",
"139 1254 OFFCURVE",
"150 1243 CURVE",
"161 1231 OFFCURVE",
"175 1222 OFFCURVE",
"190 1215 CURVE SMOOTH",
"205 1208 OFFCURVE",
"221 1205 OFFCURVE",
"238 1205 CURVE SMOOTH",
"255 1205 OFFCURVE",
"272 1208 OFFCURVE",
"287 1215 CURVE SMOOTH",
"302 1222 OFFCURVE",
"316 1231 OFFCURVE",
"328 1243 CURVE SMOOTH",
"339 1254 OFFCURVE",
"349 1268 OFFCURVE",
"356 1283 CURVE SMOOTH",
"363 1298 OFFCURVE",
"366 1314 OFFCURVE",
"366 1331 CURVE SMOOTH"
);
}
);
width = 480;
}
);
leftKerningGroup = i;
rightKerningGroup = i;
unicode = 006A;
},
{
glyphname = k;
layers = (
{
layerId = "E7469244-AD98-4857-BCFE-AC0111B942FA";
name = Regular;
paths = (
{
closed = 1;
nodes = (
"320 1473 LINE",
"141 1473 LINE",
"141 0 LINE",
"320 0 LINE",
"320 484 LINE",
"371 484 LINE SMOOTH",
"391 484 OFFCURVE",
"406 482 OFFCURVE",
"416 478 CURVE",
"425 473 OFFCURVE",
"435 464 OFFCURVE",
"445 450 CURVE",
"778 35 LINE",
"786 22 OFFCURVE",
"796 13 OFFCURVE",
"807 8 CURVE SMOOTH",
"818 3 OFFCURVE",
"831 0 OFFCURVE",
"846 0 CURVE SMOOTH",
"1005 0 LINE",
"609 500 LINE",
"600 513 OFFCURVE",
"591 525 OFFCURVE",
"582 536 CURVE",
"572 546 OFFCURVE",
"561 555 OFFCURVE",
"549 563 CURVE",
"570 576 OFFCURVE",
"589 593 OFFCURVE",
"607 616 CURVE",
"980 1013 LINE",
"819 1013 LINE SMOOTH",
"802 1013 OFFCURVE",
"788 1010 OFFCURVE",
"778 1004 CURVE SMOOTH",
"767 997 OFFCURVE",
"757 988 OFFCURVE",
"748 977 CURVE",
"428 634 LINE SMOOTH",
"418 623 OFFCURVE",
"409 615 OFFCURVE",
"400 612 CURVE",
"391 608 OFFCURVE",
"379 606 OFFCURVE",
"366 606 CURVE SMOOTH",
"320 606 LINE"
);
}
);
width = 1016;
}
);
leftKerningGroup = b;
rightKerningGroup = k;
unicode = 006B;
},
{
glyphname = l;
layers = (
{
layerId = "E7469244-AD98-4857-BCFE-AC0111B942FA";
name = Regular;
paths = (
{
closed = 1;
nodes = (
"325 1473 LINE",
"147 1473 LINE",
"147 0 LINE",
"325 0 LINE"
);
}
);
width = 472;
}
);
leftKerningGroup = l;
rightKerningGroup = l;
unicode = 006C;
},
{
glyphname = m;
layers = (
{
layerId = "E7469244-AD98-4857-BCFE-AC0111B942FA";
name = Regular;
paths = (
{
closed = 1;
nodes = (
"141 0 LINE",
"320 0 LINE",
"320 755 LINE",
"351 796 OFFCURVE",
"386 828 OFFCURVE",
"423 852 CURVE SMOOTH",
"460 875 OFFCURVE",
"501 887 OFFCURVE",
"545 887 CURVE SMOOTH",
"608 887 OFFCURVE",
"655 867 OFFCURVE",
"688 827 CURVE SMOOTH",
"721 787 OFFCURVE",
"737 726 OFFCURVE",
"737 645 CURVE SMOOTH",
"737 6 LINE",
"916 6 LINE",
"916 645 LINE SMOOTH",
"916 685 OFFCURVE",
"922 720 OFFCURVE",
"934 751 CURVE SMOOTH",
"945 781 OFFCURVE",
"961 806 OFFCURVE",
"981 826 CURVE SMOOTH",
"1001 846 OFFCURVE",
"1024 861 OFFCURVE",
"1051 872 CURVE SMOOTH",
"1077 882 OFFCURVE",
"1105 887 OFFCURVE",
"1134 887 CURVE SMOOTH",
"1199 887 OFFCURVE",
"1249 867 OFFCURVE",
"1284 826 CURVE SMOOTH",
"1319 785 OFFCURVE",
"1336 724 OFFCURVE",
"1336 645 CURVE SMOOTH",
"1336 6 LINE",
"1515 6 LINE",
"1515 645 LINE SMOOTH",
"1515 706 OFFCURVE",
"1507 761 OFFCURVE",
"1492 809 CURVE SMOOTH",
"1477 856 OFFCURVE",
"1455 896 OFFCURVE",
"1426 929 CURVE SMOOTH",
"1397 962 OFFCURVE",
"1361 987 OFFCURVE",
"1320 1004 CURVE SMOOTH",
"1278 1021 OFFCURVE",
"1230 1029 OFFCURVE",
"1177 1029 CURVE SMOOTH",
"1144 1029 OFFCURVE",
"1111 1025 OFFCURVE",
"1079 1017 CURVE SMOOTH",
"1046 1009 OFFCURVE",
"1016 996 OFFCURVE",
"987 979 CURVE SMOOTH",
"958 962 OFFCURVE",
"933 940 OFFCURVE",
"910 913 CURVE SMOOTH",
"887 886 OFFCURVE",
"868 855 OFFCURVE",
"853 818 CURVE",
"834 883 OFFCURVE",
"804 934 OFFCURVE",
"762 972 CURVE SMOOTH",
"719 1010 OFFCURVE",
"664 1029 OFFCURVE",
"596 1029 CURVE SMOOTH",
"535 1029 OFFCURVE",
"481 1014 OFFCURVE",
"434 985 CURVE SMOOTH",
"387 956 OFFCURVE",
"345 918 OFFCURVE",
"308 872 CURVE",
"295 976 LINE",
"289 1001 OFFCURVE",
"273 1013 OFFCURVE",
"248 1013 CURVE SMOOTH",
"141 1013 LINE"
);
}
);
width = 1645;
}
);
leftKerningGroup = m;
rightKerningGroup = h;
unicode = 006D;
},
{
glyphname = n;
layers = (
{
layerId = "E7469244-AD98-4857-BCFE-AC0111B942FA";
name = Regular;
paths = (
{
closed = 1;
nodes = (
"141 0 LINE",
"320 0 LINE",
"320 746 LINE",
"358 789 OFFCURVE",
"400 824 OFFCURVE",
"446 849 CURVE SMOOTH",
"491 874 OFFCURVE",
"541 887 OFFCURVE",
"594 887 CURVE SMOOTH",
"665 887 OFFCURVE",
"719 866 OFFCURVE",
"754 824 CURVE SMOOTH",
"789 781 OFFCURVE",
"806 722 OFFCURVE",
"806 645 CURVE SMOOTH",
"806 -6 LINE",
"985 -6 LINE",
"985 645 LINE SMOOTH",
"985 702 OFFCURVE",
"978 755 OFFCURVE",
"963 802 CURVE SMOOTH",
"948 849 OFFCURVE",
"927 890 OFFCURVE",
"899 924 CURVE SMOOTH",
"870 957 OFFCURVE",
"835 983 OFFCURVE",
"793 1002 CURVE SMOOTH",
"750 1020 OFFCURVE",
"701 1029 OFFCURVE",
"646 1029 CURVE SMOOTH",
"575 1029 OFFCURVE",
"512 1014 OFFCURVE",
"457 984 CURVE SMOOTH",
"402 954 OFFCURVE",
"353 915 OFFCURVE",
"309 866 CURVE",
"295 976 LINE",
"289 1001 OFFCURVE",
"273 1013 OFFCURVE",
"248 1013 CURVE SMOOTH",
"141 1013 LINE"
);
}
);
width = 1116;
}
);
leftKerningGroup = m;
rightKerningGroup = h;
unicode = 006E;
},
{
glyphname = ntilde;
layers = (
{
layerId = "E7469244-AD98-4857-BCFE-AC0111B942FA";
name = Regular;
paths = (
{
closed = 1;
nodes = (
"141 0 LINE",
"320 0 LINE",
"320 746 LINE",
"358 789 OFFCURVE",
"400 824 OFFCURVE",
"446 849 CURVE SMOOTH",
"491 874 OFFCURVE",
"541 887 OFFCURVE",
"594 887 CURVE SMOOTH",
"665 887 OFFCURVE",
"719 866 OFFCURVE",
"754 824 CURVE SMOOTH",
"789 781 OFFCURVE",
"806 722 OFFCURVE",
"806 645 CURVE SMOOTH",
"806 -6 LINE",
"985 -6 LINE",
"985 645 LINE SMOOTH",
"985 702 OFFCURVE",
"978 755 OFFCURVE",
"963 802 CURVE SMOOTH",
"948 849 OFFCURVE",
"927 890 OFFCURVE",
"899 924 CURVE SMOOTH",
"870 957 OFFCURVE",
"835 983 OFFCURVE",
"793 1002 CURVE SMOOTH",
"750 1020 OFFCURVE",
"701 1029 OFFCURVE",
"646 1029 CURVE SMOOTH",
"575 1029 OFFCURVE",
"512 1014 OFFCURVE",
"457 984 CURVE SMOOTH",
"402 954 OFFCURVE",
"353 915 OFFCURVE",
"309 866 CURVE",
"295 976 LINE",
"289 1001 OFFCURVE",
"273 1013 OFFCURVE",
"248 1013 CURVE SMOOTH",
"141 1013 LINE"
);
},
{
closed = 1;
nodes = (
"659 1325 OFFCURVE",
"643 1330 OFFCURVE",
"628 1340 CURVE",
"612 1349 OFFCURVE",
"595 1360 OFFCURVE",
"577 1371 CURVE SMOOTH",
"559 1382 OFFCURVE",
"540 1393 OFFCURVE",
"520 1403 CURVE",
"499 1412 OFFCURVE",
"477 1417 OFFCURVE",
"454 1417 CURVE SMOOTH",
"428 1417 OFFCURVE",
"404 1412 OFFCURVE",
"382 1402 CURVE",
"360 1391 OFFCURVE",
"341 1377 OFFCURVE",
"325 1358 CURVE SMOOTH",
"309 1339 OFFCURVE",
"297 1316 OFFCURVE",
"288 1290 CURVE SMOOTH",
"279 1263 OFFCURVE",
"275 1234 OFFCURVE",
"275 1202 CURVE",
"386 1202 LINE",
"387 1261 OFFCURVE",
"412 1290 OFFCURVE",
"460 1290 CURVE SMOOTH",
"475 1290 OFFCURVE",
"491 1285 OFFCURVE",
"507 1276 CURVE",
"523 1266 OFFCURVE",
"540 1255 OFFCURVE",
"558 1244 CURVE SMOOTH",
"576 1233 OFFCURVE",
"595 1222 OFFCURVE",
"616 1213 CURVE",
"636 1203 OFFCURVE",
"658 1198 OFFCURVE",
"681 1198 CURVE SMOOTH",
"708 1198 OFFCURVE",
"732 1203 OFFCURVE",
"754 1214 CURVE SMOOTH",
"775 1224 OFFCURVE",
"794 1238 OFFCURVE",
"810 1257 CURVE SMOOTH",
"825 1276 OFFCURVE",
"837 1298 OFFCURVE",
"846 1325 CURVE SMOOTH",
"854 1351 OFFCURVE",
"858 1380 OFFCURVE",
"858 1411 CURVE",
"750 1411 LINE",
"749 1382 OFFCURVE",
"743 1360 OFFCURVE",
"730 1346 CURVE SMOOTH",
"717 1332 OFFCURVE",
"698 1325 OFFCURVE",
"674 1325 CURVE SMOOTH"
);
}
);
width = 1116;
}
);
leftKerningGroup = m;
rightKerningGroup = h;
unicode = 00F1;
},
{
glyphname = o;
layers = (
{
layerId = "E7469244-AD98-4857-BCFE-AC0111B942FA";
name = Regular;
paths = (
{
closed = 1;
nodes = (
"493 1029 OFFCURVE",
"426 1017 OFFCURVE",
"367 992 CURVE SMOOTH",
"307 967 OFFCURVE",
"256 932 OFFCURVE",
"214 887 CURVE SMOOTH",
"172 842 OFFCURVE",
"140 787 OFFCURVE",
"118 723 CURVE SMOOTH",
"95 658 OFFCURVE",
"84 586 OFFCURVE",
"84 507 CURVE SMOOTH",
"84 427 OFFCURVE",
"95 355 OFFCURVE",
"118 291 CURVE SMOOTH",
"140 227 OFFCURVE",
"172 172 OFFCURVE",
"214 127 CURVE SMOOTH",
"256 82 OFFCURVE",
"307 47 OFFCURVE",
"367 23 CURVE SMOOTH",
"426 -2 OFFCURVE",
"493 -14 OFFCURVE",
"568 -14 CURVE SMOOTH",
"642 -14 OFFCURVE",
"709 -2 OFFCURVE",
"768 23 CURVE SMOOTH",
"827 47 OFFCURVE",
"878 82 OFFCURVE",
"920 127 CURVE SMOOTH",
"962 172 OFFCURVE",
"994 227 OFFCURVE",
"1017 291 CURVE SMOOTH",
"1039 355 OFFCURVE",
"1050 427 OFFCURVE",
"1050 507 CURVE SMOOTH",
"1050 586 OFFCURVE",
"1039 658 OFFCURVE",
"1017 723 CURVE SMOOTH",
"994 787 OFFCURVE",
"962 842 OFFCURVE",
"920 887 CURVE SMOOTH",
"878 932 OFFCURVE",
"827 967 OFFCURVE",
"768 992 CURVE SMOOTH",
"709 1017 OFFCURVE",
"642 1029 OFFCURVE",
"568 1029 CURVE SMOOTH"
);
},
{
closed = 1;
nodes = (
"467 125 OFFCURVE",
"391 159 OFFCURVE",
"342 226 CURVE SMOOTH",
"292 293 OFFCURVE",
"267 386 OFFCURVE",
"267 506 CURVE SMOOTH",
"267 566 OFFCURVE",
"273 620 OFFCURVE",
"286 668 CURVE SMOOTH",
"298 715 OFFCURVE",
"317 755 OFFCURVE",
"342 788 CURVE SMOOTH",
"367 821 OFFCURVE",
"398 846 OFFCURVE",
"436 863 CURVE SMOOTH",
"473 880 OFFCURVE",
"517 889 OFFCURVE",
"568 889 CURVE SMOOTH",
"668 889 OFFCURVE",
"743 855 OFFCURVE",
"792 788 CURVE SMOOTH",
"841 721 OFFCURVE",
"866 627 OFFCURVE",
"866 506 CURVE SMOOTH",
"866 386 OFFCURVE",
"841 293 OFFCURVE",
"792 226 CURVE SMOOTH",
"743 159 OFFCURVE",
"668 125 OFFCURVE",
"568 125 CURVE SMOOTH"
);
}
);
width = 1134;
}
);
leftKerningGroup = c;
rightKerningGroup = o;
unicode = 006F;
},
{
glyphname = oacute;
layers = (
{
layerId = "E7469244-AD98-4857-BCFE-AC0111B942FA";
name = Regular;
paths = (
{
closed = 1;
nodes = (
"493 1029 OFFCURVE",
"426 1017 OFFCURVE",
"367 992 CURVE SMOOTH",
"307 967 OFFCURVE",
"256 932 OFFCURVE",
"214 887 CURVE SMOOTH",
"172 842 OFFCURVE",
"140 787 OFFCURVE",
"118 723 CURVE SMOOTH",
"95 658 OFFCURVE",
"84 586 OFFCURVE",
"84 507 CURVE SMOOTH",
"84 427 OFFCURVE",
"95 355 OFFCURVE",
"118 291 CURVE SMOOTH",
"140 227 OFFCURVE",
"172 172 OFFCURVE",
"214 127 CURVE SMOOTH",
"256 82 OFFCURVE",
"307 47 OFFCURVE",
"367 23 CURVE SMOOTH",
"426 -2 OFFCURVE",
"493 -14 OFFCURVE",
"568 -14 CURVE SMOOTH",
"642 -14 OFFCURVE",
"709 -2 OFFCURVE",
"768 23 CURVE SMOOTH",
"827 47 OFFCURVE",
"878 82 OFFCURVE",
"920 127 CURVE SMOOTH",
"962 172 OFFCURVE",
"994 227 OFFCURVE",
"1017 291 CURVE SMOOTH",
"1039 355 OFFCURVE",
"1050 427 OFFCURVE",
"1050 507 CURVE SMOOTH",
"1050 586 OFFCURVE",
"1039 658 OFFCURVE",
"1017 723 CURVE SMOOTH",
"994 787 OFFCURVE",
"962 842 OFFCURVE",
"920 887 CURVE SMOOTH",
"878 932 OFFCURVE",
"827 967 OFFCURVE",
"768 992 CURVE SMOOTH",
"709 1017 OFFCURVE",
"642 1029 OFFCURVE",
"568 1029 CURVE SMOOTH"
);
},
{
closed = 1;
nodes = (
"467 125 OFFCURVE",
"391 159 OFFCURVE",
"342 226 CURVE SMOOTH",
"292 293 OFFCURVE",
"267 386 OFFCURVE",
"267 506 CURVE SMOOTH",
"267 566 OFFCURVE",
"273 620 OFFCURVE",
"286 668 CURVE SMOOTH",
"298 715 OFFCURVE",
"317 755 OFFCURVE",
"342 788 CURVE SMOOTH",
"367 821 OFFCURVE",
"398 846 OFFCURVE",
"436 863 CURVE SMOOTH",
"473 880 OFFCURVE",
"517 889 OFFCURVE",
"568 889 CURVE SMOOTH",
"668 889 OFFCURVE",
"743 855 OFFCURVE",
"792 788 CURVE SMOOTH",
"841 721 OFFCURVE",
"866 627 OFFCURVE",
"866 506 CURVE SMOOTH",
"866 386 OFFCURVE",
"841 293 OFFCURVE",
"792 226 CURVE SMOOTH",
"743 159 OFFCURVE",
"668 125 OFFCURVE",
"568 125 CURVE SMOOTH"
);
},
{
closed = 1;
nodes = (
"860 1449 LINE",
"686 1449 LINE SMOOTH",
"665 1449 OFFCURVE",
"649 1446 OFFCURVE",
"638 1439 CURVE SMOOTH",
"627 1432 OFFCURVE",
"616 1420 OFFCURVE",
"607 1405 CURVE SMOOTH",
"459 1163 LINE",
"565 1163 LINE SMOOTH",
"579 1163 OFFCURVE",
"591 1165 OFFCURVE",
"600 1170 CURVE",
"609 1174 OFFCURVE",
"618 1181 OFFCURVE",
"627 1191 CURVE SMOOTH"
);
}
);
width = 1134;
}
);
leftKerningGroup = c;
rightKerningGroup = o;
unicode = 00F3;
},
{
glyphname = ocircumflex;
layers = (
{
layerId = "E7469244-AD98-4857-BCFE-AC0111B942FA";
name = Regular;
paths = (
{
closed = 1;
nodes = (
"493 1029 OFFCURVE",
"426 1017 OFFCURVE",
"367 992 CURVE SMOOTH",
"307 967 OFFCURVE",
"256 932 OFFCURVE",
"214 887 CURVE SMOOTH",
"172 842 OFFCURVE",
"140 787 OFFCURVE",
"118 723 CURVE SMOOTH",
"95 658 OFFCURVE",
"84 586 OFFCURVE",
"84 507 CURVE SMOOTH",
"84 427 OFFCURVE",
"95 355 OFFCURVE",
"118 291 CURVE SMOOTH",
"140 227 OFFCURVE",
"172 172 OFFCURVE",
"214 127 CURVE SMOOTH",
"256 82 OFFCURVE",
"307 47 OFFCURVE",
"367 23 CURVE SMOOTH",
"426 -2 OFFCURVE",
"493 -14 OFFCURVE",
"568 -14 CURVE SMOOTH",
"642 -14 OFFCURVE",
"709 -2 OFFCURVE",
"768 23 CURVE SMOOTH",
"827 47 OFFCURVE",
"878 82 OFFCURVE",
"920 127 CURVE SMOOTH",
"962 172 OFFCURVE",
"994 227 OFFCURVE",
"1017 291 CURVE SMOOTH",
"1039 355 OFFCURVE",
"1050 427 OFFCURVE",
"1050 507 CURVE SMOOTH",
"1050 586 OFFCURVE",
"1039 658 OFFCURVE",
"1017 723 CURVE SMOOTH",
"994 787 OFFCURVE",
"962 842 OFFCURVE",
"920 887 CURVE SMOOTH",
"878 932 OFFCURVE",
"827 967 OFFCURVE",
"768 992 CURVE SMOOTH",
"709 1017 OFFCURVE",
"642 1029 OFFCURVE",
"568 1029 CURVE SMOOTH"
);
},
{
closed = 1;
nodes = (
"467 125 OFFCURVE",
"391 159 OFFCURVE",
"342 226 CURVE SMOOTH",
"292 293 OFFCURVE",
"267 386 OFFCURVE",
"267 506 CURVE SMOOTH",
"267 566 OFFCURVE",
"273 620 OFFCURVE",
"286 668 CURVE SMOOTH",
"298 715 OFFCURVE",
"317 755 OFFCURVE",
"342 788 CURVE SMOOTH",
"367 821 OFFCURVE",
"398 846 OFFCURVE",
"436 863 CURVE SMOOTH",
"473 880 OFFCURVE",
"517 889 OFFCURVE",
"568 889 CURVE SMOOTH",
"668 889 OFFCURVE",
"743 855 OFFCURVE",
"792 788 CURVE SMOOTH",
"841 721 OFFCURVE",
"866 627 OFFCURVE",
"866 506 CURVE SMOOTH",
"866 386 OFFCURVE",
"841 293 OFFCURVE",
"792 226 CURVE SMOOTH",
"743 159 OFFCURVE",
"668 125 OFFCURVE",
"568 125 CURVE SMOOTH"
);
},
{
closed = 1;
nodes = (
"875 1169 LINE",
"652 1433 LINE",
"486 1433 LINE",
"263 1169 LINE",
"386 1169 LINE SMOOTH",
"402 1169 OFFCURVE",
"417 1175 OFFCURVE",
"431 1188 CURVE",
"555 1320 LINE SMOOTH",
"560 1325 OFFCURVE",
"566 1332 OFFCURVE",
"571 1339 CURVE",
"574 1336 OFFCURVE",
"577 1332 OFFCURVE",
"580 1329 CURVE",
"582 1326 OFFCURVE",
"585 1323 OFFCURVE",
"588 1320 CURVE",
"711 1188 LINE",
"718 1181 OFFCURVE",
"726 1176 OFFCURVE",
"734 1173 CURVE",
"741 1170 OFFCURVE",
"749 1169 OFFCURVE",
"756 1169 CURVE SMOOTH"
);
}
);
width = 1134;
}
);
leftKerningGroup = c;
rightKerningGroup = o;
unicode = 00F4;
},
{
glyphname = odieresis;
layers = (
{
layerId = "E7469244-AD98-4857-BCFE-AC0111B942FA";
name = Regular;
paths = (
{
closed = 1;
nodes = (
"493 1029 OFFCURVE",
"426 1017 OFFCURVE",
"367 992 CURVE SMOOTH",
"307 967 OFFCURVE",
"256 932 OFFCURVE",
"214 887 CURVE SMOOTH",
"172 842 OFFCURVE",
"140 787 OFFCURVE",
"118 723 CURVE SMOOTH",
"95 658 OFFCURVE",
"84 586 OFFCURVE",
"84 507 CURVE SMOOTH",
"84 427 OFFCURVE",
"95 355 OFFCURVE",
"118 291 CURVE SMOOTH",
"140 227 OFFCURVE",
"172 172 OFFCURVE",
"214 127 CURVE SMOOTH",
"256 82 OFFCURVE",
"307 47 OFFCURVE",
"367 23 CURVE SMOOTH",
"426 -2 OFFCURVE",
"493 -14 OFFCURVE",
"568 -14 CURVE SMOOTH",
"642 -14 OFFCURVE",
"709 -2 OFFCURVE",
"768 23 CURVE SMOOTH",
"827 47 OFFCURVE",
"878 82 OFFCURVE",
"920 127 CURVE SMOOTH",
"962 172 OFFCURVE",
"994 227 OFFCURVE",
"1017 291 CURVE SMOOTH",
"1039 355 OFFCURVE",
"1050 427 OFFCURVE",
"1050 507 CURVE SMOOTH",
"1050 586 OFFCURVE",
"1039 658 OFFCURVE",
"1017 723 CURVE SMOOTH",
"994 787 OFFCURVE",
"962 842 OFFCURVE",
"920 887 CURVE SMOOTH",
"878 932 OFFCURVE",
"827 967 OFFCURVE",
"768 992 CURVE SMOOTH",
"709 1017 OFFCURVE",
"642 1029 OFFCURVE",
"568 1029 CURVE SMOOTH"
);
},
{
closed = 1;
nodes = (
"467 125 OFFCURVE",
"391 159 OFFCURVE",
"342 226 CURVE SMOOTH",
"292 293 OFFCURVE",
"267 386 OFFCURVE",
"267 506 CURVE SMOOTH",
"267 566 OFFCURVE",
"273 620 OFFCURVE",
"286 668 CURVE SMOOTH",
"298 715 OFFCURVE",
"317 755 OFFCURVE",
"342 788 CURVE SMOOTH",
"367 821 OFFCURVE",
"398 846 OFFCURVE",
"436 863 CURVE SMOOTH",
"473 880 OFFCURVE",
"517 889 OFFCURVE",
"568 889 CURVE SMOOTH",
"668 889 OFFCURVE",
"743 855 OFFCURVE",
"792 788 CURVE SMOOTH",
"841 721 OFFCURVE",
"866 627 OFFCURVE",
"866 506 CURVE SMOOTH",
"866 386 OFFCURVE",
"841 293 OFFCURVE",
"792 226 CURVE SMOOTH",
"743 159 OFFCURVE",
"668 125 OFFCURVE",
"568 125 CURVE SMOOTH"
);
},
{
closed = 1;
nodes = (
"491 1304 OFFCURVE",
"488 1319 OFFCURVE",
"482 1333 CURVE SMOOTH",
"476 1347 OFFCURVE",
"468 1359 OFFCURVE",
"457 1370 CURVE",
"446 1380 OFFCURVE",
"434 1388 OFFCURVE",
"421 1394 CURVE SMOOTH",
"407 1400 OFFCURVE",
"392 1403 OFFCURVE",
"377 1403 CURVE SMOOTH",
"362 1403 OFFCURVE",
"348 1400 OFFCURVE",
"335 1394 CURVE SMOOTH",
"322 1388 OFFCURVE",
"310 1380 OFFCURVE",
"300 1370 CURVE SMOOTH",
"289 1359 OFFCURVE",
"281 1347 OFFCURVE",
"275 1333 CURVE SMOOTH",
"269 1319 OFFCURVE",
"266 1304 OFFCURVE",
"266 1289 CURVE SMOOTH",
"266 1274 OFFCURVE",
"269 1259 OFFCURVE",
"275 1246 CURVE SMOOTH",
"281 1233 OFFCURVE",
"289 1221 OFFCURVE",
"300 1211 CURVE",
"310 1201 OFFCURVE",
"322 1193 OFFCURVE",
"335 1187 CURVE SMOOTH",
"348 1181 OFFCURVE",
"362 1178 OFFCURVE",
"377 1178 CURVE SMOOTH",
"392 1178 OFFCURVE",
"407 1181 OFFCURVE",
"421 1187 CURVE SMOOTH",
"434 1193 OFFCURVE",
"446 1201 OFFCURVE",
"457 1211 CURVE SMOOTH",
"468 1221 OFFCURVE",
"476 1233 OFFCURVE",
"482 1246 CURVE SMOOTH",
"488 1259 OFFCURVE",
"491 1274 OFFCURVE",
"491 1289 CURVE SMOOTH"
);
},
{
closed = 1;
nodes = (
"872 1304 OFFCURVE",
"869 1319 OFFCURVE",
"863 1333 CURVE SMOOTH",
"857 1347 OFFCURVE",
"849 1359 OFFCURVE",
"839 1370 CURVE",
"828 1380 OFFCURVE",
"816 1388 OFFCURVE",
"803 1394 CURVE SMOOTH",
"789 1400 OFFCURVE",
"774 1403 OFFCURVE",
"759 1403 CURVE SMOOTH",
"744 1403 OFFCURVE",
"729 1400 OFFCURVE",
"716 1394 CURVE SMOOTH",
"702 1388 OFFCURVE",
"690 1380 OFFCURVE",
"680 1370 CURVE",
"670 1359 OFFCURVE",
"662 1347 OFFCURVE",
"656 1333 CURVE SMOOTH",
"650 1319 OFFCURVE",
"647 1304 OFFCURVE",
"647 1289 CURVE SMOOTH",
"647 1274 OFFCURVE",
"650 1259 OFFCURVE",
"656 1246 CURVE SMOOTH",
"662 1233 OFFCURVE",
"670 1221 OFFCURVE",
"680 1211 CURVE SMOOTH",
"690 1201 OFFCURVE",
"702 1193 OFFCURVE",
"716 1187 CURVE SMOOTH",
"729 1181 OFFCURVE",
"744 1178 OFFCURVE",
"759 1178 CURVE SMOOTH",
"774 1178 OFFCURVE",
"789 1181 OFFCURVE",
"803 1187 CURVE SMOOTH",
"816 1193 OFFCURVE",
"828 1201 OFFCURVE",
"839 1211 CURVE",
"849 1221 OFFCURVE",
"857 1233 OFFCURVE",
"863 1246 CURVE SMOOTH",
"869 1259 OFFCURVE",
"872 1274 OFFCURVE",
"872 1289 CURVE SMOOTH"
);
}
);
width = 1134;
}
);
leftKerningGroup = c;
rightKerningGroup = o;
unicode = 00F6;
},
{
glyphname = ograve;
layers = (
{
layerId = "E7469244-AD98-4857-BCFE-AC0111B942FA";
name = Regular;
paths = (
{
closed = 1;
nodes = (
"493 1029 OFFCURVE",
"426 1017 OFFCURVE",
"367 992 CURVE SMOOTH",
"307 967 OFFCURVE",
"256 932 OFFCURVE",
"214 887 CURVE SMOOTH",
"172 842 OFFCURVE",
"140 787 OFFCURVE",
"118 723 CURVE SMOOTH",
"95 658 OFFCURVE",
"84 586 OFFCURVE",
"84 507 CURVE SMOOTH",
"84 427 OFFCURVE",
"95 355 OFFCURVE",
"118 291 CURVE SMOOTH",
"140 227 OFFCURVE",
"172 172 OFFCURVE",
"214 127 CURVE SMOOTH",
"256 82 OFFCURVE",
"307 47 OFFCURVE",
"367 23 CURVE SMOOTH",
"426 -2 OFFCURVE",
"493 -14 OFFCURVE",
"568 -14 CURVE SMOOTH",
"642 -14 OFFCURVE",
"709 -2 OFFCURVE",
"768 23 CURVE SMOOTH",
"827 47 OFFCURVE",
"878 82 OFFCURVE",
"920 127 CURVE SMOOTH",
"962 172 OFFCURVE",
"994 227 OFFCURVE",
"1017 291 CURVE SMOOTH",
"1039 355 OFFCURVE",
"1050 427 OFFCURVE",
"1050 507 CURVE SMOOTH",
"1050 586 OFFCURVE",
"1039 658 OFFCURVE",
"1017 723 CURVE SMOOTH",
"994 787 OFFCURVE",
"962 842 OFFCURVE",
"920 887 CURVE SMOOTH",
"878 932 OFFCURVE",
"827 967 OFFCURVE",
"768 992 CURVE SMOOTH",
"709 1017 OFFCURVE",
"642 1029 OFFCURVE",
"568 1029 CURVE SMOOTH"
);
},
{
closed = 1;
nodes = (
"467 125 OFFCURVE",
"391 159 OFFCURVE",
"342 226 CURVE SMOOTH",
"292 293 OFFCURVE",
"267 386 OFFCURVE",
"267 506 CURVE SMOOTH",
"267 566 OFFCURVE",
"273 620 OFFCURVE",
"286 668 CURVE SMOOTH",
"298 715 OFFCURVE",
"317 755 OFFCURVE",
"342 788 CURVE SMOOTH",
"367 821 OFFCURVE",
"398 846 OFFCURVE",
"436 863 CURVE SMOOTH",
"473 880 OFFCURVE",
"517 889 OFFCURVE",
"568 889 CURVE SMOOTH",
"668 889 OFFCURVE",
"743 855 OFFCURVE",
"792 788 CURVE SMOOTH",
"841 721 OFFCURVE",
"866 627 OFFCURVE",
"866 506 CURVE SMOOTH",
"866 386 OFFCURVE",
"841 293 OFFCURVE",
"792 226 CURVE SMOOTH",
"743 159 OFFCURVE",
"668 125 OFFCURVE",
"568 125 CURVE SMOOTH"
);
},
{
closed = 1;
nodes = (
"300 1449 LINE",
"534 1191 LINE SMOOTH",
"543 1181 OFFCURVE",
"552 1174 OFFCURVE",
"561 1170 CURVE",
"570 1165 OFFCURVE",
"581 1163 OFFCURVE",
"595 1163 CURVE SMOOTH",
"697 1163 LINE",
"548 1405 LINE SMOOTH",
"539 1420 OFFCURVE",
"529 1432 OFFCURVE",
"518 1439 CURVE SMOOTH",
"507 1446 OFFCURVE",
"491 1449 OFFCURVE",
"469 1449 CURVE SMOOTH"
);
}
);
width = 1134;
}
);
leftKerningGroup = c;
rightKerningGroup = o;
unicode = 00F2;
},
{
glyphname = oslash;
layers = (
{
layerId = "E7469244-AD98-4857-BCFE-AC0111B942FA";
name = Regular;
paths = (
{
closed = 1;
nodes = (
"1079 1097 LINE",
"990 1097 LINE SMOOTH",
"968 1097 OFFCURVE",
"952 1093 OFFCURVE",
"941 1086 CURVE SMOOTH",
"930 1079 OFFCURVE",
"918 1066 OFFCURVE",
"906 1047 CURVE",
"838 955 LINE",
"801 979 OFFCURVE",
"760 997 OFFCURVE",
"715 1010 CURVE SMOOTH",
"670 1023 OFFCURVE",
"621 1029 OFFCURVE",
"568 1029 CURVE SMOOTH",
"493 1029 OFFCURVE",
"426 1017 OFFCURVE",
"367 992 CURVE SMOOTH",
"307 967 OFFCURVE",
"256 932 OFFCURVE",
"214 887 CURVE SMOOTH",
"172 842 OFFCURVE",
"140 787 OFFCURVE",
"118 723 CURVE SMOOTH",
"95 658 OFFCURVE",
"84 586 OFFCURVE",
"84 507 CURVE SMOOTH",
"84 424 OFFCURVE",
"96 351 OFFCURVE",
"119 286 CURVE SMOOTH",
"142 221 OFFCURVE",
"176 166 OFFCURVE",
"220 120 CURVE",
"75 -76 LINE",
"142 -76 LINE SMOOTH",
"161 -76 OFFCURVE",
"181 -72 OFFCURVE",
"202 -64 CURVE SMOOTH",
"222 -56 OFFCURVE",
"239 -42 OFFCURVE",
"252 -22 CURVE",
"307 52 LINE",
"343 31 OFFCURVE",
"383 14 OFFCURVE",
"427 3 CURVE SMOOTH",
"470 -8 OFFCURVE",
"517 -14 OFFCURVE",
"568 -14 CURVE SMOOTH",
"642 -14 OFFCURVE",
"709 -2 OFFCURVE",
"768 23 CURVE SMOOTH",
"827 47 OFFCURVE",
"878 82 OFFCURVE",
"920 127 CURVE SMOOTH",
"962 172 OFFCURVE",
"994 227 OFFCURVE",
"1017 291 CURVE SMOOTH",
"1039 355 OFFCURVE",
"1050 427 OFFCURVE",
"1050 507 CURVE SMOOTH",
"1050 586 OFFCURVE",
"1039 657 OFFCURVE",
"1017 721 CURVE SMOOTH",
"995 784 OFFCURVE",
"963 839 OFFCURVE",
"922 885 CURVE"
);
},
{
closed = 1;
nodes = (
"257 566 OFFCURVE",
"264 620 OFFCURVE",
"277 669 CURVE SMOOTH",
"290 717 OFFCURVE",
"310 758 OFFCURVE",
"337 791 CURVE SMOOTH",
"363 824 OFFCURVE",
"395 850 OFFCURVE",
"434 868 CURVE SMOOTH",
"473 886 OFFCURVE",
"517 895 OFFCURVE",
"568 895 CURVE SMOOTH",
"642 895 OFFCURVE",
"703 876 OFFCURVE",
"752 839 CURVE",
"316 249 LINE",
"277 314 OFFCURVE",
"257 399 OFFCURVE",
"257 506 CURVE SMOOTH"
);
},
{
closed = 1;
nodes = (
"497 120 OFFCURVE",
"439 136 OFFCURVE",
"392 168 CURVE",
"825 753 LINE",
"860 689 OFFCURVE",
"877 607 OFFCURVE",
"877 506 CURVE SMOOTH",
"877 446 OFFCURVE",
"870 392 OFFCURVE",
"857 345 CURVE SMOOTH",
"844 297 OFFCURVE",
"824 256 OFFCURVE",
"798 223 CURVE SMOOTH",
"771 190 OFFCURVE",
"739 164 OFFCURVE",
"701 147 CURVE SMOOTH",
"662 129 OFFCURVE",
"618 120 OFFCURVE",
"568 120 CURVE SMOOTH"
);
}
);
width = 1133;
}
);
leftKerningGroup = c;
rightKerningGroup = o;
unicode = 00F8;
},
{
glyphname = otilde;
layers = (
{
layerId = "E7469244-AD98-4857-BCFE-AC0111B942FA";
name = Regular;
paths = (
{
closed = 1;
nodes = (
"493 1029 OFFCURVE",
"426 1017 OFFCURVE",
"367 992 CURVE SMOOTH",
"307 967 OFFCURVE",
"256 932 OFFCURVE",
"214 887 CURVE SMOOTH",
"172 842 OFFCURVE",
"140 787 OFFCURVE",
"118 723 CURVE SMOOTH",
"95 658 OFFCURVE",
"84 586 OFFCURVE",
"84 507 CURVE SMOOTH",
"84 427 OFFCURVE",
"95 355 OFFCURVE",
"118 291 CURVE SMOOTH",
"140 227 OFFCURVE",
"172 172 OFFCURVE",
"214 127 CURVE SMOOTH",
"256 82 OFFCURVE",
"307 47 OFFCURVE",
"367 23 CURVE SMOOTH",
"426 -2 OFFCURVE",
"493 -14 OFFCURVE",
"568 -14 CURVE SMOOTH",
"642 -14 OFFCURVE",
"709 -2 OFFCURVE",
"768 23 CURVE SMOOTH",
"827 47 OFFCURVE",
"878 82 OFFCURVE",
"920 127 CURVE SMOOTH",
"962 172 OFFCURVE",
"994 227 OFFCURVE",
"1017 291 CURVE SMOOTH",
"1039 355 OFFCURVE",
"1050 427 OFFCURVE",
"1050 507 CURVE SMOOTH",
"1050 586 OFFCURVE",
"1039 658 OFFCURVE",
"1017 723 CURVE SMOOTH",
"994 787 OFFCURVE",
"962 842 OFFCURVE",
"920 887 CURVE SMOOTH",
"878 932 OFFCURVE",
"827 967 OFFCURVE",
"768 992 CURVE SMOOTH",
"709 1017 OFFCURVE",
"642 1029 OFFCURVE",
"568 1029 CURVE SMOOTH"
);
},
{
closed = 1;
nodes = (
"467 125 OFFCURVE",
"391 159 OFFCURVE",
"342 226 CURVE SMOOTH",
"292 293 OFFCURVE",
"267 386 OFFCURVE",
"267 506 CURVE SMOOTH",
"267 566 OFFCURVE",
"273 620 OFFCURVE",
"286 668 CURVE SMOOTH",
"298 715 OFFCURVE",
"317 755 OFFCURVE",
"342 788 CURVE SMOOTH",
"367 821 OFFCURVE",
"398 846 OFFCURVE",
"436 863 CURVE SMOOTH",
"473 880 OFFCURVE",
"517 889 OFFCURVE",
"568 889 CURVE SMOOTH",
"668 889 OFFCURVE",
"743 855 OFFCURVE",
"792 788 CURVE SMOOTH",
"841 721 OFFCURVE",
"866 627 OFFCURVE",
"866 506 CURVE SMOOTH",
"866 386 OFFCURVE",
"841 293 OFFCURVE",
"792 226 CURVE SMOOTH",
"743 159 OFFCURVE",
"668 125 OFFCURVE",
"568 125 CURVE SMOOTH"
);
},
{
closed = 1;
nodes = (
"664 1325 OFFCURVE",
"648 1330 OFFCURVE",
"633 1340 CURVE",
"617 1349 OFFCURVE",
"600 1360 OFFCURVE",
"582 1371 CURVE SMOOTH",
"564 1382 OFFCURVE",
"545 1393 OFFCURVE",
"525 1403 CURVE",
"504 1412 OFFCURVE",
"482 1417 OFFCURVE",
"459 1417 CURVE SMOOTH",
"433 1417 OFFCURVE",
"409 1412 OFFCURVE",
"387 1402 CURVE",
"365 1391 OFFCURVE",
"346 1377 OFFCURVE",
"330 1358 CURVE SMOOTH",
"314 1339 OFFCURVE",
"302 1316 OFFCURVE",
"293 1290 CURVE SMOOTH",
"284 1263 OFFCURVE",
"280 1234 OFFCURVE",
"280 1202 CURVE",
"391 1202 LINE",
"392 1261 OFFCURVE",
"417 1290 OFFCURVE",
"465 1290 CURVE SMOOTH",
"480 1290 OFFCURVE",
"496 1285 OFFCURVE",
"512 1276 CURVE",
"528 1266 OFFCURVE",
"545 1255 OFFCURVE",
"563 1244 CURVE SMOOTH",
"581 1233 OFFCURVE",
"600 1222 OFFCURVE",
"621 1213 CURVE",
"641 1203 OFFCURVE",
"663 1198 OFFCURVE",
"686 1198 CURVE SMOOTH",
"713 1198 OFFCURVE",
"737 1203 OFFCURVE",
"759 1214 CURVE SMOOTH",
"780 1224 OFFCURVE",
"799 1238 OFFCURVE",
"815 1257 CURVE SMOOTH",
"830 1276 OFFCURVE",
"842 1298 OFFCURVE",
"851 1325 CURVE SMOOTH",
"859 1351 OFFCURVE",
"863 1380 OFFCURVE",
"863 1411 CURVE",
"755 1411 LINE",
"754 1382 OFFCURVE",
"748 1360 OFFCURVE",
"735 1346 CURVE SMOOTH",
"722 1332 OFFCURVE",
"703 1325 OFFCURVE",
"679 1325 CURVE SMOOTH"
);
}
);
width = 1134;
}
);
leftKerningGroup = c;
rightKerningGroup = o;
unicode = 00F5;
},
